<?xml version="1.0" encoding="utf-8" ?>
<svg baseProfile="full" height="98mm" version="1.1" viewBox="0,0,200,98" width="200mm" xmlns="http://www.w3.org/2000/svg" xmlns:ev="http://www.w3.org/2001/xml-events" xmlns:xlink="http://www.w3.org/1999/xlink"><defs /><rect fill="#222222" height="98" width="200" x="0" y="0" /><text fill="#FFFFFF" style="font-size:12px; font-family:Arial; font-weight:bold;" x="10" y="20">2020 Running</text><text fill="#FFFFFF" style="font-size:4px; font-family:Arial" x="10" y="78">ATHLETE</text><text fill="#FFFFFF" style="font-size:9px; font-family:Arial" x="10" y="88">yihong0618</text><text fill="#FFFFFF" style="font-size:4px; font-family:Arial" x="120" y="78">STATISTICS</text><text fill="#FFFFFF" style="font-size:3px; font-family:Arial" x="120" y="83">Number: 353</text><text fill="#FFFFFF" style="font-size:3px; font-family:Arial" x="120" y="88">Weekly: 6.9</text><text fill="#FFFFFF" style="font-size:3px; font-family:Arial" x="141" y="83">Total: 1268.0 km</text><text fill="#FFFFFF" style="font-size:3px; font-family:Arial" x="141" y="88">Avg: 3.6 km</text><text fill="#FFFFFF" style="font-size:3px; font-family:Arial" x="167" y="83">Min: 0.6 km</text><text fill="#FFFFFF" style="font-size:3px; font-family:Arial" x="167" y="88">Max: 20.7 km</text><text alignment-baseline="hanging" fill="#FFFFFF" style="font-size:10.0px; font-family:Arial;" x="10" y="30">2020</text><text alignment-baseline="hanging" fill="#FFFFFF" style="font-size:4.125px; font-family:Arial;" x="175" y="32">1268.0 km</text><text fill="#FFFFFF" style="font-size:2.5px; font-family:Arial" x="10.0" y="44">Jan</text><text fill="#FFFFFF" style="font-size:2.5px; font-family:Arial" x="25.5" y="44">Feb</text><text fill="#FFFFFF" style="font-size:2.5px; font-family:Arial" x="41.0" y="44">Mar</text><text fill="#FFFFFF" style="font-size:2.5px; font-family:Arial" x="56.5" y="44">Apr</text><text fill="#FFFFFF" style="font-size:2.5px; font-family:Arial" x="72.0" y="44">May</text><text fill="#FFFFFF" style="font-size:2.5px; font-family:Arial" x="87.5" y="44">Jun</text><text fill="#FFFFFF" style="font-size:2.5px; font-family:Arial" x="103.0" y="44">Jul</text><text fill="#FFFFFF" style="font-size:2.5px; font-family:Arial" x="118.5" y="44">Aug</text><text fill="#FFFFFF" style="font-size:2.5px; font-family:Arial" x="134.0" y="44">Sep</text><text fill="#FFFFFF" style="font-size:2.5px; font-family:Arial" x="149.5" y="44">Oct</text><text fill="#FFFFFF" style="font-size:2.5px; font-family:Arial" x="165.0" y="44">Nov</text><text fill="#FFFFFF" style="font-size:2.5px; font-family:Arial" x="180.5" y="44">Dec</text><rect fill="#444444" height="2.6" width="2.6" x="10.0" y="45.5"><title>2019-12-30</title></rect><rect fill="#444444" height="2.6" width="2.6" x="10.0" y="49.0"><title>2019-12-31</title></rect><rect fill="#ff8700" height="2.6" width="2.6" x="10.0" y="52.5"><title>2020-01-01 10.1 km</title></rect><rect fill="#4dd2ff" height="2.6" width="2.6" x="10.0" y="56.0"><title>2020-01-02 5.2 km</title></rect><rect fill="#4dd2ff" height="2.6" width="2.6" x="10.0" y="59.5"><title>2020-01-03 5.0 km</title></rect><rect fill="#4dd2ff" height="2.6" width="2.6" x="10.0" y="63.0"><title>2020-01-04 9.5 km</title></rect><rect fill="#ff8700" height="2.6" width="2.6" x="10.0" y="66.5"><title>2020-01-05 10.1 km</title></rect><rect fill="#4dd2ff" height="2.6" width="2.6" x="13.5" y="45.5"><title>2020-01-06 4.0 km</title></rect><rect fill="#444444" height="2.6" width="2.6" x="13.5" y="49.0"><title>2020-01-07</title></rect><rect fill="#4dd2ff" height="2.6" width="2.6" x="13.5" y="52.5"><title>2020-01-08 2.0 km</title></rect><rect fill="#444444" height="2.6" width="2.6" x="13.5" y="56.0"><title>2020-01-09</title></rect><rect fill="#444444" height="2.6" width="2.6" x="13.5" y="59.5"><title>2020-01-10</title></rect><rect fill="#4dd2ff" height="2.6" width="2.6" x="13.5" y="63.0"><title>2020-01-11 1.1 km</title></rect><rect fill="#4dd2ff" height="2.6" width="2.6" x="13.5" y="66.5"><title>2020-01-12 5.0 km</title></rect><rect fill="#4dd2ff" height="2.6" width="2.6" x="17.0" y="45.5"><title>2020-01-13 2.0 km</title></rect><rect fill="#4dd2ff" height="2.6" width="2.6" x="17.0" y="49.0"><title>2020-01-14 4.0 km</title></rect><rect fill="#4dd2ff" height="2.6" width="2.6" x="17.0" y="52.5"><title>2020-01-15 4.0 km</title></rect><rect fill="#4dd2ff" height="2.6" width="2.6" x="17.0" y="56.0"><title>2020-01-16 4.1 km</title></rect><rect fill="#4dd2ff" height="2.6" width="2.6" x="17.0" y="59.5"><title>2020-01-17 5.0 km</title></rect><rect fill="#4dd2ff" height="2.6" width="2.6" x="17.0" y="63.0"><title>2020-01-18 3.0 km</title></rect><rect fill="#4dd2ff" height="2.6" width="2.6" x="17.0" y="66.5"><title>2020-01-19 3.1 km</title></rect><rect fill="#4dd2ff" height="2.6" width="2.6" x="20.5" y="45.5"><title>2020-01-20 3.8 km</title></rect><rect fill="#444444" height="2.6" width="2.6" x="20.5" y="49.0"><title>2020-01-21</title></rect><rect fill="#4dd2ff" height="2.6" width="2.6" x="20.5" y="52.5"><title>2020-01-22 3.0 km</title></rect><rect fill="#4dd2ff" height="2.6" width="2.6" x="20.5" y="56.0"><title>2020-01-23 1.5 km</title></rect><rect fill="#4dd2ff" height="2.6" width="2.6" x="20.5" y="59.5"><title>2020-01-24 3.0 km</title></rect><rect fill="#4dd2ff" height="2.6" width="2.6" x="20.5" y="63.0"><title>2020-01-25 2.0 km</title></rect><rect fill="#4dd2ff" height="2.6" width="2.6" x="20.5" y="66.5"><title>2020-01-26 2.0 km</title></rect><rect fill="#4dd2ff" height="2.6" width="2.6" x="24.0" y="45.5"><title>2020-01-27 3.0 km</title></rect><rect fill="#444444" height="2.6" width="2.6" x="24.0" y="49.0"><title>2020-01-28</title></rect><rect fill="#444444" height="2.6" width="2.6" x="24.0" y="52.5"><title>2020-01-29</title></rect><rect fill="#444444" height="2.6" width="2.6" x="24.0" y="56.0"><title>2020-01-30</title></rect><rect fill="#4dd2ff" height="2.6" width="2.6" x="24.0" y="59.5"><title>2020-01-31 5.0 km</title></rect><rect fill="#4dd2ff" height="2.6" width="2.6" x="24.0" y="63.0"><title>2020-02-01 4.0 km</title></rect><rect fill="#4dd2ff" height="2.6" width="2.6" x="24.0" y="66.5"><title>2020-02-02 5.0 km</title></rect><rect fill="#4dd2ff" height="2.6" width="2.6" x="27.5" y="45.5"><title>2020-02-03 4.1 km</title></rect><rect fill="#444444" height="2.6" width="2.6" x="27.5" y="49.0"><title>2020-02-04</title></rect><rect fill="#4dd2ff" height="2.6" width="2.6" x="27.5" y="52.5"><title>2020-02-05 3.1 km</title></rect><rect fill="#4dd2ff" height="2.6" width="2.6" x="27.5" y="56.0"><title>2020-02-06 3.0 km</title></rect><rect fill="#4dd2ff" height="2.6" width="2.6" x="27.5" y="59.5"><title>2020-02-07 4.0 km</title></rect><rect fill="#4dd2ff" height="2.6" width="2.6" x="27.5" y="63.0"><title>2020-02-08 3.8 km</title></rect><rect fill="#444444" height="2.6" width="2.6" x="27.5" y="66.5"><title>2020-02-09</title></rect><rect fill="#4dd2ff" height="2.6" width="2.6" x="31.0" y="45.5"><title>2020-02-10 5.0 km</title></rect><rect fill="#4dd2ff" height="2.6" width="2.6" x="31.0" y="49.0"><title>2020-02-11 3.1 km</title></rect><rect fill="#4dd2ff" height="2.6" width="2.6" x="31.0" y="52.5"><title>2020-02-12 4.1 km</title></rect><rect fill="#444444" height="2.6" width="2.6" x="31.0" y="56.0"><title>2020-02-13</title></rect><rect fill="#444444" height="2.6" width="2.6" x="31.0" y="59.5"><title>2020-02-14</title></rect><rect fill="#444444" height="2.6" width="2.6" x="31.0" y="63.0"><title>2020-02-15</title></rect><rect fill="#444444" height="2.6" width="2.6" x="31.0" y="66.5"><title>2020-02-16</title></rect><rect fill="#444444" height="2.6" width="2.6" x="34.5" y="45.5"><title>2020-02-17</title></rect><rect fill="#444444" height="2.6" width="2.6" x="34.5" y="49.0"><title>2020-02-18</title></rect><rect fill="#444444" height="2.6" width="2.6" x="34.5" y="52.5"><title>2020-02-19</title></rect><rect fill="#4dd2ff" height="2.6" width="2.6" x="34.5" y="56.0"><title>2020-02-20 1.2 km</title></rect><rect fill="#4dd2ff" height="2.6" width="2.6" x="34.5" y="59.5"><title>2020-02-21 3.1 km</title></rect><rect fill="#4dd2ff" height="2.6" width="2.6" x="34.5" y="63.0"><title>2020-02-22 4.4 km</title></rect><rect fill="#4dd2ff" height="2.6" width="2.6" x="34.5" y="66.5"><title>2020-02-23 5.0 km</title></rect><rect fill="#444444" height="2.6" width="2.6" x="38.0" y="45.5"><title>2020-02-24</title></rect><rect fill="#4dd2ff" height="2.6" width="2.6" x="38.0" y="49.0"><title>2020-02-25 1.0 km</title></rect><rect fill="#444444" height="2.6" width="2.6" x="38.0" y="52.5"><title>2020-02-26</title></rect><rect fill="#4dd2ff" height="2.6" width="2.6" x="38.0" y="56.0"><title>2020-02-27 1.0 km</title></rect><rect fill="#444444" height="2.6" width="2.6" x="38.0" y="59.5"><title>2020-02-28</title></rect><rect fill="#4dd2ff" height="2.6" width="2.6" x="38.0" y="63.0"><title>2020-02-29 2.0 km</title></rect><rect fill="#444444" height="2.6" width="2.6" x="38.0" y="66.5"><title>2020-03-01</title></rect><rect fill="#4dd2ff" height="2.6" width="2.6" x="41.5" y="45.5"><title>2020-03-02 1.0 km</title></rect><rect fill="#444444" height="2.6" width="2.6" x="41.5" y="49.0"><title>2020-03-03</title></rect><rect fill="#4dd2ff" height="2.6" width="2.6" x="41.5" y="52.5"><title>2020-03-04 3.0 km</title></rect><rect fill="#444444" height="2.6" width="2.6" x="41.5" y="56.0"><title>2020-03-05</title></rect><rect fill="#444444" height="2.6" width="2.6" x="41.5" y="59.5"><title>2020-03-06</title></rect><rect fill="#444444" height="2.6" width="2.6" x="41.5" y="63.0"><title>2020-03-07</title></rect><rect fill="#444444" height="2.6" width="2.6" x="41.5" y="66.5"><title>2020-03-08</title></rect><rect fill="#444444" height="2.6" width="2.6" x="45.0" y="45.5"><title>2020-03-09</title></rect><rect fill="#4dd2ff" height="2.6" width="2.6" x="45.0" y="49.0"><title>2020-03-10 2.1 km</title></rect><rect fill="#4dd2ff" height="2.6" width="2.6" x="45.0" y="52.5"><title>2020-03-11 1.0 km</title></rect><rect fill="#4dd2ff" height="2.6" width="2.6" x="45.0" y="56.0"><title>2020-03-12 1.4 km</title></rect><rect fill="#444444" height="2.6" width="2.6" x="45.0" y="59.5"><title>2020-03-13</title></rect><rect fill="#444444" height="2.6" width="2.6" x="45.0" y="63.0"><title>2020-03-14</title></rect><rect fill="#444444" height="2.6" width="2.6" x="45.0" y="66.5"><title>2020-03-15</title></rect><rect fill="#444444" height="2.6" width="2.6" x="48.5" y="45.5"><title>2020-03-16</title></rect><rect fill="#4dd2ff" height="2.6" width="2.6" x="48.5" y="49.0"><title>2020-03-17 1.3 km</title></rect><rect fill="#4dd2ff" height="2.6" width="2.6" x="48.5" y="52.5"><title>2020-03-18 2.0 km</title></rect><rect fill="#444444" height="2.6" width="2.6" x="48.5" y="56.0"><title>2020-03-19</title></rect><rect fill="#4dd2ff" height="2.6" width="2.6" x="48.5" y="59.5"><title>2020-03-20 1.2 km</title></rect><rect fill="#444444" height="2.6" width="2.6" x="48.5" y="63.0"><title>2020-03-21</title></rect><rect fill="#444444" height="2.6" width="2.6" x="48.5" y="66.5"><title>2020-03-22</title></rect><rect fill="#4dd2ff" height="2.6" width="2.6" x="52.0" y="45.5"><title>2020-03-23 3.0 km</title></rect><rect fill="#444444" height="2.6" width="2.6" x="52.0" y="49.0"><title>2020-03-24</title></rect><rect fill="#4dd2ff" height="2.6" width="2.6" x="52.0" y="52.5"><title>2020-03-25 2.3 km</title></rect><rect fill="#444444" height="2.6" width="2.6" x="52.0" y="56.0"><title>2020-03-26</title></rect><rect fill="#444444" height="2.6" width="2.6" x="52.0" y="59.5"><title>2020-03-27</title></rect><rect fill="#444444" height="2.6" width="2.6" x="52.0" y="63.0"><title>2020-03-28</title></rect><rect fill="#444444" height="2.6" width="2.6" x="52.0" y="66.5"><title>2020-03-29</title></rect><rect fill="#4dd2ff" height="2.6" width="2.6" x="55.5" y="45.5"><title>2020-03-30 1.0 km</title></rect><rect fill="#444444" height="2.6" width="2.6" x="55.5" y="49.0"><title>2020-03-31</title></rect><rect fill="#4dd2ff" height="2.6" width="2.6" x="55.5" y="52.5"><title>2020-04-01 1.4 km</title></rect><rect fill="#444444" height="2.6" width="2.6" x="55.5" y="56.0"><title>2020-04-02</title></rect><rect fill="#444444" height="2.6" width="2.6" x="55.5" y="59.5"><title>2020-04-03</title></rect><rect fill="#444444" height="2.6" width="2.6" x="55.5" y="63.0"><title>2020-04-04</title></rect><rect fill="#444444" height="2.6" width="2.6" x="55.5" y="66.5"><title>2020-04-05</title></rect><rect fill="#4dd2ff" height="2.6" width="2.6" x="59.0" y="45.5"><title>2020-04-06 1.4 km</title></rect><rect fill="#4dd2ff" height="2.6" width="2.6" x="59.0" y="49.0"><title>2020-04-07 2.0 km</title></rect><rect fill="#4dd2ff" height="2.6" width="2.6" x="59.0" y="52.5"><title>2020-04-08 2.0 km</title></rect><rect fill="#4dd2ff" height="2.6" width="2.6" x="59.0" y="56.0"><title>2020-04-09 1.3 km</title></rect><rect fill="#4dd2ff" height="2.6" width="2.6" x="59.0" y="59.5"><title>2020-04-10 2.1 km</title></rect><rect fill="#444444" height="2.6" width="2.6" x="59.0" y="63.0"><title>2020-04-11</title></rect><rect fill="#444444" height="2.6" width="2.6" x="59.0" y="66.5"><title>2020-04-12</title></rect><rect fill="#4dd2ff" height="2.6" width="2.6" x="62.5" y="45.5"><title>2020-04-13 2.1 km</title></rect><rect fill="#4dd2ff" height="2.6" width="2.6" x="62.5" y="49.0"><title>2020-04-14 3.0 km</title></rect><rect fill="#4dd2ff" height="2.6" width="2.6" x="62.5" y="52.5"><title>2020-04-15 1.6 km</title></rect><rect fill="#444444" height="2.6" width="2.6" x="62.5" y="56.0"><title>2020-04-16</title></rect><rect fill="#444444" height="2.6" width="2.6" x="62.5" y="59.5"><title>2020-04-17</title></rect><rect fill="#4dd2ff" height="2.6" width="2.6" x="62.5" y="63.0"><title>2020-04-18 2.0 km</title></rect><rect fill="#444444" height="2.6" width="2.6" x="62.5" y="66.5"><title>2020-04-19</title></rect><rect fill="#444444" height="2.6" width="2.6" x="66.0" y="45.5"><title>2020-04-20</title></rect><rect fill="#444444" height="2.6" width="2.6" x="66.0" y="49.0"><title>2020-04-21</title></rect><rect fill="#444444" height="2.6" width="2.6" x="66.0" y="52.5"><title>2020-04-22</title></rect><rect fill="#444444" height="2.6" width="2.6" x="66.0" y="56.0"><title>2020-04-23</title></rect><rect fill="#444444" height="2.6" width="2.6" x="66.0" y="59.5"><title>2020-04-24</title></rect><rect fill="#4dd2ff" height="2.6" width="2.6" x="66.0" y="63.0"><title>2020-04-25 1.0 km</title></rect><rect fill="#444444" height="2.6" width="2.6" x="66.0" y="66.5"><title>2020-04-26</title></rect><rect fill="#4dd2ff" height="2.6" width="2.6" x="69.5" y="45.5"><title>2020-04-27 1.1 km</title></rect><rect fill="#4dd2ff" height="2.6" width="2.6" x="69.5" y="49.0"><title>2020-04-28 2.0 km</title></rect><rect fill="#4dd2ff" height="2.6" width="2.6" x="69.5" y="52.5"><title>2020-04-29 1.0 km</title></rect><rect fill="#4dd2ff" height="2.6" width="2.6" x="69.5" y="56.0"><title>2020-04-30 0.6 km</title></rect><rect fill="#444444" height="2.6" width="2.6" x="69.5" y="59.5"><title>2020-05-01</title></rect><rect fill="#444444" height="2.6" width="2.6" x="69.5" y="63.0"><title>2020-05-02</title></rect><rect fill="#444444" height="2.6" width="2.6" x="69.5" y="66.5"><title>2020-05-03</title></rect><rect fill="#444444" height="2.6" width="2.6" x="73.0" y="45.5"><title>2020-05-04</title></rect><rect fill="#444444" height="2.6" width="2.6" x="73.0" y="49.0"><title>2020-05-05</title></rect><rect fill="#4dd2ff" height="2.6" width="2.6" x="73.0" y="52.5"><title>2020-05-06 1.0 km</title></rect><rect fill="#444444" height="2.6" width="2.6" x="73.0" y="56.0"><title>2020-05-07</title></rect><rect fill="#444444" height="2.6" width="2.6" x="73.0" y="59.5"><title>2020-05-08</title></rect><rect fill="#4dd2ff" height="2.6" width="2.6" x="73.0" y="63.0"><title>2020-05-09 3.7 km</title></rect><rect fill="#444444" height="2.6" width="2.6" x="73.0" y="66.5"><title>2020-05-10</title></rect><rect fill="#4dd2ff" height="2.6" width="2.6" x="76.5" y="45.5"><title>2020-05-11 2.2 km</title></rect><rect fill="#4dd2ff" height="2.6" width="2.6" x="76.5" y="49.0"><title>2020-05-12 6.4 km</title></rect><rect fill="#4dd2ff" height="2.6" width="2.6" x="76.5" y="52.5"><title>2020-05-13 2.0 km</title></rect><rect fill="#444444" height="2.6" width="2.6" x="76.5" y="56.0"><title>2020-05-14</title></rect><rect fill="#4dd2ff" height="2.6" width="2.6" x="76.5" y="59.5"><title>2020-05-15 1.0 km</title></rect><rect fill="#4dd2ff" height="2.6" width="2.6" x="76.5" y="63.0"><title>2020-05-16 6.5 km</title></rect><rect fill="#4dd2ff" height="2.6" width="2.6" x="76.5" y="66.5"><title>2020-05-17 4.3 km</title></rect><rect fill="#4dd2ff" height="2.6" width="2.6" x="80.0" y="45.5"><title>2020-05-18 1.2 km</title></rect><rect fill="#4dd2ff" height="2.6" width="2.6" x="80.0" y="49.0"><title>2020-05-19 6.7 km</title></rect><rect fill="#4dd2ff" height="2.6" width="2.6" x="80.0" y="52.5"><title>2020-05-20 6.0 km</title></rect><rect fill="#4dd2ff" height="2.6" width="2.6" x="80.0" y="56.0"><title>2020-05-21 3.3 km</title></rect><rect fill="#4dd2ff" height="2.6" width="2.6" x="80.0" y="59.5"><title>2020-05-22 7.6 km</title></rect><rect fill="#4dd2ff" height="2.6" width="2.6" x="80.0" y="63.0"><title>2020-05-23 3.1 km</title></rect><rect fill="#4dd2ff" height="2.6" width="2.6" x="80.0" y="66.5"><title>2020-05-24 7.1 km</title></rect><rect fill="#4dd2ff" height="2.6" width="2.6" x="83.5" y="45.5"><title>2020-05-25 6.0 km</title></rect><rect fill="#4dd2ff" height="2.6" width="2.6" x="83.5" y="49.0"><title>2020-05-26 4.2 km</title></rect><rect fill="#4dd2ff" height="2.6" width="2.6" x="83.5" y="52.5"><title>2020-05-27 6.5 km</title></rect><rect fill="#4dd2ff" height="2.6" width="2.6" x="83.5" y="56.0"><title>2020-05-28 5.1 km</title></rect><rect fill="#4dd2ff" height="2.6" width="2.6" x="83.5" y="59.5"><title>2020-05-29 4.1 km</title></rect><rect fill="#ff8000" height="2.6" width="2.6" x="83.5" y="63.0"><title>2020-05-30 10.6 km</title></rect><rect fill="#4dd2ff" height="2.6" width="2.6" x="83.5" y="66.5"><title>2020-05-31 3.5 km</title></rect><rect fill="#4dd2ff" height="2.6" width="2.6" x="87.0" y="45.5"><title>2020-06-01 4.0 km</title></rect><rect fill="#4dd2ff" height="2.6" width="2.6" x="87.0" y="49.0"><title>2020-06-02 5.5 km</title></rect><rect fill="#4dd2ff" height="2.6" width="2.6" x="87.0" y="52.5"><title>2020-06-03 4.0 km</title></rect><rect fill="#4dd2ff" height="2.6" width="2.6" x="87.0" y="56.0"><title>2020-06-04 7.7 km</title></rect><rect fill="#4dd2ff" height="2.6" width="2.6" x="87.0" y="59.5"><title>2020-06-05 4.7 km</title></rect><rect fill="#ff7800" height="2.6" width="2.6" x="87.0" y="63.0"><title>2020-06-06 11.3 km</title></rect><rect fill="#4dd2ff" height="2.6" width="2.6" x="87.0" y="66.5"><title>2020-06-07 6.1 km</title></rect><rect fill="#4dd2ff" height="2.6" width="2.6" x="90.5" y="45.5"><title>2020-06-08 4.0 km</title></rect><rect fill="#4dd2ff" height="2.6" width="2.6" x="90.5" y="49.0"><title>2020-06-09 4.8 km</title></rect><rect fill="#4dd2ff" height="2.6" width="2.6" x="90.5" y="52.5"><title>2020-06-10 6.6 km</title></rect><rect fill="#4dd2ff" height="2.6" width="2.6" x="90.5" y="56.0"><title>2020-06-11 5.7 km</title></rect><rect fill="#ff5800" height="2.6" width="2.6" x="90.5" y="59.5"><title>2020-06-12 13.8 km</title></rect><rect fill="#4dd2ff" height="2.6" width="2.6" x="90.5" y="63.0"><title>2020-06-13 1.5 km</title></rect><rect fill="#ff8300" height="2.6" width="2.6" x="90.5" y="66.5"><title>2020-06-14 10.4 km</title></rect><rect fill="#4dd2ff" height="2.6" width="2.6" x="94.0" y="45.5"><title>2020-06-15 5.6 km</title></rect><rect fill="#4dd2ff" height="2.6" width="2.6" x="94.0" y="49.0"><title>2020-06-16 4.0 km</title></rect><rect fill="#4dd2ff" height="2.6" width="2.6" x="94.0" y="52.5"><title>2020-06-17 5.5 km</title></rect><rect fill="#ff7a00" height="2.6" width="2.6" x="94.0" y="56.0"><title>2020-06-18 11.1 km</title></rect><rect fill="#4dd2ff" height="2.6" width="2.6" x="94.0" y="59.5"><title>2020-06-19 6.1 km</title></rect><rect fill="#4dd2ff" height="2.6" width="2.6" x="94.0" y="63.0"><title>2020-06-20 8.8 km</title></rect><rect fill="#4dd2ff" height="2.6" width="2.6" x="94.0" y="66.5"><title>2020-06-21 2.4 km</title></rect><rect fill="#ff6900" height="2.6" width="2.6" x="97.5" y="45.5"><title>2020-06-22 12.4 km</title></rect><rect fill="#4dd2ff" height="2.6" width="2.6" x="97.5" y="49.0"><title>2020-06-23 4.1 km</title></rect><rect fill="#4dd2ff" height="2.6" width="2.6" x="97.5" y="52.5"><title>2020-06-24 7.1 km</title></rect><rect fill="#4dd2ff" height="2.6" width="2.6" x="97.5" y="56.0"><title>2020-06-25 7.5 km</title></rect><rect fill="#4dd2ff" height="2.6" width="2.6" x="97.5" y="59.5"><title>2020-06-26 5.2 km</title></rect><rect fill="#ff6100" height="2.6" width="2.6" x="97.5" y="63.0"><title>2020-06-27 13.1 km</title></rect><rect fill="#4dd2ff" height="2.6" width="2.6" x="97.5" y="66.5"><title>2020-06-28 4.6 km</title></rect><rect fill="#4dd2ff" height="2.6" width="2.6" x="101.0" y="45.5"><title>2020-06-29 6.0 km</title></rect><rect fill="#4dd2ff" height="2.6" width="2.6" x="101.0" y="49.0"><title>2020-06-30 8.1 km</title></rect><rect fill="#4dd2ff" height="2.6" width="2.6" x="101.0" y="52.5"><title>2020-07-01 3.0 km</title></rect><rect fill="#4dd2ff" height="2.6" width="2.6" x="101.0" y="56.0"><title>2020-07-02 6.1 km</title></rect><rect fill="#4dd2ff" height="2.6" width="2.6" x="101.0" y="59.5"><title>2020-07-03 6.7 km</title></rect><rect fill="#ff2c00" height="2.6" width="2.6" x="101.0" y="63.0"><title>2020-07-04 17.2 km</title></rect><rect fill="#4dd2ff" height="2.6" width="2.6" x="101.0" y="66.5"><title>2020-07-05 4.2 km</title></rect><rect fill="#4dd2ff" height="2.6" width="2.6" x="104.5" y="45.5"><title>2020-07-06 6.9 km</title></rect><rect fill="#4dd2ff" height="2.6" width="2.6" x="104.5" y="49.0"><title>2020-07-07 5.9 km</title></rect><rect fill="#4dd2ff" height="2.6" width="2.6" x="104.5" y="52.5"><title>2020-07-08 3.9 km</title></rect><rect fill="#4dd2ff" height="2.6" width="2.6" x="104.5" y="56.0"><title>2020-07-09 6.3 km</title></rect><rect fill="#4dd2ff" height="2.6" width="2.6" x="104.5" y="59.5"><title>2020-07-10 8.2 km</title></rect><rect fill="#4dd2ff" height="2.6" width="2.6" x="104.5" y="63.0"><title>2020-07-11 9.5 km</title></rect><rect fill="#4dd2ff" height="2.6" width="2.6" x="104.5" y="66.5"><title>2020-07-12 5.2 km</title></rect><rect fill="#ff8400" height="2.6" width="2.6" x="108.0" y="45.5"><title>2020-07-13 10.3 km</title></rect><rect fill="#4dd2ff" height="2.6" width="2.6" x="108.0" y="49.0"><title>2020-07-14 8.6 km</title></rect><rect fill="#4dd2ff" height="2.6" width="2.6" x="108.0" y="52.5"><title>2020-07-15 6.4 km</title></rect><rect fill="#4dd2ff" height="2.6" width="2.6" x="108.0" y="56.0"><title>2020-07-16 5.7 km</title></rect><rect fill="#ff7700" height="2.6" width="2.6" x="108.0" y="59.5"><title>2020-07-17 11.3 km</title></rect><rect fill="#4dd2ff" height="2.6" width="2.6" x="108.0" y="63.0"><title>2020-07-18 7.6 km</title></rect><rect fill="#ff5200" height="2.6" width="2.6" x="108.0" y="66.5"><title>2020-07-19 14.2 km</title></rect><rect fill="#4dd2ff" height="2.6" width="2.6" x="111.5" y="45.5"><title>2020-07-20 5.0 km</title></rect><rect fill="#4dd2ff" height="2.6" width="2.6" x="111.5" y="49.0"><title>2020-07-21 6.2 km</title></rect><rect fill="#4dd2ff" height="2.6" width="2.6" x="111.5" y="52.5"><title>2020-07-22 6.2 km</title></rect><rect fill="#4dd2ff" height="2.6" width="2.6" x="111.5" y="56.0"><title>2020-07-23 4.8 km</title></rect><rect fill="#4dd2ff" height="2.6" width="2.6" x="111.5" y="59.5"><title>2020-07-24 2.2 km</title></rect><rect fill="#ff7d00" height="2.6" width="2.6" x="111.5" y="63.0"><title>2020-07-25 10.9 km</title></rect><rect fill="#4dd2ff" height="2.6" width="2.6" x="111.5" y="66.5"><title>2020-07-26 4.2 km</title></rect><rect fill="#ff8700" height="2.6" width="2.6" x="115.0" y="45.5"><title>2020-07-27 10.1 km</title></rect><rect fill="#4dd2ff" height="2.6" width="2.6" x="115.0" y="49.0"><title>2020-07-28 4.1 km</title></rect><rect fill="#4dd2ff" height="2.6" width="2.6" x="115.0" y="52.5"><title>2020-07-29 2.6 km</title></rect><rect fill="#4dd2ff" height="2.6" width="2.6" x="115.0" y="56.0"><title>2020-07-30 5.2 km</title></rect><rect fill="#4dd2ff" height="2.6" width="2.6" x="115.0" y="59.5"><title>2020-07-31 7.1 km</title></rect><rect fill="#ff8500" height="2.6" width="2.6" x="115.0" y="63.0"><title>2020-08-01 10.2 km</title></rect><rect fill="#4dd2ff" height="2.6" width="2.6" x="115.0" y="66.5"><title>2020-08-02 5.4 km</title></rect><rect fill="#4dd2ff" height="2.6" width="2.6" x="118.5" y="45.5"><title>2020-08-03 1.1 km</title></rect><rect fill="#4dd2ff" height="2.6" width="2.6" x="118.5" y="49.0"><title>2020-08-04 5.4 km</title></rect><rect fill="#4dd2ff" height="2.6" width="2.6" x="118.5" y="52.5"><title>2020-08-05 5.8 km</title></rect><rect fill="#4dd2ff" height="2.6" width="2.6" x="118.5" y="56.0"><title>2020-08-06 2.3 km</title></rect><rect fill="#4dd2ff" height="2.6" width="2.6" x="118.5" y="59.5"><title>2020-08-07 5.1 km</title></rect><rect fill="#4dd2ff" height="2.6" width="2.6" x="118.5" y="63.0"><title>2020-08-08 9.3 km</title></rect><rect fill="#4dd2ff" height="2.6" width="2.6" x="118.5" y="66.5"><title>2020-08-09 5.1 km</title></rect><rect fill="#4dd2ff" height="2.6" width="2.6" x="122.0" y="45.5"><title>2020-08-10 8.3 km</title></rect><rect fill="#4dd2ff" height="2.6" width="2.6" x="122.0" y="49.0"><title>2020-08-11 5.1 km</title></rect><rect fill="#4dd2ff" height="2.6" width="2.6" x="122.0" y="52.5"><title>2020-08-12 1.0 km</title></rect><rect fill="#4dd2ff" height="2.6" width="2.6" x="122.0" y="56.0"><title>2020-08-13 6.2 km</title></rect><rect fill="#4dd2ff" height="2.6" width="2.6" x="122.0" y="59.5"><title>2020-08-14 2.1 km</title></rect><rect fill="#4dd2ff" height="2.6" width="2.6" x="122.0" y="63.0"><title>2020-08-15 5.1 km</title></rect><rect fill="red" height="2.6" width="2.6" x="122.0" y="66.5"><title>2020-08-16 20.7 km</title></rect><rect fill="#4dd2ff" height="2.6" width="2.6" x="125.5" y="45.5"><title>2020-08-17 3.1 km</title></rect><rect fill="#4dd2ff" height="2.6" width="2.6" x="125.5" y="49.0"><title>2020-08-18 2.1 km</title></rect><rect fill="#4dd2ff" height="2.6" width="2.6" x="125.5" y="52.5"><title>2020-08-19 3.1 km</title></rect><rect fill="#4dd2ff" height="2.6" width="2.6" x="125.5" y="56.0"><title>2020-08-20 2.0 km</title></rect><rect fill="#4dd2ff" height="2.6" width="2.6" x="125.5" y="59.5"><title>2020-08-21 4.1 km</title></rect><rect fill="#4dd2ff" height="2.6" width="2.6" x="125.5" y="63.0"><title>2020-08-22 2.1 km</title></rect><rect fill="#4dd2ff" height="2.6" width="2.6" x="125.5" y="66.5"><title>2020-08-23 5.1 km</title></rect><rect fill="#4dd2ff" height="2.6" width="2.6" x="129.0" y="45.5"><title>2020-08-24 2.7 km</title></rect><rect fill="#4dd2ff" height="2.6" width="2.6" x="129.0" y="49.0"><title>2020-08-25 2.2 km</title></rect><rect fill="#4dd2ff" height="2.6" width="2.6" x="129.0" y="52.5"><title>2020-08-26 4.3 km</title></rect><rect fill="#4dd2ff" height="2.6" width="2.6" x="129.0" y="56.0"><title>2020-08-27 5.2 km</title></rect><rect fill="#4dd2ff" height="2.6" width="2.6" x="129.0" y="59.5"><title>2020-08-28 5.1 km</title></rect><rect fill="#4dd2ff" height="2.6" width="2.6" x="129.0" y="63.0"><title>2020-08-29 6.7 km</title></rect><rect fill="#4dd2ff" height="2.6" width="2.6" x="129.0" y="66.5"><title>2020-08-30 3.1 km</title></rect><rect fill="#4dd2ff" height="2.6" width="2.6" x="132.5" y="45.5"><title>2020-08-31 5.7 km</title></rect><rect fill="#ff8600" height="2.6" width="2.6" x="132.5" y="49.0"><title>2020-09-01 10.2 km</title></rect><rect fill="#4dd2ff" height="2.6" width="2.6" x="132.5" y="52.5"><title>2020-09-02 7.0 km</title></rect><rect fill="#4dd2ff" height="2.6" width="2.6" x="132.5" y="56.0"><title>2020-09-03 5.2 km</title></rect><rect fill="#4dd2ff" height="2.6" width="2.6" x="132.5" y="59.5"><title>2020-09-04 5.6 km</title></rect><rect fill="#4dd2ff" height="2.6" width="2.6" x="132.5" y="63.0"><title>2020-09-05 5.0 km</title></rect><rect fill="#4dd2ff" height="2.6" width="2.6" x="132.5" y="66.5"><title>2020-09-06 4.4 km</title></rect><rect fill="#4dd2ff" height="2.6" width="2.6" x="136.0" y="45.5"><title>2020-09-07 6.3 km</title></rect><rect fill="#ff8300" height="2.6" width="2.6" x="136.0" y="49.0"><title>2020-09-08 10.4 km</title></rect><rect fill="#4dd2ff" height="2.6" width="2.6" x="136.0" y="52.5"><title>2020-09-09 4.3 km</title></rect><rect fill="#4dd2ff" height="2.6" width="2.6" x="136.0" y="56.0"><title>2020-09-10 4.8 km</title></rect><rect fill="#4dd2ff" height="2.6" width="2.6" x="136.0" y="59.5"><title>2020-09-11 2.1 km</title></rect><rect fill="#4dd2ff" height="2.6" width="2.6" x="136.0" y="63.0"><title>2020-09-12 1.5 km</title></rect><rect fill="#ff8500" height="2.6" width="2.6" x="136.0" y="66.5"><title>2020-09-13 10.3 km</title></rect><rect fill="#4dd2ff" height="2.6" width="2.6" x="139.5" y="45.5"><title>2020-09-14 5.1 km</title></rect><rect fill="#4dd2ff" height="2.6" width="2.6" x="139.5" y="49.0"><title>2020-09-15 1.0 km</title></rect><rect fill="#ff8400" height="2.6" width="2.6" x="139.5" y="52.5"><title>2020-09-16 10.3 km</title></rect><rect fill="#ff8300" height="2.6" width="2.6" x="139.5" y="56.0"><title>2020-09-17 10.4 km</title></rect><rect fill="#4dd2ff" height="2.6" width="2.6" x="139.5" y="59.5"><title>2020-09-18 6.5 km</title></rect><rect fill="#4dd2ff" height="2.6" width="2.6" x="139.5" y="63.0"><title>2020-09-19 4.2 km</title></rect><rect fill="red" height="2.6" width="2.6" x="139.5" y="66.5"><title>2020-09-20 20.2 km</title></rect><rect fill="#4dd2ff" height="2.6" width="2.6" x="143.0" y="45.5"><title>2020-09-21 1.5 km</title></rect><rect fill="#4dd2ff" height="2.6" width="2.6" x="143.0" y="49.0"><title>2020-09-22 2.7 km</title></rect><rect fill="#4dd2ff" height="2.6" width="2.6" x="143.0" y="52.5"><title>2020-09-23 3.1 km</title></rect><rect fill="#4dd2ff" height="2.6" width="2.6" x="143.0" y="56.0"><title>2020-09-24 2.6 km</title></rect><rect fill="#4dd2ff" height="2.6" width="2.6" x="143.0" y="59.5"><title>2020-09-25 2.8 km</title></rect><rect fill="#4dd2ff" height="2.6" width="2.6" x="143.0" y="63.0"><title>2020-09-26 5.6 km</title></rect><rect fill="#4dd2ff" height="2.6" width="2.6" x="143.0" y="66.5"><title>2020-09-27 1.1 km</title></rect><rect fill="#4dd2ff" height="2.6" width="2.6" x="146.5" y="45.5"><title>2020-09-28 1.6 km</title></rect><rect fill="#4dd2ff" height="2.6" width="2.6" x="146.5" y="49.0"><title>2020-09-29 4.1 km</title></rect><rect fill="#444444" height="2.6" width="2.6" x="146.5" y="52.5"><title>2020-09-30</title></rect><rect fill="#4dd2ff" height="2.6" width="2.6" x="146.5" y="56.0"><title>2020-10-01 4.3 km</title></rect><rect fill="#4dd2ff" height="2.6" width="2.6" x="146.5" y="59.5"><title>2020-10-02 3.2 km</title></rect><rect fill="#4dd2ff" height="2.6" width="2.6" x="146.5" y="63.0"><title>2020-10-03 1.4 km</title></rect><rect fill="#4dd2ff" height="2.6" width="2.6" x="146.5" y="66.5"><title>2020-10-04 1.0 km</title></rect><rect fill="#4dd2ff" height="2.6" width="2.6" x="150.0" y="45.5"><title>2020-10-05 3.1 km</title></rect><rect fill="#4dd2ff" height="2.6" width="2.6" x="150.0" y="49.0"><title>2020-10-06 5.2 km</title></rect><rect fill="#4dd2ff" height="2.6" width="2.6" x="150.0" y="52.5"><title>2020-10-07 5.1 km</title></rect><rect fill="#4dd2ff" height="2.6" width="2.6" x="150.0" y="56.0"><title>2020-10-08 5.2 km</title></rect><rect fill="#4dd2ff" height="2.6" width="2.6" x="150.0" y="59.5"><title>2020-10-09 3.1 km</title></rect><rect fill="#4dd2ff" height="2.6" width="2.6" x="150.0" y="63.0"><title>2020-10-10 2.7 km</title></rect><rect fill="#4dd2ff" height="2.6" width="2.6" x="150.0" y="66.5"><title>2020-10-11 3.2 km</title></rect><rect fill="#4dd2ff" height="2.6" width="2.6" x="153.5" y="45.5"><title>2020-10-12 4.3 km</title></rect><rect fill="#4dd2ff" height="2.6" width="2.6" x="153.5" y="49.0"><title>2020-10-13 1.0 km</title></rect><rect fill="#4dd2ff" height="2.6" width="2.6" x="153.5" y="52.5"><title>2020-10-14 4.4 km</title></rect><rect fill="#4dd2ff" height="2.6" width="2.6" x="153.5" y="56.0"><title>2020-10-15 1.5 km</title></rect><rect fill="#444444" height="2.6" width="2.6" x="153.5" y="59.5"><title>2020-10-16</title></rect><rect fill="#4dd2ff" height="2.6" width="2.6" x="153.5" y="63.0"><title>2020-10-17 1.4 km</title></rect><rect fill="#444444" height="2.6" width="2.6" x="153.5" y="66.5"><title>2020-10-18</title></rect><rect fill="#4dd2ff" height="2.6" width="2.6" x="157.0" y="45.5"><title>2020-10-19 2.3 km</title></rect><rect fill="#4dd2ff" height="2.6" width="2.6" x="157.0" y="49.0"><title>2020-10-20 3.0 km</title></rect><rect fill="#4dd2ff" height="2.6" width="2.6" x="157.0" y="52.5"><title>2020-10-21 5.6 km</title></rect><rect fill="#4dd2ff" height="2.6" width="2.6" x="157.0" y="56.0"><title>2020-10-22 3.0 km</title></rect><rect fill="#4dd2ff" height="2.6" width="2.6" x="157.0" y="59.5"><title>2020-10-23 3.3 km</title></rect><rect fill="#4dd2ff" height="2.6" width="2.6" x="157.0" y="63.0"><title>2020-10-24 5.0 km</title></rect><rect fill="#4dd2ff" height="2.6" width="2.6" x="157.0" y="66.5"><title>2020-10-25 3.0 km</title></rect><rect fill="#4dd2ff" height="2.6" width="2.6" x="160.5" y="45.5"><title>2020-10-26 3.2 km</title></rect><rect fill="#4dd2ff" height="2.6" width="2.6" x="160.5" y="49.0"><title>2020-10-27 4.0 km</title></rect><rect fill="#4dd2ff" height="2.6" width="2.6" x="160.5" y="52.5"><title>2020-10-28 2.7 km</title></rect><rect fill="#4dd2ff" height="2.6" width="2.6" x="160.5" y="56.0"><title>2020-10-29 1.7 km</title></rect><rect fill="#4dd2ff" height="2.6" width="2.6" x="160.5" y="59.5"><title>2020-10-30 5.3 km</title></rect><rect fill="#ff7800" height="2.6" width="2.6" x="160.5" y="63.0"><title>2020-10-31 11.3 km</title></rect><rect fill="#4dd2ff" height="2.6" width="2.6" x="160.5" y="66.5"><title>2020-11-01 1.2 km</title></rect><rect fill="#4dd2ff" height="2.6" width="2.6" x="164.0" y="45.5"><title>2020-11-02 3.1 km</title></rect><rect fill="#444444" height="2.6" width="2.6" x="164.0" y="49.0"><title>2020-11-03</title></rect><rect fill="#4dd2ff" height="2.6" width="2.6" x="164.0" y="52.5"><title>2020-11-04 1.9 km</title></rect><rect fill="#4dd2ff" height="2.6" width="2.6" x="164.0" y="56.0"><title>2020-11-05 5.1 km</title></rect><rect fill="#4dd2ff" height="2.6" width="2.6" x="164.0" y="59.5"><title>2020-11-06 2.1 km</title></rect><rect fill="#4dd2ff" height="2.6" width="2.6" x="164.0" y="63.0"><title>2020-11-07 3.0 km</title></rect><rect fill="#4dd2ff" height="2.6" width="2.6" x="164.0" y="66.5"><title>2020-11-08 1.6 km</title></rect><rect fill="#4dd2ff" height="2.6" width="2.6" x="167.5" y="45.5"><title>2020-11-09 5.1 km</title></rect><rect fill="#4dd2ff" height="2.6" width="2.6" x="167.5" y="49.0"><title>2020-11-10 6.4 km</title></rect><rect fill="#4dd2ff" height="2.6" width="2.6" x="167.5" y="52.5"><title>2020-11-11 3.4 km</title></rect><rect fill="#4dd2ff" height="2.6" width="2.6" x="167.5" y="56.0"><title>2020-11-12 4.3 km</title></rect><rect fill="#444444" height="2.6" width="2.6" x="167.5" y="59.5"><title>2020-11-13</title></rect><rect fill="#4dd2ff" height="2.6" width="2.6" x="167.5" y="63.0"><title>2020-11-14 7.0 km</title></rect><rect fill="#4dd2ff" height="2.6" width="2.6" x="167.5" y="66.5"><title>2020-11-15 6.2 km</title></rect><rect fill="#4dd2ff" height="2.6" width="2.6" x="171.0" y="45.5"><title>2020-11-16 1.5 km</title></rect><rect fill="#444444" height="2.6" width="2.6" x="171.0" y="49.0"><title>2020-11-17</title></rect><rect fill="#4dd2ff" height="2.6" width="2.6" x="171.0" y="52.5"><title>2020-11-18 1.0 km</title></rect><rect fill="#4dd2ff" height="2.6" width="2.6" x="171.0" y="56.0"><title>2020-11-19 2.2 km</title></rect><rect fill="#444444" height="2.6" width="2.6" x="171.0" y="59.5"><title>2020-11-20</title></rect><rect fill="#4dd2ff" height="2.6" width="2.6" x="171.0" y="63.0"><title>2020-11-21 4.5 km</title></rect><rect fill="#4dd2ff" height="2.6" width="2.6" x="171.0" y="66.5"><title>2020-11-22 5.6 km</title></rect><rect fill="#4dd2ff" height="2.6" width="2.6" x="174.5" y="45.5"><title>2020-11-23 4.2 km</title></rect><rect fill="#4dd2ff" height="2.6" width="2.6" x="174.5" y="49.0"><title>2020-11-24 1.2 km</title></rect><rect fill="#4dd2ff" height="2.6" width="2.6" x="174.5" y="52.5"><title>2020-11-25 2.1 km</title></rect><rect fill="#4dd2ff" height="2.6" width="2.6" x="174.5" y="56.0"><title>2020-11-26 1.1 km</title></rect><rect fill="#4dd2ff" height="2.6" width="2.6" x="174.5" y="59.5"><title>2020-11-27 3.3 km</title></rect><rect fill="#4dd2ff" height="2.6" width="2.6" x="174.5" y="63.0"><title>2020-11-28 7.0 km</title></rect><rect fill="#444444" height="2.6" width="2.6" x="174.5" y="66.5"><title>2020-11-29</title></rect><rect fill="#444444" height="2.6" width="2.6" x="178.0" y="45.5"><title>2020-11-30</title></rect><rect fill="#444444" height="2.6" width="2.6" x="178.0" y="49.0"><title>2020-12-01</title></rect><rect fill="#4dd2ff" height="2.6" width="2.6" x="178.0" y="52.5"><title>2020-12-02 2.5 km</title></rect><rect fill="#4dd2ff" height="2.6" width="2.6" x="178.0" y="56.0"><title>2020-12-03 1.1 km</title></rect><rect fill="#4dd2ff" height="2.6" width="2.6" x="178.0" y="59.5"><title>2020-12-04 4.1 km</title></rect><rect fill="#ff8500" height="2.6" width="2.6" x="178.0" y="63.0"><title>2020-12-05 10.2 km</title></rect><rect fill="#4dd2ff" height="2.6" width="2.6" x="178.0" y="66.5"><title>2020-12-06 5.1 km</title></rect><rect fill="#4dd2ff" height="2.6" width="2.6" x="181.5" y="45.5"><title>2020-12-07 2.2 km</title></rect><rect fill="#4dd2ff" height="2.6" width="2.6" x="181.5" y="49.0"><title>2020-12-08 1.2 km</title></rect><rect fill="#4dd2ff" height="2.6" width="2.6" x="181.5" y="52.5"><title>2020-12-09 2.6 km</title></rect><rect fill="#4dd2ff" height="2.6" width="2.6" x="181.5" y="56.0"><title>2020-12-10 1.3 km</title></rect><rect fill="#444444" height="2.6" width="2.6" x="181.5" y="59.5"><title>2020-12-11</title></rect><rect fill="#4dd2ff" height="2.6" width="2.6" x="181.5" y="63.0"><title>2020-12-12 2.6 km</title></rect><rect fill="#4dd2ff" height="2.6" width="2.6" x="181.5" y="66.5"><title>2020-12-13 5.1 km</title></rect><rect fill="#4dd2ff" height="2.6" width="2.6" x="185.0" y="45.5"><title>2020-12-14 1.0 km</title></rect><rect fill="#4dd2ff" height="2.6" width="2.6" x="185.0" y="49.0"><title>2020-12-15 2.2 km</title></rect><rect fill="#4dd2ff" height="2.6" width="2.6" x="185.0" y="52.5"><title>2020-12-16 3.1 km</title></rect><rect fill="#444444" height="2.6" width="2.6" x="185.0" y="56.0"><title>2020-12-17</title></rect><rect fill="#444444" height="2.6" width="2.6" x="185.0" y="59.5"><title>2020-12-18</title></rect><rect fill="#444444" height="2.6" width="2.6" x="185.0" y="63.0"><title>2020-12-19</title></rect><rect fill="#444444" height="2.6" width="2.6" x="185.0" y="66.5"><title>2020-12-20</title></rect><rect fill="#444444" height="2.6" width="2.6" x="188.5" y="45.5"><title>2020-12-21</title></rect><rect fill="#444444" height="2.6" width="2.6" x="188.5" y="49.0"><title>2020-12-22</title></rect><rect fill="#444444" height="2.6" width="2.6" x="188.5" y="52.5"><title>2020-12-23</title></rect><rect fill="#444444" height="2.6" width="2.6" x="188.5" y="56.0"><title>2020-12-24</title></rect><rect fill="#444444" height="2.6" width="2.6" x="188.5" y="59.5"><title>2020-12-25</title></rect><rect fill="#444444" height="2.6" width="2.6" x="188.5" y="63.0"><title>2020-12-26</title></rect><rect fill="#444444" height="2.6" width="2.6" x="188.5" y="66.5"><title>2020-12-27</title></rect><rect fill="#444444" height="2.6" width="2.6" x="192.0" y="45.5"><title>2020-12-28</title></rect><rect fill="#444444" height="2.6" width="2.6" x="192.0" y="49.0"><title>2020-12-29</title></rect><rect fill="#444444" height="2.6" width="2.6" x="192.0" y="52.5"><title>2020-12-30</title></rect><rect fill="#444444" height="2.6" width="2.6" x="192.0" y="56.0"><title>2020-12-31</title></rect></svg>