<?xml version="1.0" encoding="utf-8" ?>
<svg baseProfile="full" height="200mm" version="1.1" viewBox="0,0,200,200" width="200mm" xmlns="http://www.w3.org/2000/svg" xmlns:ev="http://www.w3.org/2001/xml-events" xmlns:xlink="http://www.w3.org/1999/xlink"><defs /><rect fill="#1a1a1a" height="200" width="200" x="0" y="0" /><text alignment-baseline="middle" fill="#e1ed5e" style="dominant-baseline: central; font-size:9.0px; font-family:Arial;" text-anchor="middle" x="100.0" y="100.0">2021</text><line stroke="#e1ed5e" stroke-width="0.3" x1="100.0" x2="100.0" y1="15.0" y2="10.0" /><path d="M 100.0 14.0 a86.0,86.0 0 0,1 42.46469731375804,11.215312516191453" fill="none" id="id109" stroke="none" /><text fill="#e1ed5e" style="font-size:6.75px; font-family:Arial;" text-anchor="middle"><textPath startOffset="22.20632615414155" xlink:href="#id109">January</textPath></text><path d="M 100.0 79.0 l 0.0 -25.81467612212785 a46.81467612212785,46.81467612212785 0 0,0 0.8058376934102365,0.006936099439221334 l -0.44435721413770807 25.81085139929719" fill="#daff1c" stroke="none" /><path d="M 100.36148047927253 79.00311137660856 l 0.4820305352775213 -27.99913700088163 a49.003285989881235,49.003285989881235 0 0,0 0.8432610640319798,0.02177894542147415 l -0.9639182345043689 27.986691263317795" fill="#bfff1e" stroke="none" /><path d="M 100.72285384407766 79.0124445844662 l 1.803824089018356 -52.372769873629146 a73.40382434117036,73.40382434117036 0 0,0 1.262403052309372,0.054361730967802405 l -2.7050679737170595 52.333960416137145" fill="#3fffbd" stroke="none" /><path d="M 101.08401301168833 79.027996857942 l 0.666847866993814 -12.901261710952497 a33.9184844239641,33.9184844239641 0 0,0 0.5828131631432735,0.03515688159451326 l -0.8888230789766994 12.887871559977679" fill="#ff760a" stroke="none" /><path d="M 101.44485096284872 79.0497635885617 l 1.4578048559037087 -21.138066941319035 a42.188276688149536,42.188276688149536 0 0,0 0.7240508958240538,0.05620028471769036 l -1.8214459410901038 21.10984139441288" fill="#ffe815" stroke="none" /><path d="M 101.80526077348638 79.07773832637324 l 1.3549618093372764 -15.703473951841904 a36.761821457589846,36.761821457589846 0 0,0 0.6299836107133943,0.059824534806827166 l -1.6250705471409148 15.677823872519898" fill="#ff9e0e" stroke="none" /><path d="M 102.16513564639614 79.11191278185805 l 1.6195749227993719 -15.624804986264266 a36.708518510329014,36.708518510329014 0 0,0 0.6279486720828458,0.07055734996077292 l -1.888290298391943 15.594611682832893" fill="#ff9d0e" stroke="none" /><path d="M 102.52436894288641 79.15227682838746 l 1.2928602135970664 -10.677199903214133 a31.7551887619464,31.7551887619464 0 0,0 0.5420841649814738,0.07037808253430225 l -1.4764591070863862 10.653363497515693" fill="#ff5607" stroke="none" /><path d="M 102.88285421437855 79.19881850522331 l 1.1413629010249162 -8.235482993628233 a29.314198061760127,29.314198061760127 0 0,0 0.49922221622588553,0.0735723776310758 l -1.2829540976794576 8.214616131836188" fill="#ff3104" stroke="none" /><path d="M 103.2404852339499 79.25152402106235 l 8.895200874419631 -56.95500776769596 a78.64544655403914,78.64544655403914 0 0,0 1.3357397074281812,0.22040849678510577 l -9.874269787986687 56.79345300797123" fill="#46fff6" stroke="none" /><path d="M 103.59715602781102 79.31037775812273 l 1.371053909317017 -7.885837377557406 a29.00413767794726,29.00413767794726 0 0,0 0.4911434698324393,0.08975332980182434 l -1.5065925002523572 7.861068566404843" fill="#ff2c04" stroke="none" /><path d="M 103.95276090670814 79.375362276772 l 3.920680526885974 -20.457249351537573 a41.829565209693826,41.829565209693826 0 0,0 0.7059906184619429,0.14161507644855575 l -4.272237554815042 20.38673031901181" fill="#ffe415" stroke="none" /><path d="M 104.307194497241 79.44645832069477 l 5.804158467962046 -27.696918042815565 a49.29854279979197,49.29854279979197 0 0,0 0.8290542418273924,0.18119914608033097 l -6.280055433942967 27.592905398639363" fill="#bbff1f" stroke="none" /><path d="M 104.66035177308747 79.52364482259891 l 2.2778296221967556 -10.008181924603106 a31.26412262318165,31.26412262318165 0 0,0 0.5237132279397332,0.12394600055757243 l -2.4497665370990123 9.967490011904665" fill="#ff4f07" stroke="none" /><path d="M 105.01212808612495 79.60689891045804 l 1.9803764867855527 -8.057658782138896 a29.297454795224446,29.297454795224446 0 0,0 0.4886970475675911,0.12457975871864659 l -2.118782423038169 8.022376027251381" fill="#ff3104" stroke="none" /><path d="M 105.36241919743992 79.69619591428918 l 14.447206414261954 -54.70166315252634 a77.57732518269798,77.57732518269798 0 0,0 1.2881608114088265,0.35210301031459174 l -15.386665114894491 54.44487360138546" fill="#44ffeb" stroke="none" /><path d="M 105.71112130821622 79.79150937346287 l 4.689893660177651 -16.594932405797156 a38.24490893268941,38.24490893268941 0 0,0 0.63196940580571,0.18448919929683055 l -4.974853283706787 16.51174487758162" fill="#ffb310" stroke="none" /><path d="M 106.0581310904928 79.89281104454417 l 2.934802229738641 -9.74073061457107 a31.173244174466717,31.173244174466717 0 0,0 0.5124504699564906,0.15922085549655007 l -3.10203807240585 9.688769624192" fill="#ff4d07" stroke="none" /><path d="M 106.40334571778207 80.00007090966166 l 9.045295102669973 -28.25167789273205 a50.66436696187988,50.66436696187988 0 0,0 0.8282832132489097,0.27307195281802754 l -9.5302611381613 28.091792215654788" fill="#abff21" stroke="none" /><path d="M 106.74666289553966 80.11325718540242 l 5.195793912273014 -15.315337204610731 a37.17268771941593,37.17268771941593 0 0,0 0.604176536951086,0.21078533042495284 l -5.458652453287373 15.22363102101357" fill="#ffa40f" stroke="none" /><path d="M 107.08798089147638 80.2323363322302 l 8.673546494899783 -24.18964618317832 a46.697653419457225,46.697653419457225 0 0,0 0.7543175897536463,0.27782153425427586 l -9.088646410426007 24.036761381117717" fill="#dbff1b" stroke="none" /><path d="M 107.4271985657038 80.35727306442388 l 19.340867733749597 -51.150831666924475 a75.68525162155186,75.68525162155186 0 0,0 1.2146287598904393,0.47125708844751085 l -20.2184796586397 50.81033187458642" fill="#42ffd6" stroke="none" /><path d="M 107.76421540070413 80.48803036053334 l 9.727189087366504 -24.445047999677342 a47.309286939176275,47.309286939176275 0 0,0 0.7540562598482725,0.3075984816172331 l -10.146529216803165 24.27398863187653" fill="#d4ff1c" stroke="none" /><path d="M 108.09893153111575 80.62456947434976 l 19.961788195698034 -47.755464886639096 a72.75961180794278,72.75961180794278 0 0,0 1.151390513364331,0.49296532920372366 l -20.780862466852682 47.40478002947258" fill="#3effb6" stroke="none" /><path d="M 108.43124777332544 80.76684994638697 l 2.212583952903856 -5.047290782634858 a26.510959262516685,26.510959262516685 0 0,0 0.41637087720841637,0.18681347568366302 l -2.2991369485790525 5.008456976434664" fill="#ff0601" stroke="none" /><path d="M 108.76106565485865 80.91482961587045 l 8.70053287126713 -18.953305319515056 a41.854904813466725,41.854904813466725 0 0,0 0.6521827056641737,0.30620852512466595 l -9.025493788230902 18.80073181175039" fill="#ffe415" stroke="none" /><path d="M 109.08828744355905 81.06846463323043 l 3.382022812126525 -7.044988935112429 a28.814726316231475,28.814726316231475 0 0,0 0.44529555346894134,0.21850459418985352 l -3.5027896326058983 6.985729180787743" fill="#ff2a04" stroke="none" /><path d="M 109.41281617654863 81.2277094730956 l 10.412808097179942 -20.766607478022355 a44.23098273028823,44.23098273028823 0 0,0 0.6776597531958624,0.3471236460345335 l -10.768728337964559 20.58429130667532" fill="#fbff18" stroke="none" /><path d="M 109.73455568895987 81.39251694778311 l 23.822852860224263 -45.53708921248612 a72.39216683839878,72.39216683839878 0 0,0 1.0991714756653514,0.5871393355815984 l -24.603169382417924 45.120271150402765" fill="#3effb2" stroke="none" /><path d="M 110.05341064243156 81.56283822128135 l 6.603128827712425 -12.109617200796007 a34.79290176377623,34.79290176377623 0 0,0 0.5233447399266673,0.2912407811558628 l -6.810597656711127 11.994161022079965" fill="#ff820c" stroke="none" /><path d="M 110.36928655335952 81.73862282372117 l 7.646314462369883 -13.46594403455202 a36.48540518033461,36.48540518033461 0 0,0 0.543464474177862,0.3148097016483896 l -7.876975669013073 13.332330175513581" fill="#ff9a0e" stroke="none" /><line stroke="#e1ed5e" stroke-width="0.3" x1="143.23703022742887" x2="145.7803849466894" y1="26.81831364943548" y2="22.513508569990506" /><path d="M 143.74570117128098 25.957352633546492 a86.0,86.0 0 0,1 28.547481713284135,27.462654790039103" fill="none" id="id110" stroke="none" /><text fill="#e1ed5e" style="font-size:6.75px; font-family:Arial;" text-anchor="middle"><textPath startOffset="19.985693538727396" xlink:href="#id110">February</textPath></text><path d="M 110.68208982089419 81.91981866633111 l 10.458147096885847 -17.70114266929565 a41.55974932966988,41.55974932966988 0 0,0 0.6127845195691384,0.36919581654761835 l -10.761293682672624 17.518500243289413" fill="#ffe015" stroke="none" /><path d="M 110.99172775467656 82.1063720568725 l 4.22698667649583 -6.88118634284707 a29.07577499985347,29.07577499985347 0 0,0 0.424202885232784,0.26563580781632185 l -4.344808714100877 6.807406193707804" fill="#ff2e04" stroke="none" /><path d="M 111.2981086023043 82.29822771554956 l 13.866510648581901 -21.725920906003783 a46.77393560908321,46.77393560908321 0 0,0 0.6749545153997644,0.43900919189729826 l -14.238432189765946 21.484012789946956" fill="#daff1b" stroke="none" /><path d="M 111.60114157652 82.49532879139004 l 8.577293908872836 -12.942063394718971 a36.526331688847556,36.526331688847556 0 0,0 0.5211008335489665,0.35184960895626 l -8.798799436828345 12.79250187346404" fill="#ff9b0e" stroke="none" /><path d="M 111.90073688211348 82.69761687909136 l 2.90449191567624 -4.22281682171662 a26.125256598259398,26.125256598259398 0 0,0 0.3683273785300649,0.25803686691240485 l -2.976750433789956 4.17219511204028" fill="#ff0000" stroke="none" /><path d="M 112.19680574252982 82.90503203632743 l 4.861688153105568 -6.814112234066598 a29.370671253639287,29.370671253639287 0 0,0 0.4090281128552357,0.2971763191391032 l -4.978261582314593 6.72941668011082" fill="#ff3204" stroke="none" /><path d="M 112.48926042617603 83.11751280151076 l 20.01458184050525 -27.054918399912207 a54.65341135570346,54.65341135570346 0 0,0 0.7514944161516497,0.5660100141322971 l -20.477322410415283 26.706391796274065" fill="#7cff26" stroke="none" /><path d="M 112.77801427241765 83.33499621200491 l 38.33404281725294 -49.995011363985284 a84.0,84.0 0 0,0 1.1398697793622787,0.8896864431071037 l -39.188945151774654 49.32774653165496" fill="#4dd2ff" stroke="none" /><path d="M 113.06298171725822 83.55741782278167 l 10.671409169705896 -13.432271897601545 a38.15531701830017,38.15531701830017 0 0,0 0.5107299971685052,0.4129748054863722 l -10.901042565438892 13.246590994851044" fill="#ffb210" stroke="none" /><path d="M 113.34407831869373 83.78471172551755 l 3.820659499230284 -4.642740674855654 a27.0126932387257,27.0126932387257 0 0,0 0.3564935398832494,0.2985530874468588 l -3.900010576072651 4.576286430014976" fill="#ff0e01" stroke="none" /><line stroke="#e1ed5e" stroke-width="0.3" x1="172.23445277983987" x2="176.4835382374775" y1="55.19839476539836" y2="52.563006222186495" /><path d="M 173.08426987136738 54.67131705675599 a86.0,86.0 0 0,1 12.851231095245387,41.99856678651699" fill="none" id="id111" stroke="none" /><text fill="#e1ed5e" style="font-size:6.75px; font-family:Arial;" text-anchor="middle"><textPath startOffset="22.20632615414155" xlink:href="#id111">March</textPath></text><line stroke="#e1ed5e" stroke-width="0.3" x1="184.98032266829074" x2="189.97916517819016" y1="98.17113171792111" y2="98.06355123074" /><path d="M 185.9800911702706 98.14961562048488 a86.0,86.0 0 0,1 -9.607161424134198,41.387399972396054" fill="none" id="id112" stroke="none" /><text fill="#e1ed5e" style="font-size:6.75px; font-family:Arial;" text-anchor="middle"><textPath startOffset="21.466115282336823" xlink:href="#id112">April</textPath></text><line stroke="#e1ed5e" stroke-width="0.3" x1="174.80103733775053" x2="179.2010983576182" y1="140.37084112569926" y2="142.7455964860345" /><path d="M 175.68104954172406 140.8457921977663 a86.0,86.0 0 0,1 -30.038265399797805,32.042727171017184" fill="none" id="id113" stroke="none" /><text fill="#e1ed5e" style="font-size:6.75px; font-family:Arial;" text-anchor="middle"><textPath startOffset="22.206326154141568" xlink:href="#id113">May</textPath></text><line stroke="#e1ed5e" stroke-width="0.3" x1="143.8653032363475" x2="146.44561519142675" y1="172.8068346515853" y2="177.08958963109032" /><path d="M 144.38136562736335 173.6633856474863 a86.0,86.0 0 0,1 -40.68145358897372,12.25698825130547" fill="none" id="id114" stroke="none" /><text fill="#e1ed5e" style="font-size:6.75px; font-family:Arial;" text-anchor="middle"><textPath startOffset="21.466115282336833" xlink:href="#id114">June</textPath></text><line stroke="#e1ed5e" stroke-width="0.3" x1="102.19456741930631" x2="102.32365962044197" y1="184.97166512339345" y2="189.96999836594603" /><path d="M 102.22038585953345 185.97133177190398 a86.0,86.0 0 0,1 -42.740103519485714,-10.115201625700543" fill="none" id="id115" stroke="none" /><text fill="#e1ed5e" style="font-size:6.75px; font-family:Arial;" text-anchor="middle"><textPath startOffset="22.20632615414155" xlink:href="#id115">July</textPath></text><line stroke="#e1ed5e" stroke-width="0.3" x1="58.666819895761336" x2="56.23545636021788" y1="174.27360380694188" y2="178.64263932499728" /><path d="M 58.180547188652646 175.14741091055294 a86.0,86.0 0 0,1 -31.652253787137756,-30.449443065178592" fill="none" id="id116" stroke="none" /><text fill="#e1ed5e" style="font-size:6.75px; font-family:Arial;" text-anchor="middle"><textPath startOffset="22.20632615414155" xlink:href="#id116">August</textPath></text><line stroke="#e1ed5e" stroke-width="0.3" x1="26.63291911575756" x2="22.317208475507996" y1="142.92168965132927" y2="145.44649492493687" /><path d="M 25.769776987707644 143.4266507060508 a86.0,86.0 0 0,1 -11.730757126820373,-40.83630448921669" fill="none" id="id117" stroke="none" /><text fill="#e1ed5e" style="font-size:6.75px; font-family:Arial;" text-anchor="middle"><textPath startOffset="21.46611528233685" xlink:href="#id117">September</textPath></text><line stroke="#e1ed5e" stroke-width="0.3" x1="15.007084014347285" x2="10.007500721073583" y1="101.09737516637583" y2="101.16192664675087" /><path d="M 14.007167355692545 101.11028546245083 a86.0,86.0 0 0,1 10.666146001902534,-42.60595125391555" fill="none" id="id118" stroke="none" /><text fill="#e1ed5e" style="font-size:6.75px; font-family:Arial;" text-anchor="middle"><textPath startOffset="22.20632615414155" xlink:href="#id118">October</textPath></text><line stroke="#e1ed5e" stroke-width="0.3" x1="26.266209847984243" x2="21.928928074336255" y1="57.711370442889674" y2="55.22380399835377" /><path d="M 25.398753493254645 57.213857153982495 a86.0,86.0 0 0,1 29.58750427330803,-30.492523968695096" fill="none" id="id119" stroke="none" /><text fill="#e1ed5e" style="font-size:6.75px; font-family:Arial;" text-anchor="middle"><textPath startOffset="21.46611528233685" xlink:href="#id119">November</textPath></text><line stroke="#e1ed5e" stroke-width="0.3" x1="56.762969772571076" x2="54.21961505331055" y1="26.818313649435495" y2="22.513508569990535" /><path d="M 56.25429882871897 25.957352633546506 a86.0,86.0 0 0,1 42.265352541879196,-11.944610805530505" fill="none" id="id120" stroke="none" /><text fill="#e1ed5e" style="font-size:6.75px; font-family:Arial;" text-anchor="middle"><textPath startOffset="22.20632615414155" xlink:href="#id120">December</textPath></text></svg>