<?xml version="1.0" encoding="utf-8" ?>
<svg baseProfile="full" height="200mm" version="1.1" viewBox="0,0,200,200" width="200mm" xmlns="http://www.w3.org/2000/svg" xmlns:ev="http://www.w3.org/2001/xml-events" xmlns:xlink="http://www.w3.org/1999/xlink"><defs /><rect fill="#1a1a1a" height="200" width="200" x="0" y="0" /><text alignment-baseline="middle" fill="#e1ed5e" style="dominant-baseline: central; font-size:9.0px; font-family:Arial;" text-anchor="middle" x="100.0" y="100.0">2022</text><line stroke="#e1ed5e" stroke-width="0.3" x1="100.0" x2="100.0" y1="15.0" y2="10.0" /><path d="M 100.0 14.0 a86.0,86.0 0 0,1 42.46469731375804,11.215312516191453" fill="none" id="id121" stroke="none" /><text fill="#e1ed5e" style="font-size:6.75px; font-family:Arial;" text-anchor="middle"><textPath startOffset="22.20632615414155" xlink:href="#id121">January</textPath></text><path d="M 100.0 79.0 l 0.0 -19.344813641571747 a40.34481364157175,40.34481364157175 0 0,0 0.6944696462531522,0.005977519497193004 l -0.3329891669806238 19.341947498683112" fill="#ffa10e" stroke="none"><animate attributeName="opacity" dur="10s" keyTimes="0;0.04;0.08;0.12;0.16;0.2;0.24;0.28;0.32;0.36;0.4;0.44;0.48;0.52;0.56;0.6;0.64;0.68;0.72;0.76;0.8;0.84;0.88;0.92;0.96;1" repeatCount="indefinite" values="0;1;1;1;1;1;1;1;1;1;1;1;1;1;1;1;1;1;1;1;1;1;1;1;1;1" /></path><path d="M 100.36148047927253 79.00311137660856 l 0.4549560685986561 -26.426494509818465 a47.43041046033565,47.43041046033565 0 0,0 0.8161946201019064,0.021079899028548194 l -0.9097773238954303 26.41474781864756" fill="#f6ff19" stroke="none"><animate attributeName="opacity" dur="10s" keyTimes="0;0.04;0.08;0.12;0.16;0.2;0.24;0.28;0.32;0.36;0.4;0.44;0.48;0.52;0.56;0.6;0.64;0.68;0.72;0.76;0.8;0.84;0.88;0.92;0.96;1" repeatCount="indefinite" values="0;0;1;1;1;1;1;1;1;1;1;1;1;1;1;1;1;1;1;1;1;1;1;1;1;1" /></path><path d="M 100.72285384407766 79.0124445844662 l 0.656003487610085 -19.046602106083466 a40.057895801037944,40.057895801037944 0 0,0 0.6889179192256074,0.029666254779192967 l -0.9837622392250239 19.032488124780077" fill="#ff9d0e" stroke="none"><animate attributeName="opacity" dur="10s" keyTimes="0;0.04;0.08;0.12;0.16;0.2;0.24;0.28;0.32;0.36;0.4;0.44;0.48;0.52;0.56;0.6;0.64;0.68;0.72;0.76;0.8;0.84;0.88;0.92;0.96;1" repeatCount="indefinite" values="0;0;0;1;1;1;1;1;1;1;1;1;1;1;1;1;1;1;1;1;1;1;1;1;1;1" /></path><path d="M 101.08401301168833 79.027996857942 l 0.9970698638882944 -19.289945870436437 a40.31569724337804,40.31569724337804 0 0,0 0.6927349329953828,0.0417876629353251 l -1.328966845723289 19.26992493812081" fill="#ffa10e" stroke="none"><animate attributeName="opacity" dur="10s" keyTimes="0;0.04;0.08;0.12;0.16;0.2;0.24;0.28;0.32;0.36;0.4;0.44;0.48;0.52;0.56;0.6;0.64;0.68;0.72;0.76;0.8;0.84;0.88;0.92;0.96;1" repeatCount="indefinite" values="0;0;0;0;1;1;1;1;1;1;1;1;1;1;1;1;1;1;1;1;1;1;1;1;1;1" /></path><path d="M 101.44485096284872 79.0497635885617 l 1.3448678716385791 -19.50048868529991 a40.546808654040575,40.546808654040575 0 0,0 0.6958794109030547,0.05401363529482299 l -1.680337471903975 19.474449787816624" fill="#ffa40f" stroke="none"><animate attributeName="opacity" dur="10s" keyTimes="0;0.04;0.08;0.12;0.16;0.2;0.24;0.28;0.32;0.36;0.4;0.44;0.48;0.52;0.56;0.6;0.64;0.68;0.72;0.76;0.8;0.84;0.88;0.92;0.96;1" repeatCount="indefinite" values="0;0;0;0;0;1;1;1;1;1;1;1;1;1;1;1;1;1;1;1;1;1;1;1;1;1" /></path><path d="M 101.80526077348638 79.07773832637324 l 1.6631815934203482 -19.275619910079797 a40.347240008087894,40.347240008087894 0 0,0 0.6914265652461926,0.0656592836948486 l -1.994733285756785 19.244135081869768" fill="#ffa10e" stroke="none"><animate attributeName="opacity" dur="10s" keyTimes="0;0.04;0.08;0.12;0.16;0.2;0.24;0.28;0.32;0.36;0.4;0.44;0.48;0.52;0.56;0.6;0.64;0.68;0.72;0.76;0.8;0.84;0.88;0.92;0.96;1" repeatCount="indefinite" values="0;0;0;0;0;0;1;1;1;1;1;1;1;1;1;1;1;1;1;1;1;1;1;1;1;1" /></path><path d="M 102.16513564639614 79.11191278185805 l 3.209084632661926 -30.95955664903281 a52.12542966907057,52.12542966907057 0 0,0 0.8916757109996282,0.10019015564415662 l -3.7415270471712794 30.89973053991805" fill="#b7ff1f" stroke="none"><animate attributeName="opacity" dur="10s" keyTimes="0;0.04;0.08;0.12;0.16;0.2;0.24;0.28;0.32;0.36;0.4;0.44;0.48;0.52;0.56;0.6;0.64;0.68;0.72;0.76;0.8;0.84;0.88;0.92;0.96;1" repeatCount="indefinite" values="0;0;0;0;0;0;0;1;1;1;1;1;1;1;1;1;1;1;1;1;1;1;1;1;1;1" /></path><path d="M 102.52436894288641 79.15227682838746 l 2.3404231687140737 -19.3285908001978 a40.46977151715306,40.46977151715306 0 0,0 0.6908484299786691,0.08969195369393157 l -2.6727863272005887 19.285440523339734" fill="#ffa30f" stroke="none"><animate attributeName="opacity" dur="10s" keyTimes="0;0.04;0.08;0.12;0.16;0.2;0.24;0.28;0.32;0.36;0.4;0.44;0.48;0.52;0.56;0.6;0.64;0.68;0.72;0.76;0.8;0.84;0.88;0.92;0.96;1" repeatCount="indefinite" values="0;0;0;0;0;0;0;0;1;1;1;1;1;1;1;1;1;1;1;1;1;1;1;1;1;1" /></path><path d="M 102.88285421437855 79.19881850522331 l 3.563465286472095 -25.712118151705063 a46.95787558131698,46.95787558131698 0 0,0 0.7996949010024152,0.11785424072468341 l -4.005529167903166 25.64696942681941" fill="#fdff18" stroke="none"><animate attributeName="opacity" dur="10s" keyTimes="0;0.04;0.08;0.12;0.16;0.2;0.24;0.28;0.32;0.36;0.4;0.44;0.48;0.52;0.56;0.6;0.64;0.68;0.72;0.76;0.8;0.84;0.88;0.92;0.96;1" repeatCount="indefinite" values="0;0;0;0;0;0;0;0;0;1;1;1;1;1;1;1;1;1;1;1;1;1;1;1;1;1" /></path><path d="M 103.2404852339499 79.25152402106235 l 2.931160374194088 -18.767902404618734 a39.995416863247286,39.995416863247286 0 0,0 0.6792950992105251,0.11208951179474559 l -3.253784679543488 18.714666629884366" fill="#ff9c0e" stroke="none"><animate attributeName="opacity" dur="10s" keyTimes="0;0.04;0.08;0.12;0.16;0.2;0.24;0.28;0.32;0.36;0.4;0.44;0.48;0.52;0.56;0.6;0.64;0.68;0.72;0.76;0.8;0.84;0.88;0.92;0.96;1" repeatCount="indefinite" values="0;0;0;0;0;0;0;0;0;0;1;1;1;1;1;1;1;1;1;1;1;1;1;1;1;1" /></path><path d="M 103.59715602781102 79.31037775812273 l 1.6295419169497218 -9.372572784814837 a30.51317651816405,30.51317651816405 0 0,0 0.5166968781194065,0.09442305183299234 l -1.7906339161720293 9.343134251631106" fill="#ff0400" stroke="none"><animate attributeName="opacity" dur="10s" keyTimes="0;0.04;0.08;0.12;0.16;0.2;0.24;0.28;0.32;0.36;0.4;0.44;0.48;0.52;0.56;0.6;0.64;0.68;0.72;0.76;0.8;0.84;0.88;0.92;0.96;1" repeatCount="indefinite" values="0;0;0;0;0;0;0;0;0;0;0;1;1;1;1;1;1;1;1;1;1;1;1;1;1;1" /></path><path d="M 103.95276090670814 79.375362276772 l 4.513977674925789 -23.55294348263952 a44.98160005391925,44.98160005391925 0 0,0 0.7591900007154452,0.15228637205480436 l -4.918734085108359 23.471753154507507" fill="#ffe515" stroke="none"><animate attributeName="opacity" dur="10s" keyTimes="0;0.04;0.08;0.12;0.16;0.2;0.24;0.28;0.32;0.36;0.4;0.44;0.48;0.52;0.56;0.6;0.64;0.68;0.72;0.76;0.8;0.84;0.88;0.92;0.96;1" repeatCount="indefinite" values="0;0;0;0;0;0;0;0;0;0;0;0;1;1;1;1;1;1;1;1;1;1;1;1;1;1" /></path><path d="M 104.307194497241 79.44645832069477 l 7.5544589262117015 -36.049193159015964 a57.83224371503673,57.83224371503673 0 0,0 0.972565602213887,0.21256517093479818 l -8.173867252579116 35.91381448998529" fill="#6fff27" stroke="none"><animate attributeName="opacity" dur="10s" keyTimes="0;0.04;0.08;0.12;0.16;0.2;0.24;0.28;0.32;0.36;0.4;0.44;0.48;0.52;0.56;0.6;0.64;0.68;0.72;0.76;0.8;0.84;0.88;0.92;0.96;1" repeatCount="indefinite" values="0;0;0;0;0;0;0;0;0;0;0;0;0;1;1;1;1;1;1;1;1;1;1;1;1;1" /></path><path d="M 104.66035177308747 79.52364482259891 l 2.0609668583166387 -9.05534420029109 a30.286917840533803,30.286917840533803 0 0,0 0.5073438233910452,0.12007189137514734 l -2.2165343686702075 9.018526396775075" fill="#ff0000" stroke="none"><animate attributeName="opacity" dur="10s" keyTimes="0;0.04;0.08;0.12;0.16;0.2;0.24;0.28;0.32;0.36;0.4;0.44;0.48;0.52;0.56;0.6;0.64;0.68;0.72;0.76;0.8;0.84;0.88;0.92;0.96;1" repeatCount="indefinite" values="0;0;0;0;0;0;0;0;0;0;0;0;0;0;1;1;1;1;1;1;1;1;1;1;1;1" /></path><path d="M 105.01212808612495 79.60689891045804 l 5.920796181654918 -24.09024529866188 a45.8071712610366,45.8071712610366 0 0,0 0.7640878536773282,0.19478300702810056 l -6.334592924017271 23.98475929546491" fill="#fff116" stroke="none"><animate attributeName="opacity" dur="10s" keyTimes="0;0.04;0.08;0.12;0.16;0.2;0.24;0.28;0.32;0.36;0.4;0.44;0.48;0.52;0.56;0.6;0.64;0.68;0.72;0.76;0.8;0.84;0.88;0.92;0.96;1" repeatCount="indefinite" values="0;0;0;0;0;0;0;0;0;0;0;0;0;0;0;1;1;1;1;1;1;1;1;1;1;1" /></path><path d="M 105.36241919743992 79.69619591428918 l 5.660334243504576 -21.431804062357546 a43.166677899844984,43.166677899844984 0 0,0 0.7167767475655304,0.19592216150816227 l -6.028408880293817 21.33119536002309" fill="#ffcb12" stroke="none"><animate attributeName="opacity" dur="10s" keyTimes="0;0.04;0.08;0.12;0.16;0.2;0.24;0.28;0.32;0.36;0.4;0.44;0.48;0.52;0.56;0.6;0.64;0.68;0.72;0.76;0.8;0.84;0.88;0.92;0.96;1" repeatCount="indefinite" values="0;0;0;0;0;0;0;0;0;0;0;0;0;0;0;0;1;1;1;1;1;1;1;1;1;1" /></path><path d="M 105.71112130821622 79.79150937346287 l 5.078360807020903 -17.9695021745054 a39.67331670822943,39.67331670822943 0 0,0 0.6555728091958197,0.19137967999434108 l -5.38692383394015 17.879424165592358" fill="#ff970d" stroke="none"><animate attributeName="opacity" dur="10s" keyTimes="0;0.04;0.08;0.12;0.16;0.2;0.24;0.28;0.32;0.36;0.4;0.44;0.48;0.52;0.56;0.6;0.64;0.68;0.72;0.76;0.8;0.84;0.88;0.92;0.96;1" repeatCount="indefinite" values="0;0;0;0;0;0;0;0;0;0;0;0;0;0;0;0;0;1;1;1;1;1;1;1;1;1" /></path><path d="M 106.0581310904928 79.89281104454417 l 12.641701910456874 -41.9583342181238 a64.821392464784,64.821392464784 0 0,0 1.0655853733382221,0.3310825624999966 l -13.362072656505815 41.734511520741286" fill="#32ff44" stroke="none"><animate attributeName="opacity" dur="10s" keyTimes="0;0.04;0.08;0.12;0.16;0.2;0.24;0.28;0.32;0.36;0.4;0.44;0.48;0.52;0.56;0.6;0.64;0.68;0.72;0.76;0.8;0.84;0.88;0.92;0.96;1" repeatCount="indefinite" values="0;0;0;0;0;0;0;0;0;0;0;0;0;0;0;0;0;0;1;1;1;1;1;1;1;1" /></path><path d="M 106.74666289553966 80.11325718540242 l 15.09068798984225 -44.4819365656663 a67.97202938599449,67.97202938599449 0 0,0 1.1047655642752339,0.38543101273513647 l -15.854135558180758 44.215584699758956" fill="#36ff6f" stroke="none"><animate attributeName="opacity" dur="10s" keyTimes="0;0.04;0.08;0.12;0.16;0.2;0.24;0.28;0.32;0.36;0.4;0.44;0.48;0.52;0.56;0.6;0.64;0.68;0.72;0.76;0.8;0.84;0.88;0.92;0.96;1" repeatCount="indefinite" values="0;0;0;0;0;0;0;0;0;0;0;0;0;0;0;0;0;0;0;1;1;1;1;1;1;1" /></path><path d="M 107.08798089147638 80.2323363322302 l 5.110888810616073 -14.25375330414901 a36.14234683561367,36.14234683561367 0 0,0 0.5838153730808453,0.2150241289262854 l -5.355486509469494 14.1636659074164" fill="#ff6008" stroke="none"><animate attributeName="opacity" dur="10s" keyTimes="0;0.04;0.08;0.12;0.16;0.2;0.24;0.28;0.32;0.36;0.4;0.44;0.48;0.52;0.56;0.6;0.64;0.68;0.72;0.76;0.8;0.84;0.88;0.92;0.96;1" repeatCount="indefinite" values="0;0;0;0;0;0;0;0;0;0;0;0;0;0;0;0;0;0;0;0;1;1;1;1;1;1" /></path><path d="M 107.4271985657038 80.35727306442388 l 9.166950409130392 -24.24385212346253 a46.9190537170587,46.9190537170587 0 0,0 0.752976713568273,0.29214326666937074 l -9.582910287698331 24.082466152902615" fill="#fdff18" stroke="none"><animate attributeName="opacity" dur="10s" keyTimes="0;0.04;0.08;0.12;0.16;0.2;0.24;0.28;0.32;0.36;0.4;0.44;0.48;0.52;0.56;0.6;0.64;0.68;0.72;0.76;0.8;0.84;0.88;0.92;0.96;1" repeatCount="indefinite" values="0;0;0;0;0;0;0;0;0;0;0;0;0;0;0;0;0;0;0;0;0;1;1;1;1;1" /></path><path d="M 107.76421540070413 80.48803036053334 l 18.304841086186197 -46.001235810193506 a70.50940217025004,70.50940217025004 0 0,0 1.1238397262886786,0.4584424422881691 l -19.093964682063262 45.67933248172176" fill="#3aff90" stroke="none"><animate attributeName="opacity" dur="10s" keyTimes="0;0.04;0.08;0.12;0.16;0.2;0.24;0.28;0.32;0.36;0.4;0.44;0.48;0.52;0.56;0.6;0.64;0.68;0.72;0.76;0.8;0.84;0.88;0.92;0.96;1" repeatCount="indefinite" values="0;0;0;0;0;0;0;0;0;0;0;0;0;0;0;0;0;0;0;0;0;0;1;1;1;1" /></path><path d="M 108.09893153111575 80.62456947434976 l 4.810512206193007 -11.50840017424429 a33.473343667857385,33.473343667857385 0 0,0 0.5297017038997959,0.22679062560602264 l -5.0078976678831175 11.423890020675477" fill="#ff3505" stroke="none"><animate attributeName="opacity" dur="10s" keyTimes="0;0.04;0.08;0.12;0.16;0.2;0.24;0.28;0.32;0.36;0.4;0.44;0.48;0.52;0.56;0.6;0.64;0.68;0.72;0.76;0.8;0.84;0.88;0.92;0.96;1" repeatCount="indefinite" values="0;0;0;0;0;0;0;0;0;0;0;0;0;0;0;0;0;0;0;0;0;0;0;1;1;1" /></path><path d="M 108.43124777332544 80.76684994638697 l 25.2937433199763 -57.69945016083909 a84.0,84.0 0 0,0 1.3192715261328791,0.591918677933875 l -26.283196964575957 57.255511152388685" fill="#4dd2ff" stroke="none"><animate attributeName="opacity" dur="10s" keyTimes="0;0.04;0.08;0.12;0.16;0.2;0.24;0.28;0.32;0.36;0.4;0.44;0.48;0.52;0.56;0.6;0.64;0.68;0.72;0.76;0.8;0.84;0.88;0.92;0.96;1" repeatCount="indefinite" values="0;0;0;0;0;0;0;0;0;0;0;0;0;0;0;0;0;0;0;0;0;0;0;0;1;1" /></path><path d="M 108.76106565485865 80.91482961587045 l 10.550327669755841 -22.982912024408908 a46.288805014490805,46.288805014490805 0 0,0 0.7212716939831343,0.3386467315226102 l -10.944377575038574 22.797900310246295" fill="#fff817" stroke="none"><animate attributeName="opacity" dur="10s" keyTimes="0;0.04;0.08;0.12;0.16;0.2;0.24;0.28;0.32;0.36;0.4;0.44;0.48;0.52;0.56;0.6;0.64;0.68;0.72;0.76;0.8;0.84;0.88;0.92;0.96;1" repeatCount="indefinite" values="0;0;0;0;0;0;0;0;0;0;0;0;0;0;0;0;0;0;0;0;0;0;0;0;0;1" /></path><line stroke="#e1ed5e" stroke-width="0.3" x1="143.23703022742887" x2="145.7803849466894" y1="26.81831364943548" y2="22.513508569990506" /><path d="M 143.74570117128098 25.957352633546492 a86.0,86.0 0 0,1 28.547481713284135,27.462654790039103" fill="none" id="id122" stroke="none" /><text fill="#e1ed5e" style="font-size:6.75px; font-family:Arial;" text-anchor="middle"><textPath startOffset="19.985693538727396" xlink:href="#id122">February</textPath></text><line stroke="#e1ed5e" stroke-width="0.3" x1="172.23445277983987" x2="176.4835382374775" y1="55.19839476539836" y2="52.563006222186495" /><path d="M 173.08426987136738 54.67131705675599 a86.0,86.0 0 0,1 12.851231095245387,41.99856678651699" fill="none" id="id123" stroke="none" /><text fill="#e1ed5e" style="font-size:6.75px; font-family:Arial;" text-anchor="middle"><textPath startOffset="22.20632615414155" xlink:href="#id123">March</textPath></text><line stroke="#e1ed5e" stroke-width="0.3" x1="184.98032266829074" x2="189.97916517819016" y1="98.17113171792111" y2="98.06355123074" /><path d="M 185.9800911702706 98.14961562048488 a86.0,86.0 0 0,1 -9.607161424134198,41.387399972396054" fill="none" id="id124" stroke="none" /><text fill="#e1ed5e" style="font-size:6.75px; font-family:Arial;" text-anchor="middle"><textPath startOffset="21.466115282336823" xlink:href="#id124">April</textPath></text><line stroke="#e1ed5e" stroke-width="0.3" x1="174.80103733775053" x2="179.2010983576182" y1="140.37084112569926" y2="142.7455964860345" /><path d="M 175.68104954172406 140.8457921977663 a86.0,86.0 0 0,1 -30.038265399797805,32.042727171017184" fill="none" id="id125" stroke="none" /><text fill="#e1ed5e" style="font-size:6.75px; font-family:Arial;" text-anchor="middle"><textPath startOffset="22.206326154141568" xlink:href="#id125">May</textPath></text><line stroke="#e1ed5e" stroke-width="0.3" x1="143.8653032363475" x2="146.44561519142675" y1="172.8068346515853" y2="177.08958963109032" /><path d="M 144.38136562736335 173.6633856474863 a86.0,86.0 0 0,1 -40.68145358897372,12.25698825130547" fill="none" id="id126" stroke="none" /><text fill="#e1ed5e" style="font-size:6.75px; font-family:Arial;" text-anchor="middle"><textPath startOffset="21.466115282336833" xlink:href="#id126">June</textPath></text><line stroke="#e1ed5e" stroke-width="0.3" x1="102.19456741930631" x2="102.32365962044197" y1="184.97166512339345" y2="189.96999836594603" /><path d="M 102.22038585953345 185.97133177190398 a86.0,86.0 0 0,1 -42.740103519485714,-10.115201625700543" fill="none" id="id127" stroke="none" /><text fill="#e1ed5e" style="font-size:6.75px; font-family:Arial;" text-anchor="middle"><textPath startOffset="22.20632615414155" xlink:href="#id127">July</textPath></text><line stroke="#e1ed5e" stroke-width="0.3" x1="58.666819895761336" x2="56.23545636021788" y1="174.27360380694188" y2="178.64263932499728" /><path d="M 58.180547188652646 175.14741091055294 a86.0,86.0 0 0,1 -31.652253787137756,-30.449443065178592" fill="none" id="id128" stroke="none" /><text fill="#e1ed5e" style="font-size:6.75px; font-family:Arial;" text-anchor="middle"><textPath startOffset="22.20632615414155" xlink:href="#id128">August</textPath></text><line stroke="#e1ed5e" stroke-width="0.3" x1="26.63291911575756" x2="22.317208475507996" y1="142.92168965132927" y2="145.44649492493687" /><path d="M 25.769776987707644 143.4266507060508 a86.0,86.0 0 0,1 -11.730757126820373,-40.83630448921669" fill="none" id="id129" stroke="none" /><text fill="#e1ed5e" style="font-size:6.75px; font-family:Arial;" text-anchor="middle"><textPath startOffset="21.46611528233685" xlink:href="#id129">September</textPath></text><line stroke="#e1ed5e" stroke-width="0.3" x1="15.007084014347285" x2="10.007500721073583" y1="101.09737516637583" y2="101.16192664675087" /><path d="M 14.007167355692545 101.11028546245083 a86.0,86.0 0 0,1 10.666146001902534,-42.60595125391555" fill="none" id="id130" stroke="none" /><text fill="#e1ed5e" style="font-size:6.75px; font-family:Arial;" text-anchor="middle"><textPath startOffset="22.20632615414155" xlink:href="#id130">October</textPath></text><line stroke="#e1ed5e" stroke-width="0.3" x1="26.266209847984243" x2="21.928928074336255" y1="57.711370442889674" y2="55.22380399835377" /><path d="M 25.398753493254645 57.213857153982495 a86.0,86.0 0 0,1 29.58750427330803,-30.492523968695096" fill="none" id="id131" stroke="none" /><text fill="#e1ed5e" style="font-size:6.75px; font-family:Arial;" text-anchor="middle"><textPath startOffset="21.46611528233685" xlink:href="#id131">November</textPath></text><line stroke="#e1ed5e" stroke-width="0.3" x1="56.762969772571076" x2="54.21961505331055" y1="26.818313649435495" y2="22.513508569990535" /><path d="M 56.25429882871897 25.957352633546506 a86.0,86.0 0 0,1 42.265352541879196,-11.944610805530505" fill="none" id="id132" stroke="none" /><text fill="#e1ed5e" style="font-size:6.75px; font-family:Arial;" text-anchor="middle"><textPath startOffset="22.20632615414155" xlink:href="#id132">December</textPath></text></svg>