<?xml version="1.0" encoding="utf-8" ?>
<svg baseProfile="full" height="200mm" version="1.1" viewBox="0,0,200,200" width="200mm" xmlns="http://www.w3.org/2000/svg" xmlns:ev="http://www.w3.org/2001/xml-events" xmlns:xlink="http://www.w3.org/1999/xlink"><defs /><rect fill="#1a1a1a" height="200" width="200" x="0" y="0" /><text alignment-baseline="middle" fill="#e1ed5e" style="dominant-baseline: central; font-size:9.0px; font-family:Arial;" text-anchor="middle" x="100.0" y="100.0">2021</text><line stroke="#e1ed5e" stroke-width="0.3" x1="100.0" x2="100.0" y1="15.0" y2="10.0" /><path d="M 100.0 14.0 a86.0,86.0 0 0,1 42.46469731375804,11.215312516191453" fill="none" id="id109" stroke="none" /><text fill="#e1ed5e" style="font-size:6.75px; font-family:Arial;" text-anchor="middle"><textPath startOffset="22.20632615414155" xlink:href="#id109">January</textPath></text><path d="M 100.0 79.0 l 0.0 -28.212542237303566 a49.212542237303566,49.212542237303566 0 0,0 0.8471130168647638,0.007291369179279127 l -0.4856325375922354 28.208362244732847" fill="#c3ff1e" stroke="none" /><path d="M 100.36148047927253 79.00311137660856 l 0.5268052472109093 -30.599912681775304 a51.6044470608564,51.6044470608564 0 0,0 0.8880225082519044,0.022935001466550992 l -1.0534543906576814 30.586310888166395" fill="#a6ff21" stroke="none" /><path d="M 100.72285384407766 79.0124445844662 l 1.971377175500322 -57.237556464161806 a78.27149551003706,78.27149551003706 0 0,0 1.3461175317165313,0.05796665254915989 l -2.956335539606185 57.195142085088456" fill="#45fff1" stroke="none" /><path d="M 101.08401301168833 79.027996857942 l 0.7287898373937847 -14.099630350301396 a35.11845284166182,35.11845284166182 0 0,0 0.6034319319670457,0.03640066203737845 l -0.9713838182004423 14.084996418883714" fill="#ff7c0b" stroke="none" /><path d="M 101.44485096284872 79.0497635885617 l 1.5932170086641204 -23.101533545320223 a44.15640716048697,44.15640716048697 0 0,0 0.7578286830071653,0.05882209109590623 l -1.9906358810336269 23.070686192035854" fill="#fffa17" stroke="none" /><path d="M 101.80526077348638 79.07773832637324 l 1.4808211071489592 -17.16213366546849 a38.22590093733227,38.22590093733227 0 0,0 0.6550733924611126,0.06220711190238424 l -1.7760196267003159 17.134101009050926" fill="#ffa90f" stroke="none" /><path d="M 102.16513564639614 79.11191278185805 l 1.770013526405949 -17.07615731993451 a38.167646801434756,38.167646801434756 0 0,0 0.6529090276074238,0.07336193673384696 l -2.0636892575230976 17.043159429730064" fill="#ffa80f" stroke="none" /><path d="M 102.52436894288641 79.15227682838746 l 1.412951036475371 -11.668980537290293 a32.75421360241239,32.75421360241239 0 0,0 0.5591382455129907,0.07259219164268169 l -1.6136040104962077 11.642930022483476" fill="#ff5908" stroke="none" /><path d="M 102.88285421437855 79.19881850522331 l 1.2473814856679497 -9.000458138739575 a30.08648486918845,30.08648486918845 0 0,0 0.5123742980516993,0.07551065261017999 l -1.4021247641483048 8.977653001968426" fill="#ff3004" stroke="none" /><path d="M 103.2404852339499 79.25152402106235 l 9.721455701849713 -62.245427936812945 a84.0,84.0 0 0,0 1.4266831754444993,0.23541494824150133 l -10.791468083433088 62.06886672563182" fill="#4dd2ff" stroke="none" /><path d="M 103.59715602781102 79.31037775812273 l 1.4984079654235902 -8.618334742543615 a29.747623686772265,29.747623686772265 0 0,0 0.5037333389814823,0.09205404791639354 l -1.6465364255079733 8.591265213276483" fill="#ff2b04" stroke="none" /><path d="M 103.95276090670814 79.375362276772 l 4.284863557475715 -22.357476369598217 a43.76437579472203,43.76437579472203 0 0,0 0.7386459452549218,0.14816542779786276 l -4.669075912197762 22.280406985723147" fill="#fff517" stroke="none" /><path d="M 104.307194497241 79.44645832069477 l 6.343293448838544 -30.269621297176286 a51.927129599310476,51.927129599310476 0 0,0 0.8732592205628187,0.19086064227110264 l -6.8633953935548915 30.155947156809315" fill="#a2ff22" stroke="none" /><path d="M 104.66035177308747 79.52364482259891 l 2.4894119965550088 -10.937819011583603 a32.217533455209825,32.217533455209825 0 0,0 0.5396840540016792,0.12772577908974012 l -2.6773197375192113 10.893347320352994" fill="#ff5107" stroke="none" /><path d="M 105.01212808612495 79.60689891045804 l 2.164329120957219 -8.806116243698028 a30.068186358988534,30.068186358988534 0 0,0 0.5015532578531364,0.12785709297589498 l -2.31559126749538 8.767556154553265" fill="#ff3004" stroke="none" /><path d="M 105.36241919743992 79.69619591428918 l 15.789174314839762 -59.782775303484726 a82.83266328188799,82.83266328188799 0 0,0 1.375424977505522,0.37595560333179034 l -16.815897181568996 59.50213315932664" fill="#4bdeff" stroke="none" /><path d="M 105.71112130821622 79.79150937346287 l 5.125527136201695 -18.13639765259075 a39.84674900975867,39.84674900975867 0 0,0 0.6584386523002667,0.19221629818312141 l -5.4369560062253885 18.045483025488927" fill="#ffbf11" stroke="none" /><path d="M 106.0581310904928 79.89281104454417 l 3.207409284273803 -10.645524762180523 a32.11821351562581,32.11821351562581 0 0,0 0.5279846241902065,0.16404739283335376 l -3.3901792811747273 10.588737234464649" fill="#ff4f07" stroke="none" /><path d="M 106.40334571778207 80.00007090966166 l 9.885491839047598 -30.875911518416494 a53.4198220382679,53.4198220382679 0 0,0 0.8733305970709736,0.2879233670117105 l -10.415505258360989 30.70117442714555" fill="#90ff24" stroke="none" /><path d="M 106.74666289553966 80.11325718540242 l 5.678419303532378 -16.73794378513439 a38.67493162479131,38.67493162479131 0 0,0 0.6285928645316043,0.21930370769063626 l -5.9656941721272565 16.637719224271546" fill="#ffaf10" stroke="none" /><path d="M 107.08798089147638 80.2323363322302 l 9.479212354898452 -26.43656699079648 a49.08464956391889,49.08464956391889 0 0,0 0.7928752697781278,0.2920226532089398 l -9.932869950449156 26.269481069781214" fill="#c5ff1e" stroke="none" /><path d="M 107.4271985657038 80.35727306442388 l 21.137396621326854 -55.9021152172937 a80.76483934300217,80.76483934300217 0 0,0 1.2961481206994743,0.5028853339621595 l -22.096527907025994 55.529987179440994" fill="#49f3ff" stroke="none" /><path d="M 107.76421540070413 80.48803036053334 l 10.630725393541963 -26.715692496821585 a49.753096319833574,49.753096319833574 0 0,0 0.7930078036271874,0.32348779433967134 l -11.089017066757538 26.528743816298334" fill="#bcff1f" stroke="none" /><path d="M 108.09893153111575 80.62456947434976 l 21.815992962255205 -52.19136059667587 a77.56744355069813,77.56744355069813 0 0,0 1.2274724456466595,0.5255396420529955 l -22.711149165692177 51.80810142666009" fill="#44ffea" stroke="none" /><path d="M 108.43124777332544 80.76684994638697 l 2.4181058065405154 -5.516122058451047 a27.02285964101399,27.02285964101399 0 0,0 0.4244105866556561,0.19042065896073415 l -2.512698511662952 5.473681068973782" fill="#ff0000" stroke="none" /><path d="M 108.76106565485865 80.91482961587045 l 9.50870543393201 -20.713834422465453 a43.79206913622813,43.79206913622813 0 0,0 0.6823675806499161,0.3203807286654572 l -9.863851225881524 20.547088711159994" fill="#fff517" stroke="none" /><path d="M 109.08828744355905 81.06846463323043 l 3.6961711618320656 -7.69938181493685 a29.54061833766966,29.54061833766966 0 0,0 0.4565133067072542,0.22400909698572624 l -3.8281557355497515 7.634617557816291" fill="#ff2803" stroke="none" /><line stroke="#e1ed5e" stroke-width="0.3" x1="143.23703022742887" x2="145.7803849466894" y1="26.81831364943548" y2="22.513508569990506" /><path d="M 143.74570117128098 25.957352633546492 a86.0,86.0 0 0,1 28.547481713284135,27.462654790039103" fill="none" id="id110" stroke="none" /><text fill="#e1ed5e" style="font-size:6.75px; font-family:Arial;" text-anchor="middle"><textPath startOffset="19.985693538727396" xlink:href="#id110">February</textPath></text><line stroke="#e1ed5e" stroke-width="0.3" x1="172.23445277983987" x2="176.4835382374775" y1="55.19839476539836" y2="52.563006222186495" /><path d="M 173.08426987136738 54.67131705675599 a86.0,86.0 0 0,1 12.851231095245387,41.99856678651699" fill="none" id="id111" stroke="none" /><text fill="#e1ed5e" style="font-size:6.75px; font-family:Arial;" text-anchor="middle"><textPath startOffset="22.20632615414155" xlink:href="#id111">March</textPath></text><line stroke="#e1ed5e" stroke-width="0.3" x1="184.98032266829074" x2="189.97916517819016" y1="98.17113171792111" y2="98.06355123074" /><path d="M 185.9800911702706 98.14961562048488 a86.0,86.0 0 0,1 -9.607161424134198,41.387399972396054" fill="none" id="id112" stroke="none" /><text fill="#e1ed5e" style="font-size:6.75px; font-family:Arial;" text-anchor="middle"><textPath startOffset="21.466115282336823" xlink:href="#id112">April</textPath></text><line stroke="#e1ed5e" stroke-width="0.3" x1="174.80103733775053" x2="179.2010983576182" y1="140.37084112569926" y2="142.7455964860345" /><path d="M 175.68104954172406 140.8457921977663 a86.0,86.0 0 0,1 -30.038265399797805,32.042727171017184" fill="none" id="id113" stroke="none" /><text fill="#e1ed5e" style="font-size:6.75px; font-family:Arial;" text-anchor="middle"><textPath startOffset="22.206326154141568" xlink:href="#id113">May</textPath></text><line stroke="#e1ed5e" stroke-width="0.3" x1="143.8653032363475" x2="146.44561519142675" y1="172.8068346515853" y2="177.08958963109032" /><path d="M 144.38136562736335 173.6633856474863 a86.0,86.0 0 0,1 -40.68145358897372,12.25698825130547" fill="none" id="id114" stroke="none" /><text fill="#e1ed5e" style="font-size:6.75px; font-family:Arial;" text-anchor="middle"><textPath startOffset="21.466115282336833" xlink:href="#id114">June</textPath></text><line stroke="#e1ed5e" stroke-width="0.3" x1="102.19456741930631" x2="102.32365962044197" y1="184.97166512339345" y2="189.96999836594603" /><path d="M 102.22038585953345 185.97133177190398 a86.0,86.0 0 0,1 -42.740103519485714,-10.115201625700543" fill="none" id="id115" stroke="none" /><text fill="#e1ed5e" style="font-size:6.75px; font-family:Arial;" text-anchor="middle"><textPath startOffset="22.20632615414155" xlink:href="#id115">July</textPath></text><line stroke="#e1ed5e" stroke-width="0.3" x1="58.666819895761336" x2="56.23545636021788" y1="174.27360380694188" y2="178.64263932499728" /><path d="M 58.180547188652646 175.14741091055294 a86.0,86.0 0 0,1 -31.652253787137756,-30.449443065178592" fill="none" id="id116" stroke="none" /><text fill="#e1ed5e" style="font-size:6.75px; font-family:Arial;" text-anchor="middle"><textPath startOffset="22.20632615414155" xlink:href="#id116">August</textPath></text><line stroke="#e1ed5e" stroke-width="0.3" x1="26.63291911575756" x2="22.317208475507996" y1="142.92168965132927" y2="145.44649492493687" /><path d="M 25.769776987707644 143.4266507060508 a86.0,86.0 0 0,1 -11.730757126820373,-40.83630448921669" fill="none" id="id117" stroke="none" /><text fill="#e1ed5e" style="font-size:6.75px; font-family:Arial;" text-anchor="middle"><textPath startOffset="21.46611528233685" xlink:href="#id117">September</textPath></text><line stroke="#e1ed5e" stroke-width="0.3" x1="15.007084014347285" x2="10.007500721073583" y1="101.09737516637583" y2="101.16192664675087" /><path d="M 14.007167355692545 101.11028546245083 a86.0,86.0 0 0,1 10.666146001902534,-42.60595125391555" fill="none" id="id118" stroke="none" /><text fill="#e1ed5e" style="font-size:6.75px; font-family:Arial;" text-anchor="middle"><textPath startOffset="22.20632615414155" xlink:href="#id118">October</textPath></text><line stroke="#e1ed5e" stroke-width="0.3" x1="26.266209847984243" x2="21.928928074336255" y1="57.711370442889674" y2="55.22380399835377" /><path d="M 25.398753493254645 57.213857153982495 a86.0,86.0 0 0,1 29.58750427330803,-30.492523968695096" fill="none" id="id119" stroke="none" /><text fill="#e1ed5e" style="font-size:6.75px; font-family:Arial;" text-anchor="middle"><textPath startOffset="21.46611528233685" xlink:href="#id119">November</textPath></text><line stroke="#e1ed5e" stroke-width="0.3" x1="56.762969772571076" x2="54.21961505331055" y1="26.818313649435495" y2="22.513508569990535" /><path d="M 56.25429882871897 25.957352633546506 a86.0,86.0 0 0,1 42.265352541879196,-11.944610805530505" fill="none" id="id120" stroke="none" /><text fill="#e1ed5e" style="font-size:6.75px; font-family:Arial;" text-anchor="middle"><textPath startOffset="22.20632615414155" xlink:href="#id120">December</textPath></text></svg>