<?xml version="1.0" encoding="utf-8" ?>
<svg baseProfile="full" height="200mm" version="1.1" viewBox="0,0,200,200" width="200mm" xmlns="http://www.w3.org/2000/svg" xmlns:ev="http://www.w3.org/2001/xml-events" xmlns:xlink="http://www.w3.org/1999/xlink"><defs /><rect fill="#1a1a1a" height="200" width="200" x="0" y="0" /><text alignment-baseline="middle" fill="#e1ed5e" style="dominant-baseline: central; font-size:9.0px; font-family:Arial;" text-anchor="middle" x="100.0" y="100.0">2021</text><line stroke="#e1ed5e" stroke-width="0.3" x1="100.0" x2="100.0" y1="15.0" y2="10.0" /><path d="M 100.0 14.0 a86.0,86.0 0 0,1 42.46469731375804,11.215312516191453" fill="none" id="id109" stroke="none" /><text fill="#e1ed5e" style="font-size:6.75px; font-family:Arial;" text-anchor="middle"><textPath startOffset="22.20632615414155" xlink:href="#id109">January</textPath></text><path d="M 100.0 79.0 l 0.0 -16.7583728686176 a37.7583728686176,37.7583728686176 0 0,0 0.6499483200523201,0.005594310386698126 l -0.2884678407797917 16.75588993483946" fill="#ffbf11" stroke="none" /><path d="M 100.36148047927253 79.00311137660856 l 0.3129129249387166 -18.175802596533728 a39.17849593686881,39.17849593686881 0 0,0 0.6741935668909754,0.017412430768024515 l -0.6257331270245597 18.167723373623346" fill="#ffd213" stroke="none" /><path d="M 100.72285384407766 79.0124445844662 l 1.1710397518489868 -34.00031954880644 a55.02048006012495,55.02048006012495 0 0,0 0.9462452752406719,0.04074731203167391 l -1.7561258594789904 33.975124510250566" fill="#6eff28" stroke="none" /><path d="M 101.08401301168833 79.027996857942 l 0.43294665323478326 -8.37606050303937 a29.38724223777538,29.38724223777538 0 0,0 0.5049539180634708,0.03046019930692412 l -0.5770626201378659 8.367367034352142" fill="#ff4b07" stroke="none" /><path d="M 101.44485096284872 79.0497635885617 l 0.9463799822889819 -13.72244257284198 a34.75503781295505,34.75503781295505 0 0,0 0.5964788855653239,0.04629824144987709 l -1.182449057216647 13.704119069203639" fill="#ff970d" stroke="none" /><path d="M 101.80526077348638 79.07773832637324 l 0.8796360447632738 -10.194635465628021 a31.2325144440791,31.2325144440791 0 0,0 0.5352284364864324,0.05082638926420165 l -1.0549896083399504 10.177983531848641" fill="#ff6609" stroke="none" /><path d="M 102.16513564639614 79.11191278185805 l 1.0514978368213446 -10.14429676116161 a31.198647188688994,31.198647188688994 0 0,0 0.5336948988395138,0.059966840322788165 l -1.2259594391705837 10.124693967368222" fill="#ff6509" stroke="none" /><path d="M 102.52436894288641 79.15227682838746 l 0.8394009933154621 -6.9322670079311015 a27.982901968152568,27.982901968152568 0 0,0 0.47768848615197623,0.062017675253876185 l -0.9586042079752845 6.916791009513088" fill="#ff3705" stroke="none" /><path d="M 102.88285421437855 79.19881850522331 l 0.740991979946427 -5.346613985599042 a26.397717130912678,26.397717130912678 0 0,0 0.44955440437544003,0.06625263325512283 l -0.8329153647505227 5.33306686818295" fill="#ff1f03" stroke="none" /><path d="M 103.2404852339499 79.25152402106235 l 5.7746464673703235 -36.974435883802755 a58.42265958945934,58.42265958945934 0 0,0 0.9922693512024153,0.16373294504027885 l -6.410245024711614 36.86955667582285" fill="#4aff2c" stroke="none" /><path d="M 103.59715602781102 79.31037775812273 l 0.8901225024429757 -5.1196829334496465 a26.196486448400584,26.196486448400584 0 0,0 0.4435999233815709,0.0810650505786292 l -0.9781175469274475 5.103602401520279" fill="#ff1c02" stroke="none" /><path d="M 103.95276090670814 79.375362276772 l 2.54530892400267 -13.280862589529418 a34.52257034149091,34.52257034149091 0 0,0 0.5826646933599215,0.11687705606315729 l -2.773540026829717 13.235081577389051" fill="#ff940d" stroke="none" /><path d="M 104.307194497241 79.44645832069477 l 3.768078634417564 -17.98092965456058 a39.37150641176194,39.37150641176194 0 0,0 0.6621111404928455,0.14471185021999564 l -4.077032499063938 17.913404306244715" fill="#ffd513" stroke="none" /><path d="M 104.66035177308747 79.52364482259891 l 1.4788026529098088 -6.497468395653631 a27.663629104232232,27.663629104232232 0 0,0 0.46340045007252584,0.1096719146641035 l -1.5904267899448583 6.471050568848659" fill="#ff3204" stroke="none" /><path d="M 105.01212808612495 79.60689891045804 l 1.2856198397748284 -5.23086698997724 a26.386537648550895,26.386537648550895 0 0,0 0.44014140936501517,0.11220184540442676 l -1.3754701378248686 5.207962148403946" fill="#ff1f03" stroke="none" /><path d="M 105.36241919743992 79.69619591428918 l 9.379174867903957 -35.512503217663266 a57.73018929963832,57.73018929963832 0 0,0 0.9586018506808869,0.2620220971857818 l -9.989074607808554 35.34579457965119" fill="#51ff2b" stroke="none" /><path d="M 105.71112130821622 79.79150937346287 l 3.0445542640305248 -10.772988873153732 a32.19493635210672,32.19493635210672 0 0,0 0.5319979930453654,0.1553048025154472 l -3.229542474799317 10.718985741719582" fill="#ff730a" stroke="none" /><path d="M 106.0581310904928 79.89281104454417 l 1.9053608156752104 -6.323971762384975 a27.604772417680493,27.604772417680493 0 0,0 0.4537891057892865,0.14099448410091076 l -2.0139352941752153 6.290237143401544" fill="#ff3104" stroke="none" /><path d="M 106.40334571778207 80.00007090966166 l 5.872265155565407 -18.341175361628334 a40.25830240969515,40.25830240969515 0 0,0 0.658160322124182,0.2169851103523243 l -6.187108299932007 18.237376527016774" fill="#ffe015" stroke="none" /><path d="M 106.74666289553966 80.11325718540242 l 3.3730673574377485 -9.942592963704502 a31.499177979238105,31.499177979238105 0 0,0 0.5119636334060863,0.17861405902592684 l -3.5437129949071084 9.883058051506367" fill="#ff6909" stroke="none" /><path d="M 107.08798089147638 80.2323363322302 l 5.6308091266356195 -15.70375861574265 a37.68274695852318,37.68274695852318 0 0,0 0.6086977991319406,0.22418853643233538 l -5.900289251540136 15.60450681150399" fill="#ffbe11" stroke="none" /><path d="M 107.4271985657038 80.35727306442388 l 12.556009036576631 -33.20690226931206 a56.50143266475645,56.50143266475645 0 0,0 0.9067587623647928,0.35180831245494715 l -13.12575096394109 32.98585125296656" fill="#5eff2a" stroke="none" /><path d="M 107.76421540070413 80.48803036053334 l 6.285577733070391 -15.79605865688046 a38.00070458922448,38.00070458922448 0 0,0 0.6056880377628583,0.24707535852439533 l -6.556549640421637 15.685522412172483" fill="#ffc312" stroke="none" /><path d="M 108.09893153111575 80.62456947434976 l 12.959025943903919 -31.00244839600693 a54.60190708816759,54.60190708816759 0 0,0 0.864052408620105,0.36994214831601535 l -13.49076211031434 30.774786719728123" fill="#73ff27" stroke="none" /><path d="M 108.43124777332544 80.76684994638697 l 1.436560951184922 -3.277046657638798 a24.578091972380104,24.578091972380104 0 0,0 0.38601401078376385,0.1731932346003383 l -1.492757080435466 3.2518330925219283" fill="#ff0400" stroke="none" /><path d="M 108.76106565485865 80.91482961587045 l 5.647839966521686 -12.303296460697739 a34.5376955235098,34.5376955235098 0 0,0 0.5381660241329878,0.2526761643489867 l -5.858784201954272 12.20425531370875" fill="#ff940d" stroke="none" /><path d="M 109.08828744355905 81.06846463323043 l 2.195692223748043 -4.573779740856068 a26.07351214242097,26.07351214242097 0 0,0 0.4029335171508571,0.19771772694487338 l -2.274097007909332 4.535306853776362" fill="#ff1a02" stroke="none" /><path d="M 109.41281617654863 81.2277094730956 l 6.7599486365377395 -13.481589077262502 a36.08145051435014,36.08145051435014 0 0,0 0.5528013474084503,0.28316632106342976 l -6.9910104715349455 13.363230230886572" fill="#ffa90f" stroke="none" /><path d="M 109.73455568895987 81.39251694778311 l 15.465669228981787 -29.56243584859699 a54.36352106721781,54.36352106721781 0 0,0 0.825432284783091,0.4409173400008217 l -15.97224656029319 29.291839782094414" fill="#75ff27" stroke="none" /><path d="M 110.05341064243156 81.56283822128135 l 4.286634390447277 -7.8613492031576 a29.954107755178732,29.954107755178732 0 0,0 0.4505610034857857,0.2507367106277917 l -4.421319483005097 7.786397094969628" fill="#ff5307" stroke="none" /><path d="M 110.36928655335952 81.73862282372117 l 4.963918253282823 -8.741969182638124 a31.052985109681057,31.052985109681057 0 0,0 0.4625464385244638,0.2679367525001383 l -5.113661424272615 8.655228272747935" fill="#ff6309" stroke="none" /><line stroke="#e1ed5e" stroke-width="0.3" x1="143.23703022742887" x2="145.7803849466894" y1="26.81831364943548" y2="22.513508569990506" /><path d="M 143.74570117128098 25.957352633546492 a86.0,86.0 0 0,1 28.547481713284135,27.462654790039103" fill="none" id="id110" stroke="none" /><text fill="#e1ed5e" style="font-size:6.75px; font-family:Arial;" text-anchor="middle"><textPath startOffset="19.985693538727396" xlink:href="#id110">February</textPath></text><path d="M 110.68208982089419 81.91981866633111 l 6.789224325703996 -11.491235234100353 a34.346986706749966,34.346986706749966 0 0,0 0.5064347616918252,0.3051212773821 l -6.986021153613459 11.37266734725964" fill="#ff910d" stroke="none" /><path d="M 110.99172775467656 82.1063720568725 l 2.7438444829537683 -4.466752944357518 a26.24219080276199,26.24219080276199 0 0,0 0.38286212675042935,0.23974822864727985 l -2.8203257620764606 4.418860374387294" fill="#ff1d02" stroke="none" /><path d="M 111.2981086023043 82.29822771554956 l 9.00193922441102 -14.10415529520456 a37.73206820423693,37.73206820423693 0 0,0 0.5444790881543006,0.3541443446067221 l -9.2433853383496 13.94711202643831" fill="#ffbf11" stroke="none" /><path d="M 111.60114157652 82.49532879139004 l 5.568337248159784 -8.401924247262881 a31.07961858236648,31.07961858236648 0 0,0 0.4433956108053431,0.29938269569112536 l -5.712137553371669 8.304829639273086" fill="#ff6309" stroke="none" /><path d="M 111.90073688211348 82.69761687909136 l 1.8853501146636622 -2.7410949695046525 a24.326882427544742,24.326882427544742 0 0,0 0.34297296941931804,0.2402744830367831 l -1.9322542236666314 2.708235643703934" fill="#ff0000" stroke="none" /><path d="M 112.19680574252982 82.90503203632743 l 3.1561934724785927 -4.423701372158025 a26.43421485274085,26.43421485274085 0 0,0 0.3681338067711574,0.26746486661575214 l -3.231872595603539 4.368717270725598" fill="#ff2003" stroke="none" /><path d="M 112.48926042617603 83.11751280151076 l 12.99358664533629 -17.564215391216386 a42.84799661797173,42.84799661797173 0 0,0 0.5891678012946255,0.4437489732056386 l -13.294000600389298 17.3379498285049" fill="#fdff18" stroke="none" /><path d="M 112.77801427241765 83.33499621200491 l 24.88618665803845 -32.45640410812404 a61.89914979566913,61.89914979566913 0 0,0 0.8399639311940716,0.6556051715840794 l -25.441183144391953 32.02322054731674" fill="#30ff3a" stroke="none" /><path d="M 113.06298171725822 83.55741782278167 l 6.9283893511579535 -8.72087351325557 a32.138052515383535,32.138052515383535 0 0,0 0.43018558756334374,0.34784682774056563 l -7.077478337285788 8.600320588250876" fill="#ff720a" stroke="none" /><path d="M 113.34407831869373 83.78471172551755 l 2.4802723428564546 -3.0139459675009177 a24.903283385786086,24.903283385786086 0 0,0 0.3286551093019927,0.27523920242546085 l -2.5317849891175648 2.9708056076816374" fill="#ff0901" stroke="none" /><path d="M 113.6212207817346 84.01681056812373 l 3.5847226094758686 -4.206326396589417 a26.52660998637794,26.52660998637794 0 0,0 0.34498008038849953,0.2991633262227445 l -3.6565964885111324 4.1439980769470015" fill="#ff2103" stroke="none" /><path d="M 113.89432698308785 84.25364557470407 l 11.126208603755641 -12.609263068140201 a37.81624313025506,37.81624313025506 0 0,0 0.4843882805922493,0.4348885809798973 l -11.341607871943882 12.415875478391007" fill="#ffc011" stroke="none" /><path d="M 114.16331599549186 84.49514656593476 l 42.48994798647556 -46.51456030219571 a84.0,84.0 0 0,0 1.0591684648206128,0.984381655701438 l -43.28432433509102 45.77627406041963" fill="#4dd2ff" stroke="none" /><path d="M 114.68862486808459 84.99185889309783 l 9.73192981184335 -9.943624891392513 a34.91352341584856,34.91352341584856 0 0,0 0.4258854661504902,0.42405657861288454 l -9.901651078161164 9.77463246212951" fill="#ff990e" stroke="none" /><path d="M 114.94478906791727 85.2469230424477 l 4.682312136925555 -4.6222473252324585 a27.5794541782141,27.5794541782141 0 0,0 0.3306063906770996,0.3407189467149398 l -4.761182791305764 4.540964182967405" fill="#ff3104" stroke="none" /><path d="M 115.19652480421416 85.50635884689758 l 12.393589607733304 -11.82034989496368 a38.12663816994692,38.12663816994692 0 0,0 0.44886432661995934,0.4788171674780721 l -12.595221256323725 11.605263310607555" fill="#ffc412" stroke="none" /><path d="M 115.4437574822437 85.77008943001954 l 10.057170642804541 -9.266698146398888 a34.675466203203534,34.675466203203534 0 0,0 0.40067725661005077,0.4424378342513019 l -10.215191540030627 9.092207524878036" fill="#ff960d" stroke="none" /><path d="M 115.68641384162765 86.03803664274999 l 12.827997377900495 -11.417780452906994 a38.1733289492226,38.1733289492226 0 0,0 0.43264585163020236,0.4945889988110068 l -13.022635093108546 11.19527589789304" fill="#ffc512" stroke="none" /><path d="M 115.9244219780498 86.31012108654704 l 7.7745847103758 -6.6836412294358105 a31.25257175066936,31.25257175066936 0 0,0 0.3471853947935003,0.41095799952483564 l -7.888480718656417 6.548824280281869" fill="#ff6609" stroke="none" /><path d="M 116.15771136456269 86.58626213691792 l 12.778271146487185 -10.608209023852886 a37.60777866503828,37.60777866503828 0 0,0 0.4092111492675194,0.501644483331045 l -12.958980787831115 10.38668037091374" fill="#ffbd11" stroke="none" /><path d="M 116.38621287248628 86.86637796730983 l 15.984171198833444 -12.811383854519512 a41.484757386443704,41.484757386443704 0 0,0 0.4418046050965497,0.5610469825125183 l -16.20232988452396 12.534344478053956" fill="#fff016" stroke="none" /><path d="M 116.60985879189232 87.15038557335679 l 8.011701034071347 -6.197961733401767 a31.129268636384985,31.129268636384985 0 0,0 0.32422476257163324,0.42664178234479316 l -8.117201736867093 6.05913517517594" fill="#ff6409" stroke="none" /><path d="M 116.82858285166822 87.43820079747576 l 2.813590863671585 -2.1002222099762613 a24.511015078209404,24.511015078209404 0 0,0 0.24947239654550427,0.3402800685253496 l -2.8493258727307156 2.051479697779418" fill="#ff0300" stroke="none" /><path d="M 117.04232023915458 87.72973835380427 l 18.938223996951145 -13.635289109458776 a44.3361830053079,44.3361830053079 0 0,0 0.4405905656796817,0.6231841095050862 l -19.170127182434708 13.307278499621898" fill="#eaff1a" stroke="none" /><path d="M 117.2510076193507 88.02491185347247 l 5.536139980995067 -3.843008230404251 a27.73925501432665,27.73925501432665 0 0,0 0.2689063648329912,0.394586909089807 l -5.6014708114967915 3.7471432980440373" fill="#ff3304" stroke="none" /><path d="M 117.45458315368197 88.32363383020206 l 20.770207855334924 -13.89437663485796 a45.98910235332801,45.98910235332801 0 0,0 0.4344948877985262,0.6617655230979794 l -21.006299378491374 13.534793047782307" fill="#d6ff1c" stroke="none" /><path d="M 117.65298651832404 88.62581576622439 l 4.558703346747434 -2.9372668289987183 a26.42303537037907,26.42303537037907 0 0,0 0.24305720271305997,0.3844581243785741 l -4.60858814570645 2.8583610569059377" fill="#ff2003" stroke="none" /><line stroke="#e1ed5e" stroke-width="0.3" x1="172.23445277983987" x2="176.4835382374775" y1="55.19839476539836" y2="52.563006222186495" /><path d="M 173.08426987136738 54.67131705675599 a86.0,86.0 0 0,1 12.851231095245387,41.99856678651699" fill="none" id="id111" stroke="none" /><text fill="#e1ed5e" style="font-size:6.75px; font-family:Arial;" text-anchor="middle"><textPath startOffset="22.20632615414155" xlink:href="#id111">March</textPath></text><path d="M 117.84615892207809 88.93136811851018 l 6.493602129271339 -4.027493639813078 a28.641176194278735,28.641176194278735 0 0,0 0.2562487869240794,0.4212056296213062 l -6.561966714481642 3.91512023698469" fill="#ff4006" stroke="none" /><path d="M 118.03404312379186 89.2402003453031 l 14.396569255899418 -8.589543667225977 a37.76429141810325,37.76429141810325 0 0,0 0.32826219280276153,0.5611064952531106 l -14.542291123172507 8.340457759618971" fill="#ffbf11" stroke="none" /><path d="M 118.21658344932153 89.55222093294921 l 17.33095406935781 -9.939842981072236 a40.9790502137254,40.9790502137254 0 0,0 0.34567264821214977,0.6149130699788087 l -17.49948435886239 9.640046401158632" fill="#ffe915" stroke="none" /><path d="M 118.3937258080291 89.86733742301442 l 7.366187937306592 -4.057856337882792 a29.4099300108037,29.4099300108037 0 0,0 0.24044984692413346,0.4455170483475278 l -7.43494588344919 3.9304583062028056" fill="#ff4b07" stroke="none" /><path d="M 118.56541770881063 90.18545643968196 l 17.740152378118523 -9.378269910894357 a41.066513222791116,41.066513222791116 0 0,0 0.32499367193491585,0.6277843307701041 l -17.898955483213555 9.071512857863906" fill="#ffeb16" stroke="none" /><path d="M 118.73160827565052 90.50648371742162 l 9.556589851625981 -4.843451775588869 a31.71388980224529,31.71388980224529 0 0,0 0.2425961355728441,0.48905900589800344 l -9.638546000152232 4.678233181191915" fill="#ff6c0a" stroke="none" /><path d="M 118.89224826269711 90.83032412892265 l 30.084367906134375 -14.601962595960023 a54.440791018836016,54.440791018836016 0 0,0 0.4019332651544683,0.8465739621775836 l -30.3312593651306 14.0819462181419" fill="#74ff27" stroke="none" /><path d="M 119.04729006885535 91.15688171328212 l 9.346046881453477 -4.339105341869275 a31.30419465451642,31.30419465451642 0 0,0 0.2227035309863396,0.49069771005670243 l -9.419352729403164 4.17758562297051" fill="#ff6709" stroke="none" /><path d="M 119.196687751892 91.48605970444005 l 13.442821222471984 -5.962037762516213 a35.70562262201137,35.70562262201137 0 0,0 0.24434427055401783,0.563980265085196 l -13.543456202868683 5.7297583528444145" fill="#ffa40f" stroke="none" /><path d="M 119.34039704204932 91.81776055985345 l 18.548212053526292 -7.8470939287647195 a41.13983747475223,41.13983747475223 0 0,0 0.2703050179305863,0.6545650413206135 l -18.680538758343076 7.526654316990803" fill="#ffec16" stroke="none" /><path d="M 119.47837535516314 92.15188598940014 l 7.986905503640566 -3.2180376361750023 a29.610831885011038,29.610831885011038 0 0,0 0.18641633183652695,0.47440923112264766 l -8.041115385358793 3.08007940015657" fill="#ff4e07" stroke="none" /><path d="M 119.61058180528143 92.48833698450437 l 15.432812753303745 -5.911404869836163 a37.52623420545822,37.52623420545822 0 0,0 0.22586399116110847,0.6052032038003391 l -15.532281332966479 5.6448785290064905" fill="#ffbc11" stroke="none" /><path d="M 119.7369772167798 92.82701384747503 l 15.150626223712512 -5.506174066633617 a37.12015594908169,37.12015594908169 0 0,0 0.21308192569148657,0.6024112978505364 l -15.24316123021381 5.244565142356466" fill="#ffb711" stroke="none" /><path d="M 119.85752413597 93.16781622104841 l 12.907841522300942 -4.441074570328572 a34.6504767720419,34.6504767720419 0 0,0 0.18919606851336881,0.5656721635248361 l -12.982374884586081 4.218229303881422" fill="#ff950d" stroke="none" /><path d="M 119.97218684219823 93.5106431181261 l 19.46183550384716 -6.323533680044811 a41.46338484663441,41.46338484663441 0 0,0 0.21471027268952142,0.680690239298788 l -19.567801260304886 5.987593274319604" fill="#fff016" stroke="none" /><path d="M 120.08093135843002 93.85539295169968 l 10.361958035423926 -3.170677656438932 a31.836206491615393,31.836206491615393 0 0,0 0.15583687074629543,0.5254044574982502 l -10.415000803281925 2.991843812194152" fill="#ff6e0a" stroke="none" /><path d="M 120.18372546131832 94.20196356495316 l 13.584756175806431 -3.902397078255183 a35.1341537883414,35.1341537883414 0 0,0 0.16197385198416092,0.5827061251628343 l -13.649916798356955 3.6679796496733967" fill="#ff9c0e" stroke="none" /><path d="M 120.28053869075195 94.5502522615342 l 9.95434773635355 -2.6749133684911746 a31.307482737564,31.307482737564 0 0,0 0.13537306059418996,0.5216476246162527 l -9.998917128818045 2.5031693183260715" fill="#ff6709" stroke="none" /><path d="M 120.37134235888165 94.90015583598534 l 16.611063105607567 -4.158480660960352 a38.123678895204094,38.123678895204094 0 0,0 0.15388750017629277,0.6379630374880636 l -16.68018340604468 3.8719323918128823" fill="#ffc412" stroke="none" /><line stroke="#e1ed5e" stroke-width="0.3" x1="184.98032266829074" x2="189.97916517819016" y1="98.17113171792111" y2="98.06355123074" /><path d="M 185.9800911702706 98.14961562048488 a86.0,86.0 0 0,1 -9.607161424134198,41.387399972396054" fill="none" id="id112" stroke="none" /><text fill="#e1ed5e" style="font-size:6.75px; font-family:Arial;" text-anchor="middle"><textPath startOffset="21.466115282336823" xlink:href="#id112">April</textPath></text><line stroke="#e1ed5e" stroke-width="0.3" x1="174.80103733775053" x2="179.2010983576182" y1="140.37084112569926" y2="142.7455964860345" /><path d="M 175.68104954172406 140.8457921977663 a86.0,86.0 0 0,1 -30.038265399797805,32.042727171017184" fill="none" id="id113" stroke="none" /><text fill="#e1ed5e" style="font-size:6.75px; font-family:Arial;" text-anchor="middle"><textPath startOffset="22.206326154141568" xlink:href="#id113">May</textPath></text><line stroke="#e1ed5e" stroke-width="0.3" x1="143.8653032363475" x2="146.44561519142675" y1="172.8068346515853" y2="177.08958963109032" /><path d="M 144.38136562736335 173.6633856474863 a86.0,86.0 0 0,1 -40.68145358897372,12.25698825130547" fill="none" id="id114" stroke="none" /><text fill="#e1ed5e" style="font-size:6.75px; font-family:Arial;" text-anchor="middle"><textPath startOffset="21.466115282336833" xlink:href="#id114">June</textPath></text><line stroke="#e1ed5e" stroke-width="0.3" x1="102.19456741930631" x2="102.32365962044197" y1="184.97166512339345" y2="189.96999836594603" /><path d="M 102.22038585953345 185.97133177190398 a86.0,86.0 0 0,1 -42.740103519485714,-10.115201625700543" fill="none" id="id115" stroke="none" /><text fill="#e1ed5e" style="font-size:6.75px; font-family:Arial;" text-anchor="middle"><textPath startOffset="22.20632615414155" xlink:href="#id115">July</textPath></text><line stroke="#e1ed5e" stroke-width="0.3" x1="58.666819895761336" x2="56.23545636021788" y1="174.27360380694188" y2="178.64263932499728" /><path d="M 58.180547188652646 175.14741091055294 a86.0,86.0 0 0,1 -31.652253787137756,-30.449443065178592" fill="none" id="id116" stroke="none" /><text fill="#e1ed5e" style="font-size:6.75px; font-family:Arial;" text-anchor="middle"><textPath startOffset="22.20632615414155" xlink:href="#id116">August</textPath></text><line stroke="#e1ed5e" stroke-width="0.3" x1="26.63291911575756" x2="22.317208475507996" y1="142.92168965132927" y2="145.44649492493687" /><path d="M 25.769776987707644 143.4266507060508 a86.0,86.0 0 0,1 -11.730757126820373,-40.83630448921669" fill="none" id="id117" stroke="none" /><text fill="#e1ed5e" style="font-size:6.75px; font-family:Arial;" text-anchor="middle"><textPath startOffset="21.46611528233685" xlink:href="#id117">September</textPath></text><line stroke="#e1ed5e" stroke-width="0.3" x1="15.007084014347285" x2="10.007500721073583" y1="101.09737516637583" y2="101.16192664675087" /><path d="M 14.007167355692545 101.11028546245083 a86.0,86.0 0 0,1 10.666146001902534,-42.60595125391555" fill="none" id="id118" stroke="none" /><text fill="#e1ed5e" style="font-size:6.75px; font-family:Arial;" text-anchor="middle"><textPath startOffset="22.20632615414155" xlink:href="#id118">October</textPath></text><line stroke="#e1ed5e" stroke-width="0.3" x1="26.266209847984243" x2="21.928928074336255" y1="57.711370442889674" y2="55.22380399835377" /><path d="M 25.398753493254645 57.213857153982495 a86.0,86.0 0 0,1 29.58750427330803,-30.492523968695096" fill="none" id="id119" stroke="none" /><text fill="#e1ed5e" style="font-size:6.75px; font-family:Arial;" text-anchor="middle"><textPath startOffset="21.46611528233685" xlink:href="#id119">November</textPath></text><line stroke="#e1ed5e" stroke-width="0.3" x1="56.762969772571076" x2="54.21961505331055" y1="26.818313649435495" y2="22.513508569990535" /><path d="M 56.25429882871897 25.957352633546506 a86.0,86.0 0 0,1 42.265352541879196,-11.944610805530505" fill="none" id="id120" stroke="none" /><text fill="#e1ed5e" style="font-size:6.75px; font-family:Arial;" text-anchor="middle"><textPath startOffset="22.20632615414155" xlink:href="#id120">December</textPath></text></svg>