<?xml version="1.0" encoding="utf-8" ?>
<svg baseProfile="full" height="200mm" version="1.1" viewBox="0,0,200,200" width="200mm" xmlns="http://www.w3.org/2000/svg" xmlns:ev="http://www.w3.org/2001/xml-events" xmlns:xlink="http://www.w3.org/1999/xlink"><defs /><rect fill="#1a1a1a" height="200" width="200" x="0" y="0" /><text alignment-baseline="middle" fill="#e1ed5e" style="dominant-baseline: central; font-size:9.0px; font-family:Arial;" text-anchor="middle" x="100.0" y="100.0">2022</text><line stroke="#e1ed5e" stroke-width="0.3" x1="100.0" x2="100.0" y1="15.0" y2="10.0" /><path d="M 100.0 14.0 a86.0,86.0 0 0,1 42.46469731375804,11.215312516191453" fill="none" id="id121" stroke="none" /><text fill="#e1ed5e" style="font-size:6.75px; font-family:Arial;" text-anchor="middle"><textPath startOffset="22.20632615414155" xlink:href="#id121">January</textPath></text><path d="M 100.0 79.0 l 0.0 -33.08848814229249 a54.08848814229249,54.08848814229249 0 0,0 0.9310444103239218,0.008013793180868695 l -0.5695639310513934 33.083585725720184" fill="#d3ff1c" stroke="none"><animate attributeName="opacity" dur="10s" keyTimes="0;0.06;0.11;0.17;0.22;0.28;0.33;0.39;0.44;0.5;0.56;0.61;0.67;0.72;0.78;0.83;0.89;0.94;1" repeatCount="indefinite" values="0;1;1;1;1;1;1;1;1;1;1;1;1;1;1;1;1;1;1" /></path><path d="M 100.36148047927253 79.00311137660856 l 0.7781831740544766 -45.201404698538134 a66.20810276679842,66.20810276679842 0 0,0 1.139325946390568,0.029425427856311585 l -1.5561357556399125 45.18131247853947" fill="#30ff36" stroke="none"><animate attributeName="opacity" dur="10s" keyTimes="0;0.06;0.11;0.17;0.22;0.28;0.33;0.39;0.44;0.5;0.56;0.61;0.67;0.72;0.78;0.83;0.89;0.94;1" repeatCount="indefinite" values="0;0;1;1;1;1;1;1;1;1;1;1;1;1;1;1;1;1;1" /></path><path d="M 100.72285384407766 79.0124445844662 l 1.1220663079660051 -32.57840988365815 a53.597727272727276,53.597727272727276 0 0,0 0.9217766936972289,0.039693643439384724 l -1.6826838340525654 32.55426851369457" fill="#dbff1b" stroke="none"><animate attributeName="opacity" dur="10s" keyTimes="0;0.06;0.11;0.17;0.22;0.28;0.33;0.39;0.44;0.5;0.56;0.61;0.67;0.72;0.78;0.83;0.89;0.94;1" repeatCount="indefinite" values="0;0;0;1;1;1;1;1;1;1;1;1;1;1;1;1;1;1;1" /></path><path d="M 101.08401301168833 79.027996857942 l 1.7054459649798157 -32.99463913303127 a54.038685770750995,54.038685770750995 0 0,0 0.9285337455675146,0.056011691248301514 l -2.273141759386942 32.960394172402665" fill="#d4ff1c" stroke="none"><animate attributeName="opacity" dur="10s" keyTimes="0;0.06;0.11;0.17;0.22;0.28;0.33;0.39;0.44;0.5;0.56;0.61;0.67;0.72;0.78;0.83;0.89;0.94;1" repeatCount="indefinite" values="0;0;0;0;1;1;1;1;1;1;1;1;1;1;1;1;1;1;1" /></path><path d="M 101.44485096284872 79.0497635885617 l 2.3003397938160606 -33.35476374121482 a54.433992094861665,54.433992094861665 0 0,0 0.9342164182457576,0.07251317413756904 l -2.8741464014241593 33.31022530488878" fill="#ceff1d" stroke="none"><animate attributeName="opacity" dur="10s" keyTimes="0;0.06;0.11;0.17;0.22;0.28;0.33;0.39;0.44;0.5;0.56;0.61;0.67;0.72;0.78;0.83;0.89;0.94;1" repeatCount="indefinite" values="0;0;0;0;0;1;1;1;1;1;1;1;1;1;1;1;1;1;1" /></path><path d="M 101.80526077348638 79.07773832637324 l 2.844801994582409 -32.970135181834266 a54.092638339920946,54.092638339920946 0 0,0 0.9269800641872588,0.08802792671448537 l -3.4119071858599117 32.91628171060461" fill="#d3ff1c" stroke="none"><animate attributeName="opacity" dur="10s" keyTimes="0;0.06;0.11;0.17;0.22;0.28;0.33;0.39;0.44;0.5;0.56;0.61;0.67;0.72;0.78;0.83;0.89;0.94;1" repeatCount="indefinite" values="0;0;0;0;0;0;1;1;1;1;1;1;1;1;1;1;1;1;1" /></path><path d="M 102.16513564639614 79.11191278185805 l 5.489003966792406 -52.95501637041992 a74.2387351778656,74.2387351778656 0 0,0 1.2699535983434849,0.142694083857291 l -6.399724268645616 52.85268633309203" fill="#3dffae" stroke="none"><animate attributeName="opacity" dur="10s" keyTimes="0;0.06;0.11;0.17;0.22;0.28;0.33;0.39;0.44;0.5;0.56;0.61;0.67;0.72;0.78;0.83;0.89;0.94;1" repeatCount="indefinite" values="0;0;0;0;0;0;0;1;1;1;1;1;1;1;1;1;1;1;1" /></path><path d="M 102.52436894288641 79.15227682838746 l 4.003195156117835 -33.06073965608931 a54.3022233201581,54.3022233201581 0 0,0 0.9269784414073546,0.1203484061540799 l -4.571688326033035 32.9869329267711" fill="#d0ff1d" stroke="none"><animate attributeName="opacity" dur="10s" keyTimes="0;0.06;0.11;0.17;0.22;0.28;0.33;0.39;0.44;0.5;0.56;0.61;0.67;0.72;0.78;0.83;0.89;0.94;1" repeatCount="indefinite" values="0;0;0;0;0;0;0;0;1;1;1;1;1;1;1;1;1;1;1" /></path><path d="M 102.88285421437855 79.19881850522331 l 6.095157134184869 -43.979494056619494 a65.39985177865613,65.39985177865613 0 0,0 1.1137626510197896,0.16413966303763064 l -6.8512887656333135 43.86805990942089" fill="#34ff2f" stroke="none"><animate attributeName="opacity" dur="10s" keyTimes="0;0.06;0.11;0.17;0.22;0.28;0.33;0.39;0.44;0.5;0.56;0.61;0.67;0.72;0.78;0.83;0.89;0.94;1" repeatCount="indefinite" values="0;0;0;0;0;0;0;0;0;1;1;1;1;1;1;1;1;1;1" /></path><path d="M 103.2404852339499 79.25152402106235 l 5.013626240174964 -32.10170579448777 a53.49085968379447,53.49085968379447 0 0,0 0.9085060660825243,0.14991128528397482 l -5.5654615123963636 32.010648246264175" fill="#dcff1b" stroke="none"><animate attributeName="opacity" dur="10s" keyTimes="0;0.06;0.11;0.17;0.22;0.28;0.33;0.39;0.44;0.5;0.56;0.61;0.67;0.72;0.78;0.83;0.89;0.94;1" repeatCount="indefinite" values="0;0;0;0;0;0;0;0;0;0;1;1;1;1;1;1;1;1;1" /></path><path d="M 103.59715602781102 79.31037775812273 l 2.7872627462529835 -16.031390593841962 a37.27188735177866,37.27188735177866 0 0,0 0.6311459518093129,0.11533788850975395 l -3.062803819165197 15.98103722398147" fill="#ff0a01" stroke="none"><animate attributeName="opacity" dur="10s" keyTimes="0;0.06;0.11;0.17;0.22;0.28;0.33;0.39;0.44;0.5;0.56;0.61;0.67;0.72;0.78;0.83;0.89;0.94;1" repeatCount="indefinite" values="0;0;0;0;0;0;0;0;0;0;0;1;1;1;1;1;1;1;1" /></path><path d="M 103.95276090670814 79.375362276772 l 7.720968500331317 -40.286316817580015 a62.01951581027668,62.01951581027668 0 0,0 1.0467523653212738,0.20996867714846207 l -8.413287275119716 40.14744418435434" fill="#61ff29" stroke="none"><animate attributeName="opacity" dur="10s" keyTimes="0;0.06;0.11;0.17;0.22;0.28;0.33;0.39;0.44;0.5;0.56;0.61;0.67;0.72;0.78;0.83;0.89;0.94;1" repeatCount="indefinite" values="0;0;0;0;0;0;0;0;0;0;0;0;1;1;1;1;1;1;1" /></path><path d="M 104.307194497241 79.44645832069477 l 12.921583491723009 -61.66062503791566 a84.0,84.0 0 0,0 1.4126291033858882,0.3087460076165178 l -13.981055319262426 61.429065532203275" fill="#4dd2ff" stroke="none"><animate attributeName="opacity" dur="10s" keyTimes="0;0.06;0.11;0.17;0.22;0.28;0.33;0.39;0.44;0.5;0.56;0.61;0.67;0.72;0.78;0.83;0.89;0.94;1" repeatCount="indefinite" values="0;0;0;0;0;0;0;0;0;0;0;0;0;1;1;1;1;1;1" /></path><path d="M 104.66035177308747 79.52364482259891 l 3.5251969192672545 -15.48878447460527 a36.8848814229249,36.8848814229249 0 0,0 0.6178679806562395,0.1462293885075158 l -3.7912885868860178 15.425809173956885" fill="#ff0300" stroke="none"><animate attributeName="opacity" dur="10s" keyTimes="0;0.06;0.11;0.17;0.22;0.28;0.33;0.39;0.44;0.5;0.56;0.61;0.67;0.72;0.78;0.83;0.89;0.94;1" repeatCount="indefinite" values="0;0;0;0;0;0;0;0;0;0;0;0;0;0;1;1;1;1;1" /></path><path d="M 105.01212808612495 79.60689891045804 l 10.127272243585276 -41.20534892084525 a63.43162055335968,63.43162055335968 0 0,0 1.0580729931498176,0.26972636493182284 l -10.83505412542012 41.02491955974456" fill="#4eff2b" stroke="none"><animate attributeName="opacity" dur="10s" keyTimes="0;0.06;0.11;0.17;0.22;0.28;0.33;0.39;0.44;0.5;0.56;0.61;0.67;0.72;0.78;0.83;0.89;0.94;1" repeatCount="indefinite" values="0;0;0;0;0;0;0;0;0;0;0;0;0;0;0;1;1;1;1" /></path><path d="M 105.36241919743992 79.69619591428918 l 9.681763079646604 -36.65819726799066 a58.91516798418973,58.91516798418973 0 0,0 0.9782782587060291,0.2674004027796724 l -10.311339227576344 36.48611032438469" fill="#8cff24" stroke="none"><animate attributeName="opacity" dur="10s" keyTimes="0;0.06;0.11;0.17;0.22;0.28;0.33;0.39;0.44;0.5;0.56;0.61;0.67;0.72;0.78;0.83;0.89;0.94;1" repeatCount="indefinite" values="0;0;0;0;0;0;0;0;0;0;0;0;0;0;0;0;1;1;1" /></path><path d="M 105.71112130821622 79.79150937346287 l 8.68632205297075 -30.73607586202168 a52.9399209486166,52.9399209486166 0 0,0 0.8747938305770679,0.25537630757174273 l -9.214106101271247 30.582001225531233" fill="#e5ff1a" stroke="none"><animate attributeName="opacity" dur="10s" keyTimes="0;0.06;0.11;0.17;0.22;0.28;0.33;0.39;0.44;0.5;0.56;0.61;0.67;0.72;0.78;0.83;0.89;0.94;1" repeatCount="indefinite" values="0;0;0;0;0;0;0;0;0;0;0;0;0;0;0;0;0;1;1" /></path><path d="M 106.0581310904928 79.89281104454417 l 4.540305855320412 -15.069463896507386 a36.73858695652174,36.73858695652174 0 0,0 0.6039379811109772,0.18764647055063385 l -4.799029209142107 14.989077291074231" fill="#ff0000" stroke="none"><animate attributeName="opacity" dur="10s" keyTimes="0;0.06;0.11;0.17;0.22;0.28;0.33;0.39;0.44;0.5;0.56;0.61;0.67;0.72;0.78;0.83;0.89;0.94;1" repeatCount="indefinite" values="0;0;0;0;0;0;0;0;0;0;0;0;0;0;0;0;0;0;1" /></path><line stroke="#e1ed5e" stroke-width="0.3" x1="143.23703022742887" x2="145.7803849466894" y1="26.81831364943548" y2="22.513508569990506" /><path d="M 143.74570117128098 25.957352633546492 a86.0,86.0 0 0,1 28.547481713284135,27.462654790039103" fill="none" id="id122" stroke="none" /><text fill="#e1ed5e" style="font-size:6.75px; font-family:Arial;" text-anchor="middle"><textPath startOffset="19.985693538727396" xlink:href="#id122">February</textPath></text><line stroke="#e1ed5e" stroke-width="0.3" x1="172.23445277983987" x2="176.4835382374775" y1="55.19839476539836" y2="52.563006222186495" /><path d="M 173.08426987136738 54.67131705675599 a86.0,86.0 0 0,1 12.851231095245387,41.99856678651699" fill="none" id="id123" stroke="none" /><text fill="#e1ed5e" style="font-size:6.75px; font-family:Arial;" text-anchor="middle"><textPath startOffset="22.20632615414155" xlink:href="#id123">March</textPath></text><line stroke="#e1ed5e" stroke-width="0.3" x1="184.98032266829074" x2="189.97916517819016" y1="98.17113171792111" y2="98.06355123074" /><path d="M 185.9800911702706 98.14961562048488 a86.0,86.0 0 0,1 -9.607161424134198,41.387399972396054" fill="none" id="id124" stroke="none" /><text fill="#e1ed5e" style="font-size:6.75px; font-family:Arial;" text-anchor="middle"><textPath startOffset="21.466115282336823" xlink:href="#id124">April</textPath></text><line stroke="#e1ed5e" stroke-width="0.3" x1="174.80103733775053" x2="179.2010983576182" y1="140.37084112569926" y2="142.7455964860345" /><path d="M 175.68104954172406 140.8457921977663 a86.0,86.0 0 0,1 -30.038265399797805,32.042727171017184" fill="none" id="id125" stroke="none" /><text fill="#e1ed5e" style="font-size:6.75px; font-family:Arial;" text-anchor="middle"><textPath startOffset="22.206326154141568" xlink:href="#id125">May</textPath></text><line stroke="#e1ed5e" stroke-width="0.3" x1="143.8653032363475" x2="146.44561519142675" y1="172.8068346515853" y2="177.08958963109032" /><path d="M 144.38136562736335 173.6633856474863 a86.0,86.0 0 0,1 -40.68145358897372,12.25698825130547" fill="none" id="id126" stroke="none" /><text fill="#e1ed5e" style="font-size:6.75px; font-family:Arial;" text-anchor="middle"><textPath startOffset="21.466115282336833" xlink:href="#id126">June</textPath></text><line stroke="#e1ed5e" stroke-width="0.3" x1="102.19456741930631" x2="102.32365962044197" y1="184.97166512339345" y2="189.96999836594603" /><path d="M 102.22038585953345 185.97133177190398 a86.0,86.0 0 0,1 -42.740103519485714,-10.115201625700543" fill="none" id="id127" stroke="none" /><text fill="#e1ed5e" style="font-size:6.75px; font-family:Arial;" text-anchor="middle"><textPath startOffset="22.20632615414155" xlink:href="#id127">July</textPath></text><line stroke="#e1ed5e" stroke-width="0.3" x1="58.666819895761336" x2="56.23545636021788" y1="174.27360380694188" y2="178.64263932499728" /><path d="M 58.180547188652646 175.14741091055294 a86.0,86.0 0 0,1 -31.652253787137756,-30.449443065178592" fill="none" id="id128" stroke="none" /><text fill="#e1ed5e" style="font-size:6.75px; font-family:Arial;" text-anchor="middle"><textPath startOffset="22.20632615414155" xlink:href="#id128">August</textPath></text><line stroke="#e1ed5e" stroke-width="0.3" x1="26.63291911575756" x2="22.317208475507996" y1="142.92168965132927" y2="145.44649492493687" /><path d="M 25.769776987707644 143.4266507060508 a86.0,86.0 0 0,1 -11.730757126820373,-40.83630448921669" fill="none" id="id129" stroke="none" /><text fill="#e1ed5e" style="font-size:6.75px; font-family:Arial;" text-anchor="middle"><textPath startOffset="21.46611528233685" xlink:href="#id129">September</textPath></text><line stroke="#e1ed5e" stroke-width="0.3" x1="15.007084014347285" x2="10.007500721073583" y1="101.09737516637583" y2="101.16192664675087" /><path d="M 14.007167355692545 101.11028546245083 a86.0,86.0 0 0,1 10.666146001902534,-42.60595125391555" fill="none" id="id130" stroke="none" /><text fill="#e1ed5e" style="font-size:6.75px; font-family:Arial;" text-anchor="middle"><textPath startOffset="22.20632615414155" xlink:href="#id130">October</textPath></text><line stroke="#e1ed5e" stroke-width="0.3" x1="26.266209847984243" x2="21.928928074336255" y1="57.711370442889674" y2="55.22380399835377" /><path d="M 25.398753493254645 57.213857153982495 a86.0,86.0 0 0,1 29.58750427330803,-30.492523968695096" fill="none" id="id131" stroke="none" /><text fill="#e1ed5e" style="font-size:6.75px; font-family:Arial;" text-anchor="middle"><textPath startOffset="21.46611528233685" xlink:href="#id131">November</textPath></text><line stroke="#e1ed5e" stroke-width="0.3" x1="56.762969772571076" x2="54.21961505331055" y1="26.818313649435495" y2="22.513508569990535" /><path d="M 56.25429882871897 25.957352633546506 a86.0,86.0 0 0,1 42.265352541879196,-11.944610805530505" fill="none" id="id132" stroke="none" /><text fill="#e1ed5e" style="font-size:6.75px; font-family:Arial;" text-anchor="middle"><textPath startOffset="22.20632615414155" xlink:href="#id132">December</textPath></text></svg>