<?xml version="1.0" encoding="utf-8" ?>
<svg baseProfile="full" height="200mm" version="1.1" viewBox="0,0,200,200" width="200mm" xmlns="http://www.w3.org/2000/svg" xmlns:ev="http://www.w3.org/2001/xml-events" xmlns:xlink="http://www.w3.org/1999/xlink"><defs /><rect fill="#1a1a1a" height="200" width="200" x="0" y="0" /><text alignment-baseline="middle" fill="#e1ed5e" style="dominant-baseline: central; font-size:9.0px; font-family:Arial;" text-anchor="middle" x="100.0" y="100.0">2022</text><line stroke="#e1ed5e" stroke-width="0.3" x1="100.0" x2="100.0" y1="15.0" y2="10.0" /><path d="M 100.0 14.0 a86.0,86.0 0 0,1 42.46469731375804,11.215312516191453" fill="none" id="id121" stroke="none" /><text fill="#e1ed5e" style="font-size:6.75px; font-family:Arial;" text-anchor="middle"><textPath startOffset="22.20632615414155" xlink:href="#id121">January</textPath></text><path d="M 100.0 79.0 l 0.0 -27.811148639295695 a48.811148639295695,48.811148639295695 0 0,0 0.8402036859035823,0.007231898386342604 l -0.47872320663105394 27.807028117517913" fill="#fff316" stroke="none"><animate attributeName="opacity" dur="10s" keyTimes="0;0.05;0.11;0.16;0.21;0.26;0.32;0.37;0.42;0.47;0.53;0.58;0.63;0.68;0.74;0.79;0.84;0.89;0.95;1.0;1" repeatCount="indefinite" values="0;1;1;1;1;1;1;1;1;1;1;1;1;1;1;1;1;1;1;1;1" /></path><path d="M 100.36148047927253 79.00311137660856 l 0.6540694101573573 -37.99215543998277 a58.997785221893075,58.997785221893075 0 0,0 1.0152489600802859,0.026220885362683362 l -1.307945005432511 37.97526776247773" fill="#7aff26" stroke="none"><animate attributeName="opacity" dur="10s" keyTimes="0;0.05;0.11;0.16;0.21;0.26;0.32;0.37;0.42;0.47;0.53;0.58;0.63;0.68;0.74;0.79;0.84;0.89;0.95;1.0;1" repeatCount="indefinite" values="0;0;1;1;1;1;1;1;1;1;1;1;1;1;1;1;1;1;1;1;1" /></path><path d="M 100.72285384407766 79.0124445844662 l 0.9431060355429781 -27.382423633561128 a48.398660059245316,48.398660059245316 0 0,0 0.8323628466889879,0.03584329510018643 l -1.4143097146212975 27.362132611936747" fill="#ffec16" stroke="none"><animate attributeName="opacity" dur="10s" keyTimes="0;0.05;0.11;0.16;0.21;0.26;0.32;0.37;0.42;0.47;0.53;0.58;0.63;0.68;0.74;0.79;0.84;0.89;0.95;1.0;1" repeatCount="indefinite" values="0;0;0;1;1;1;1;1;1;1;1;1;1;1;1;1;1;1;1;1;1" /></path><path d="M 101.08401301168833 79.027996857942 l 1.4334414743995791 -27.73226776885549 a48.769289333074944,48.769289333074944 0 0,0 0.8379909734521397,0.050549903972716755 l -1.9105944966913306 27.70348459550247" fill="#fff216" stroke="none"><animate attributeName="opacity" dur="10s" keyTimes="0;0.05;0.11;0.16;0.21;0.26;0.32;0.37;0.42;0.47;0.53;0.58;0.63;0.68;0.74;0.79;0.84;0.89;0.95;1.0;1" repeatCount="indefinite" values="0;0;0;0;1;1;1;1;1;1;1;1;1;1;1;1;1;1;1;1;1" /></path><path d="M 101.44485096284872 79.0497635885617 l 1.9334546701435615 -28.03495548803415 a49.10154757620221,49.10154757620221 0 0,0 0.8426990220930969,0.06540966283737581 l -2.4157438815989996 27.99752056300831" fill="#fff717" stroke="none"><animate attributeName="opacity" dur="10s" keyTimes="0;0.05;0.11;0.16;0.21;0.26;0.32;0.37;0.42;0.47;0.53;0.58;0.63;0.68;0.74;0.79;0.84;0.89;0.95;1.0;1" repeatCount="indefinite" values="0;0;0;0;0;1;1;1;1;1;1;1;1;1;1;1;1;1;1;1;1" /></path><path d="M 101.80526077348638 79.07773832637324 l 2.3910796643371426 -27.711671994698055 a48.814636914814095,48.814636914814095 0 0,0 0.8365314883740284,0.07943874458347869 l -2.867736279801415 27.666407705599397" fill="#fff316" stroke="none"><animate attributeName="opacity" dur="10s" keyTimes="0;0.05;0.11;0.16;0.21;0.26;0.32;0.37;0.42;0.47;0.53;0.58;0.63;0.68;0.74;0.79;0.84;0.89;0.95;1.0;1" repeatCount="indefinite" values="0;0;0;0;0;0;1;1;1;1;1;1;1;1;1;1;1;1;1;1;1" /></path><path d="M 102.16513564639614 79.11191278185805 l 4.613553346580036 -44.50913033985629 a65.74759834999031,65.74759834999031 0 0,0 1.1247012615040746,0.12637329138072656 l -5.379021311593836 44.423121095004966" fill="#31ff3c" stroke="none"><animate attributeName="opacity" dur="10s" keyTimes="0;0.05;0.11;0.16;0.21;0.26;0.32;0.37;0.42;0.47;0.53;0.58;0.63;0.68;0.74;0.79;0.84;0.89;0.95;1.0;1" repeatCount="indefinite" values="0;0;0;0;0;0;0;1;1;1;1;1;1;1;1;1;1;1;1;1;1" /></path><path d="M 102.52436894288641 79.15227682838746 l 3.3647187215120695 -27.78782580656326 a48.990794828493115,48.990794828493115 0 0,0 0.8363084945099412,0.1085768448018957 l -3.8425419445298568 27.72579063859723" fill="#fff617" stroke="none"><animate attributeName="opacity" dur="10s" keyTimes="0;0.05;0.11;0.16;0.21;0.26;0.32;0.37;0.42;0.47;0.53;0.58;0.63;0.68;0.74;0.79;0.84;0.89;0.95;1.0;1" repeatCount="indefinite" values="0;0;0;0;0;0;0;0;1;1;1;1;1;1;1;1;1;1;1;1;1" /></path><path d="M 102.88285421437855 79.19881850522331 l 5.123030109738174 -36.96512941388576 a58.31844356468536,58.31844356468536 0 0,0 0.9931659253263011,0.14636684052410298 l -5.758565015493131 36.87146808920069" fill="#83ff25" stroke="none"><animate attributeName="opacity" dur="10s" keyTimes="0;0.05;0.11;0.16;0.21;0.26;0.32;0.37;0.42;0.47;0.53;0.58;0.63;0.68;0.74;0.79;0.84;0.89;0.95;1.0;1" repeatCount="indefinite" values="0;0;0;0;0;0;0;0;0;1;1;1;1;1;1;1;1;1;1;1;1" /></path><path d="M 103.2404852339499 79.25152402106235 l 4.213994425727745 -26.981749893985455 a48.3088369646466,48.3088369646466 0 0,0 0.820492915747055,0.13538836135285007 l -4.677816547613675 26.90521526969298" fill="#ffeb16" stroke="none"><animate attributeName="opacity" dur="10s" keyTimes="0;0.05;0.11;0.16;0.21;0.26;0.32;0.37;0.42;0.47;0.53;0.58;0.63;0.68;0.74;0.79;0.84;0.89;0.95;1.0;1" repeatCount="indefinite" values="0;0;0;0;0;0;0;0;0;0;1;1;1;1;1;1;1;1;1;1;1" /></path><path d="M 103.59715602781102 79.31037775812273 l 2.3427174490252356 -13.474516719610248 a34.676656238753075,34.676656238753075 0 0,0 0.5871994353494345,0.10730694352577516 l -2.5743120054775708 13.432194294733733" fill="#ff0601" stroke="none"><animate attributeName="opacity" dur="10s" keyTimes="0;0.05;0.11;0.16;0.21;0.26;0.32;0.37;0.42;0.47;0.53;0.58;0.63;0.68;0.74;0.79;0.84;0.89;0.95;1.0;1" repeatCount="indefinite" values="0;0;0;0;0;0;0;0;0;0;0;1;1;1;1;1;1;1;1;1;1" /></path><path d="M 103.95276090670814 79.375362276772 l 6.489538043522017 -33.86098332221503 a55.47724315495141,55.47724315495141 0 0,0 0.9363332611559415,0.18781964362189615 l -7.071437714145084 33.74425972251593" fill="#aaff21" stroke="none"><animate attributeName="opacity" dur="10s" keyTimes="0;0.05;0.11;0.16;0.21;0.26;0.32;0.37;0.42;0.47;0.53;0.58;0.63;0.68;0.74;0.79;0.84;0.89;0.95;1.0;1" repeatCount="indefinite" values="0;0;0;0;0;0;0;0;0;0;0;0;1;1;1;1;1;1;1;1;1" /></path><path d="M 104.307194497241 79.44645832069477 l 10.860698065078779 -51.82626660809832 a73.95202236925888,73.95202236925888 0 0,0 1.2436521315840396,0.271814186448525 l -11.751192920816347 51.63163892355393" fill="#3dffb1" stroke="none"><animate attributeName="opacity" dur="10s" keyTimes="0;0.05;0.11;0.16;0.21;0.26;0.32;0.37;0.42;0.47;0.53;0.58;0.63;0.68;0.74;0.79;0.84;0.89;0.95;1.0;1" repeatCount="indefinite" values="0;0;0;0;0;0;0;0;0;0;0;0;0;1;1;1;1;1;1;1;1" /></path><path d="M 104.66035177308747 79.52364482259891 l 2.9629572400806694 -13.018451777332189 a34.351374546662605,34.351374546662605 0 0,0 0.5754285659902089,0.13618535021856082 l -3.186609493033402 12.96552051497276" fill="#ff0000" stroke="none"><animate attributeName="opacity" dur="10s" keyTimes="0;0.05;0.11;0.16;0.21;0.26;0.32;0.37;0.42;0.47;0.53;0.58;0.63;0.68;0.74;0.79;0.84;0.89;0.95;1.0;1" repeatCount="indefinite" values="0;0;0;0;0;0;0;0;0;0;0;0;0;0;1;1;1;1;1;1;1" /></path><path d="M 105.01212808612495 79.60689891045804 l 8.512056291776226 -34.63343742523357 a56.66412890008582,56.66412890008582 0 0,0 0.9451876516240977,0.2409493778799395 l -9.106952832085348 34.481785051184765" fill="#99ff23" stroke="none"><animate attributeName="opacity" dur="10s" keyTimes="0;0.05;0.11;0.16;0.21;0.26;0.32;0.37;0.42;0.47;0.53;0.58;0.63;0.68;0.74;0.79;0.84;0.89;0.95;1.0;1" repeatCount="indefinite" values="0;0;0;0;0;0;0;0;0;0;0;0;0;0;0;1;1;1;1;1;1" /></path><path d="M 105.36241919743992 79.69619591428918 l 8.137602145512883 -30.811518757957867 a52.86801306719083,52.86801306719083 0 0,0 0.8778660832894228,0.23995396214641276 l -8.666766118026016 30.66687825498516" fill="#cfff1d" stroke="none"><animate attributeName="opacity" dur="10s" keyTimes="0;0.05;0.11;0.16;0.21;0.26;0.32;0.37;0.42;0.47;0.53;0.58;0.63;0.68;0.74;0.79;0.84;0.89;0.95;1.0;1" repeatCount="indefinite" values="0;0;0;0;0;0;0;0;0;0;0;0;0;0;0;0;1;1;1;1;1" /></path><path d="M 105.71112130821622 79.79150937346287 l 7.300925708817363 -25.833926612523964 a47.84576838957947,47.84576838957947 0 0,0 0.790616651034443,0.2308026805730035 l -7.744532577575233 25.704425603032256" fill="#ffe415" stroke="none"><animate attributeName="opacity" dur="10s" keyTimes="0;0.05;0.11;0.16;0.21;0.26;0.32;0.37;0.42;0.47;0.53;0.58;0.63;0.68;0.74;0.79;0.84;0.89;0.95;1.0;1" repeatCount="indefinite" values="0;0;0;0;0;0;0;0;0;0;0;0;0;0;0;0;0;1;1;1;1" /></path><path d="M 106.0581310904928 79.89281104454417 l 18.174393271478365 -60.321566866367476 a84.0,84.0 0 0,0 1.380858509157127,0.4290394604699177 l -19.21003715334621 59.99978727101504" fill="#4dd2ff" stroke="none"><animate attributeName="opacity" dur="10s" keyTimes="0;0.05;0.11;0.16;0.21;0.26;0.32;0.37;0.42;0.47;0.53;0.58;0.63;0.68;0.74;0.79;0.84;0.89;0.95;1.0;1" repeatCount="indefinite" values="0;0;0;0;0;0;0;0;0;0;0;0;0;0;0;0;0;0;1;1;1" /></path><path d="M 106.74666289553966 80.11325718540242 l 9.264917719301824 -27.30965497090034 a49.83844577946347,49.83844577946347 0 0,0 0.8100361159070318,0.2826056953638908 l -9.733635839272129 27.14612842236424" fill="#fcff18" stroke="none"><animate attributeName="opacity" dur="10s" keyTimes="0;0.05;0.11;0.16;0.21;0.26;0.32;0.37;0.42;0.47;0.53;0.58;0.63;0.68;0.74;0.79;0.84;0.89;0.95;1.0;1" repeatCount="indefinite" values="0;0;0;0;0;0;0;0;0;0;0;0;0;0;0;0;0;0;0;1;1" /></path><line stroke="#e1ed5e" stroke-width="0.3" x1="143.23703022742887" x2="145.7803849466894" y1="26.81831364943548" y2="22.513508569990506" /><path d="M 143.74570117128098 25.957352633546492 a86.0,86.0 0 0,1 28.547481713284135,27.462654790039103" fill="none" id="id122" stroke="none" /><text fill="#e1ed5e" style="font-size:6.75px; font-family:Arial;" text-anchor="middle"><textPath startOffset="19.985693538727396" xlink:href="#id122">February</textPath></text><line stroke="#e1ed5e" stroke-width="0.3" x1="172.23445277983987" x2="176.4835382374775" y1="55.19839476539836" y2="52.563006222186495" /><path d="M 173.08426987136738 54.67131705675599 a86.0,86.0 0 0,1 12.851231095245387,41.99856678651699" fill="none" id="id123" stroke="none" /><text fill="#e1ed5e" style="font-size:6.75px; font-family:Arial;" text-anchor="middle"><textPath startOffset="22.20632615414155" xlink:href="#id123">March</textPath></text><line stroke="#e1ed5e" stroke-width="0.3" x1="184.98032266829074" x2="189.97916517819016" y1="98.17113171792111" y2="98.06355123074" /><path d="M 185.9800911702706 98.14961562048488 a86.0,86.0 0 0,1 -9.607161424134198,41.387399972396054" fill="none" id="id124" stroke="none" /><text fill="#e1ed5e" style="font-size:6.75px; font-family:Arial;" text-anchor="middle"><textPath startOffset="21.466115282336823" xlink:href="#id124">April</textPath></text><line stroke="#e1ed5e" stroke-width="0.3" x1="174.80103733775053" x2="179.2010983576182" y1="140.37084112569926" y2="142.7455964860345" /><path d="M 175.68104954172406 140.8457921977663 a86.0,86.0 0 0,1 -30.038265399797805,32.042727171017184" fill="none" id="id125" stroke="none" /><text fill="#e1ed5e" style="font-size:6.75px; font-family:Arial;" text-anchor="middle"><textPath startOffset="22.206326154141568" xlink:href="#id125">May</textPath></text><line stroke="#e1ed5e" stroke-width="0.3" x1="143.8653032363475" x2="146.44561519142675" y1="172.8068346515853" y2="177.08958963109032" /><path d="M 144.38136562736335 173.6633856474863 a86.0,86.0 0 0,1 -40.68145358897372,12.25698825130547" fill="none" id="id126" stroke="none" /><text fill="#e1ed5e" style="font-size:6.75px; font-family:Arial;" text-anchor="middle"><textPath startOffset="21.466115282336833" xlink:href="#id126">June</textPath></text><line stroke="#e1ed5e" stroke-width="0.3" x1="102.19456741930631" x2="102.32365962044197" y1="184.97166512339345" y2="189.96999836594603" /><path d="M 102.22038585953345 185.97133177190398 a86.0,86.0 0 0,1 -42.740103519485714,-10.115201625700543" fill="none" id="id127" stroke="none" /><text fill="#e1ed5e" style="font-size:6.75px; font-family:Arial;" text-anchor="middle"><textPath startOffset="22.20632615414155" xlink:href="#id127">July</textPath></text><line stroke="#e1ed5e" stroke-width="0.3" x1="58.666819895761336" x2="56.23545636021788" y1="174.27360380694188" y2="178.64263932499728" /><path d="M 58.180547188652646 175.14741091055294 a86.0,86.0 0 0,1 -31.652253787137756,-30.449443065178592" fill="none" id="id128" stroke="none" /><text fill="#e1ed5e" style="font-size:6.75px; font-family:Arial;" text-anchor="middle"><textPath startOffset="22.20632615414155" xlink:href="#id128">August</textPath></text><line stroke="#e1ed5e" stroke-width="0.3" x1="26.63291911575756" x2="22.317208475507996" y1="142.92168965132927" y2="145.44649492493687" /><path d="M 25.769776987707644 143.4266507060508 a86.0,86.0 0 0,1 -11.730757126820373,-40.83630448921669" fill="none" id="id129" stroke="none" /><text fill="#e1ed5e" style="font-size:6.75px; font-family:Arial;" text-anchor="middle"><textPath startOffset="21.46611528233685" xlink:href="#id129">September</textPath></text><line stroke="#e1ed5e" stroke-width="0.3" x1="15.007084014347285" x2="10.007500721073583" y1="101.09737516637583" y2="101.16192664675087" /><path d="M 14.007167355692545 101.11028546245083 a86.0,86.0 0 0,1 10.666146001902534,-42.60595125391555" fill="none" id="id130" stroke="none" /><text fill="#e1ed5e" style="font-size:6.75px; font-family:Arial;" text-anchor="middle"><textPath startOffset="22.20632615414155" xlink:href="#id130">October</textPath></text><line stroke="#e1ed5e" stroke-width="0.3" x1="26.266209847984243" x2="21.928928074336255" y1="57.711370442889674" y2="55.22380399835377" /><path d="M 25.398753493254645 57.213857153982495 a86.0,86.0 0 0,1 29.58750427330803,-30.492523968695096" fill="none" id="id131" stroke="none" /><text fill="#e1ed5e" style="font-size:6.75px; font-family:Arial;" text-anchor="middle"><textPath startOffset="21.46611528233685" xlink:href="#id131">November</textPath></text><line stroke="#e1ed5e" stroke-width="0.3" x1="56.762969772571076" x2="54.21961505331055" y1="26.818313649435495" y2="22.513508569990535" /><path d="M 56.25429882871897 25.957352633546506 a86.0,86.0 0 0,1 42.265352541879196,-11.944610805530505" fill="none" id="id132" stroke="none" /><text fill="#e1ed5e" style="font-size:6.75px; font-family:Arial;" text-anchor="middle"><textPath startOffset="22.20632615414155" xlink:href="#id132">December</textPath></text></svg>