<?xml version="1.0" encoding="utf-8" ?>
<svg baseProfile="full" height="200mm" version="1.1" viewBox="0,0,200,200" width="200mm" xmlns="http://www.w3.org/2000/svg" xmlns:ev="http://www.w3.org/2001/xml-events" xmlns:xlink="http://www.w3.org/1999/xlink"><defs /><rect fill="#1a1a1a" height="200" width="200" x="0" y="0" /><text alignment-baseline="middle" fill="#e1ed5e" style="dominant-baseline: central; font-size:9.0px; font-family:Arial;" text-anchor="middle" x="100.0" y="100.0">2022</text><line stroke="#e1ed5e" stroke-width="0.3" x1="100.0" x2="100.0" y1="15.0" y2="10.0" /><path d="M 100.0 14.0 a86.0,86.0 0 0,1 42.46469731375804,11.215312516191453" fill="none" id="id121" stroke="none" /><text fill="#e1ed5e" style="font-size:6.75px; font-family:Arial;" text-anchor="middle"><textPath startOffset="22.20632615414155" xlink:href="#id121">January</textPath></text><path d="M 100.0 79.0 l 0.0 -25.94572291957229 a46.94572291957229,46.94572291957229 0 0,0 0.8080934486077291,0.006955515436373486 l -0.4466129693352007 25.941878780744474" fill="#ffe015" stroke="none"><animate attributeName="opacity" dur="10s" keyTimes="0;0.05;0.11;0.16;0.21;0.26;0.32;0.37;0.42;0.47;0.53;0.58;0.63;0.68;0.74;0.79;0.84;0.89;0.95;1.0;1" repeatCount="indefinite" values="0;1;1;1;1;1;1;1;1;1;1;1;1;1;1;1;1;1;1;1;1" /></path><path d="M 100.36148047927253 79.00311137660856 l 0.6101978708686892 -35.443841279188426 a56.44909344490934,56.44909344490934 0 0,0 0.9713904208755342,0.025088148690319174 l -1.2202149269390912 35.42808633835575" fill="#95ff23" stroke="none"><animate attributeName="opacity" dur="10s" keyTimes="0;0.05;0.11;0.16;0.21;0.26;0.32;0.37;0.42;0.47;0.53;0.58;0.63;0.68;0.74;0.79;0.84;0.89;0.95;1.0;1" repeatCount="indefinite" values="0;0;1;1;1;1;1;1;1;1;1;1;1;1;1;1;1;1;1;1;1" /></path><path d="M 100.72285384407766 79.0124445844662 l 0.879847438138538 -25.545754534528168 a46.560901906090194,46.560901906090194 0 0,0 0.8007569797907391,0.03448227998684076 l -1.3194452503186087 25.52682452801713" fill="#ffda14" stroke="none"><animate attributeName="opacity" dur="10s" keyTimes="0;0.05;0.11;0.16;0.21;0.26;0.32;0.37;0.42;0.47;0.53;0.58;0.63;0.68;0.74;0.79;0.84;0.89;0.95;1.0;1" repeatCount="indefinite" values="0;0;0;1;1;1;1;1;1;1;1;1;1;1;1;1;1;1;1;1;1" /></path><path d="M 101.08401301168833 79.027996857942 l 1.3372937521769512 -25.87213296344928 a46.90667131566713,46.90667131566713 0 0,0 0.8059860558713845,0.048619279942606855 l -1.7824418568879474 25.845280414126368" fill="#ffdf14" stroke="none"><animate attributeName="opacity" dur="10s" keyTimes="0;0.05;0.11;0.16;0.21;0.26;0.32;0.37;0.42;0.47;0.53;0.58;0.63;0.68;0.74;0.79;0.84;0.89;0.95;1.0;1" repeatCount="indefinite" values="0;0;0;0;1;1;1;1;1;1;1;1;1;1;1;1;1;1;1;1;1" /></path><path d="M 101.44485096284872 79.0497635885617 l 1.8037686900215815 -26.154517980868892 a47.216643421664344,47.216643421664344 0 0,0 0.8103495959308527,0.06289872476484863 l -2.2537084753147756 26.11959399391558" fill="#ffe415" stroke="none"><animate attributeName="opacity" dur="10s" keyTimes="0;0.05;0.11;0.16;0.21;0.26;0.32;0.37;0.42;0.47;0.53;0.58;0.63;0.68;0.74;0.79;0.84;0.89;0.95;1.0;1" repeatCount="indefinite" values="0;0;0;0;0;1;1;1;1;1;1;1;1;1;1;1;1;1;1;1;1" /></path><path d="M 101.80526077348638 79.07773832637324 l 2.230698604151091 -25.85291864560381 a46.94897721989772,46.94897721989772 0 0,0 0.8045598671549387,0.07640265390758604 l -2.675383598396274 25.81069044718105" fill="#ffe015" stroke="none"><animate attributeName="opacity" dur="10s" keyTimes="0;0.05;0.11;0.16;0.21;0.26;0.32;0.37;0.42;0.47;0.53;0.58;0.63;0.68;0.74;0.79;0.84;0.89;0.95;1.0;1" repeatCount="indefinite" values="0;0;0;0;0;0;1;1;1;1;1;1;1;1;1;1;1;1;1;1;1" /></path><path d="M 102.16513564639614 79.11191278185805 l 4.3041004295629275 -41.52369174559504 a62.74616457461645,62.74616457461645 0 0,0 1.073357692488608,0.12060424316338841 l -5.018224825561261 41.44345154896105" fill="#45ff2d" stroke="none"><animate attributeName="opacity" dur="10s" keyTimes="0;0.05;0.11;0.16;0.21;0.26;0.32;0.37;0.42;0.47;0.53;0.58;0.63;0.68;0.74;0.79;0.84;0.89;0.95;1.0;1" repeatCount="indefinite" values="0;0;0;0;0;0;0;1;1;1;1;1;1;1;1;1;1;1;1;1;1" /></path><path d="M 102.52436894288641 79.15227682838746 l 3.1390310692633268 -25.92396445991197 a47.11331938633194,47.11331938633194 0 0,0 0.8042586233859886,0.1044158516925464 l -3.5848044211571612 25.866090285055286" fill="#ffe315" stroke="none"><animate attributeName="opacity" dur="10s" keyTimes="0;0.05;0.11;0.16;0.21;0.26;0.32;0.37;0.42;0.47;0.53;0.58;0.63;0.68;0.74;0.79;0.84;0.89;0.95;1.0;1" repeatCount="indefinite" values="0;0;0;0;0;0;0;0;1;1;1;1;1;1;1;1;1;1;1;1;1" /></path><path d="M 102.88285421437855 79.19881850522331 l 4.779404168444977 -34.48570276251273 a55.81531845653185,55.81531845653185 0 0,0 0.9505375832051787,0.14008453099863338 l -5.3723107320788115 34.398323747353125" fill="#9eff22" stroke="none"><animate attributeName="opacity" dur="10s" keyTimes="0;0.05;0.11;0.16;0.21;0.26;0.32;0.37;0.42;0.47;0.53;0.58;0.63;0.68;0.74;0.79;0.84;0.89;0.95;1.0;1" repeatCount="indefinite" values="0;0;0;0;0;0;0;0;0;1;1;1;1;1;1;1;1;1;1;1;1" /></path><path d="M 103.2404852339499 79.25152402106235 l 3.931341821677564 -25.17195588410168 a46.47710367271037,46.47710367271037 0 0,0 0.7893821649195909,0.13025482089911908 l -4.36405319273603 25.100554800262938" fill="#ffd914" stroke="none"><animate attributeName="opacity" dur="10s" keyTimes="0;0.05;0.11;0.16;0.21;0.26;0.32;0.37;0.42;0.47;0.53;0.58;0.63;0.68;0.74;0.79;0.84;0.89;0.95;1.0;1" repeatCount="indefinite" values="0;0;0;0;0;0;0;0;0;0;1;1;1;1;1;1;1;1;1;1;1" /></path><path d="M 103.59715602781102 79.31037775812273 l 2.185580272127708 -12.570716938608452 a33.7592980009298,33.7592980009298 0 0,0 0.5716652893938916,0.10446817764416182 l -2.4016406826245 12.531233279613552" fill="#ff0500" stroke="none"><animate attributeName="opacity" dur="10s" keyTimes="0;0.05;0.11;0.16;0.21;0.26;0.32;0.37;0.42;0.47;0.53;0.58;0.63;0.68;0.74;0.79;0.84;0.89;0.95;1.0;1" repeatCount="indefinite" values="0;0;0;0;0;0;0;0;0;0;0;1;1;1;1;1;1;1;1;1;1" /></path><path d="M 103.95276090670814 79.375362276772 l 6.0542539302148555 -31.58976648023475 a53.16469084146908,53.16469084146908 0 0,0 0.8973024887862916,0.17999043786698696 l -6.597122828468272 31.480872086290557" fill="#c3ff1e" stroke="none"><animate attributeName="opacity" dur="10s" keyTimes="0;0.05;0.11;0.16;0.21;0.26;0.32;0.37;0.42;0.47;0.53;0.58;0.63;0.68;0.74;0.79;0.84;0.89;0.95;1.0;1" repeatCount="indefinite" values="0;0;0;0;0;0;0;0;0;0;0;0;1;1;1;1;1;1;1;1;1" /></path><path d="M 104.307194497241 79.44645832069477 l 10.132219505364702 -48.35003296015081 a70.40027894002789,70.40027894002789 0 0,0 1.1839224156805717,0.25875958402170035 l -10.962984645198802 48.16845987803325" fill="#38ff83" stroke="none"><animate attributeName="opacity" dur="10s" keyTimes="0;0.05;0.11;0.16;0.21;0.26;0.32;0.37;0.42;0.47;0.53;0.58;0.63;0.68;0.74;0.79;0.84;0.89;0.95;1.0;1" repeatCount="indefinite" values="0;0;0;0;0;0;0;0;0;0;0;0;0;1;1;1;1;1;1;1;1" /></path><path d="M 104.66035177308747 79.52364482259891 l 2.7642176369893545 -12.145242436309104 a33.455834495583446,33.455834495583446 0 0,0 0.5604271480213507,0.1326349992617077 l -2.972868471973229 12.095861524906528" fill="#ff0000" stroke="none"><animate attributeName="opacity" dur="10s" keyTimes="0;0.05;0.11;0.16;0.21;0.26;0.32;0.37;0.42;0.47;0.53;0.58;0.63;0.68;0.74;0.79;0.84;0.89;0.95;1.0;1" repeatCount="indefinite" values="0;0;0;0;0;0;0;0;0;0;0;0;0;0;1;1;1;1;1;1;1" /></path><path d="M 105.01212808612495 79.60689891045804 l 7.9411122815034085 -32.31040842080846 a54.271966527196646,54.271966527196646 0 0,0 0.9052851175267064,0.23077733347153118 l -8.49610628771514 32.168928091168056" fill="#b3ff20" stroke="none"><animate attributeName="opacity" dur="10s" keyTimes="0;0.05;0.11;0.16;0.21;0.26;0.32;0.37;0.42;0.47;0.53;0.58;0.63;0.68;0.74;0.79;0.84;0.89;0.95;1.0;1" repeatCount="indefinite" values="0;0;0;0;0;0;0;0;0;0;0;0;0;0;0;1;1;1;1;1;1" /></path><path d="M 105.36241919743992 79.69619591428918 l 7.591774551838185 -28.74484397583026 a50.73047419804742,50.73047419804742 0 0,0 0.8423725444543433,0.23025223720658844 l -8.085444985516238 28.609905197797378" fill="#e5ff1a" stroke="none"><animate attributeName="opacity" dur="10s" keyTimes="0;0.05;0.11;0.16;0.21;0.26;0.32;0.37;0.42;0.47;0.53;0.58;0.63;0.68;0.74;0.79;0.84;0.89;0.95;1.0;1" repeatCount="indefinite" values="0;0;0;0;0;0;0;0;0;0;0;0;0;0;0;0;1;1;1;1;1" /></path><path d="M 105.71112130821622 79.79150937346287 l 6.811217974280489 -24.101122557233797 a46.04509530450953,46.04509530450953 0 0,0 0.7608618331677095,0.22211643330687497 l -7.225070025171626 23.980307795008216" fill="#ffd213" stroke="none"><animate attributeName="opacity" dur="10s" keyTimes="0;0.05;0.11;0.16;0.21;0.26;0.32;0.37;0.42;0.47;0.53;0.58;0.63;0.68;0.74;0.79;0.84;0.89;0.95;1.0;1" repeatCount="indefinite" values="0;0;0;0;0;0;0;0;0;0;0;0;0;0;0;0;0;1;1;1;1" /></path><path d="M 106.0581310904928 79.89281104454417 l 16.9553504664257 -56.27551311483186 a79.77429102742911,79.77429102742911 0 0,0 1.3113929592524112,0.4074561759735522 l -17.921528798388827 55.97531680397579" fill="#47fffb" stroke="none"><animate attributeName="opacity" dur="10s" keyTimes="0;0.05;0.11;0.16;0.21;0.26;0.32;0.37;0.42;0.47;0.53;0.58;0.63;0.68;0.74;0.79;0.84;0.89;0.95;1.0;1" repeatCount="indefinite" values="0;0;0;0;0;0;0;0;0;0;0;0;0;0;0;0;0;0;1;1;1" /></path><path d="M 106.74666289553966 80.11325718540242 l 20.239988686618958 -59.66022844379275 a84.0,84.0 0 0,0 1.3652719837469054,0.4763165873111701 l -21.26394267442914 59.302991003309366" fill="#4dd2ff" stroke="none"><animate attributeName="opacity" dur="10s" keyTimes="0;0.05;0.11;0.16;0.21;0.26;0.32;0.37;0.42;0.47;0.53;0.58;0.63;0.68;0.74;0.79;0.84;0.89;0.95;1.0;1" repeatCount="indefinite" values="0;0;0;0;0;0;0;0;0;0;0;0;0;0;0;0;0;0;0;1;1" /></path><line stroke="#e1ed5e" stroke-width="0.3" x1="143.23703022742887" x2="145.7803849466894" y1="26.81831364943548" y2="22.513508569990506" /><path d="M 143.74570117128098 25.957352633546492 a86.0,86.0 0 0,1 28.547481713284135,27.462654790039103" fill="none" id="id122" stroke="none" /><text fill="#e1ed5e" style="font-size:6.75px; font-family:Arial;" text-anchor="middle"><textPath startOffset="19.985693538727396" xlink:href="#id122">February</textPath></text><line stroke="#e1ed5e" stroke-width="0.3" x1="172.23445277983987" x2="176.4835382374775" y1="55.19839476539836" y2="52.563006222186495" /><path d="M 173.08426987136738 54.67131705675599 a86.0,86.0 0 0,1 12.851231095245387,41.99856678651699" fill="none" id="id123" stroke="none" /><text fill="#e1ed5e" style="font-size:6.75px; font-family:Arial;" text-anchor="middle"><textPath startOffset="22.20632615414155" xlink:href="#id123">March</textPath></text><line stroke="#e1ed5e" stroke-width="0.3" x1="184.98032266829074" x2="189.97916517819016" y1="98.17113171792111" y2="98.06355123074" /><path d="M 185.9800911702706 98.14961562048488 a86.0,86.0 0 0,1 -9.607161424134198,41.387399972396054" fill="none" id="id124" stroke="none" /><text fill="#e1ed5e" style="font-size:6.75px; font-family:Arial;" text-anchor="middle"><textPath startOffset="21.466115282336823" xlink:href="#id124">April</textPath></text><line stroke="#e1ed5e" stroke-width="0.3" x1="174.80103733775053" x2="179.2010983576182" y1="140.37084112569926" y2="142.7455964860345" /><path d="M 175.68104954172406 140.8457921977663 a86.0,86.0 0 0,1 -30.038265399797805,32.042727171017184" fill="none" id="id125" stroke="none" /><text fill="#e1ed5e" style="font-size:6.75px; font-family:Arial;" text-anchor="middle"><textPath startOffset="22.206326154141568" xlink:href="#id125">May</textPath></text><line stroke="#e1ed5e" stroke-width="0.3" x1="143.8653032363475" x2="146.44561519142675" y1="172.8068346515853" y2="177.08958963109032" /><path d="M 144.38136562736335 173.6633856474863 a86.0,86.0 0 0,1 -40.68145358897372,12.25698825130547" fill="none" id="id126" stroke="none" /><text fill="#e1ed5e" style="font-size:6.75px; font-family:Arial;" text-anchor="middle"><textPath startOffset="21.466115282336833" xlink:href="#id126">June</textPath></text><line stroke="#e1ed5e" stroke-width="0.3" x1="102.19456741930631" x2="102.32365962044197" y1="184.97166512339345" y2="189.96999836594603" /><path d="M 102.22038585953345 185.97133177190398 a86.0,86.0 0 0,1 -42.740103519485714,-10.115201625700543" fill="none" id="id127" stroke="none" /><text fill="#e1ed5e" style="font-size:6.75px; font-family:Arial;" text-anchor="middle"><textPath startOffset="22.20632615414155" xlink:href="#id127">July</textPath></text><line stroke="#e1ed5e" stroke-width="0.3" x1="58.666819895761336" x2="56.23545636021788" y1="174.27360380694188" y2="178.64263932499728" /><path d="M 58.180547188652646 175.14741091055294 a86.0,86.0 0 0,1 -31.652253787137756,-30.449443065178592" fill="none" id="id128" stroke="none" /><text fill="#e1ed5e" style="font-size:6.75px; font-family:Arial;" text-anchor="middle"><textPath startOffset="22.20632615414155" xlink:href="#id128">August</textPath></text><line stroke="#e1ed5e" stroke-width="0.3" x1="26.63291911575756" x2="22.317208475507996" y1="142.92168965132927" y2="145.44649492493687" /><path d="M 25.769776987707644 143.4266507060508 a86.0,86.0 0 0,1 -11.730757126820373,-40.83630448921669" fill="none" id="id129" stroke="none" /><text fill="#e1ed5e" style="font-size:6.75px; font-family:Arial;" text-anchor="middle"><textPath startOffset="21.46611528233685" xlink:href="#id129">September</textPath></text><line stroke="#e1ed5e" stroke-width="0.3" x1="15.007084014347285" x2="10.007500721073583" y1="101.09737516637583" y2="101.16192664675087" /><path d="M 14.007167355692545 101.11028546245083 a86.0,86.0 0 0,1 10.666146001902534,-42.60595125391555" fill="none" id="id130" stroke="none" /><text fill="#e1ed5e" style="font-size:6.75px; font-family:Arial;" text-anchor="middle"><textPath startOffset="22.20632615414155" xlink:href="#id130">October</textPath></text><line stroke="#e1ed5e" stroke-width="0.3" x1="26.266209847984243" x2="21.928928074336255" y1="57.711370442889674" y2="55.22380399835377" /><path d="M 25.398753493254645 57.213857153982495 a86.0,86.0 0 0,1 29.58750427330803,-30.492523968695096" fill="none" id="id131" stroke="none" /><text fill="#e1ed5e" style="font-size:6.75px; font-family:Arial;" text-anchor="middle"><textPath startOffset="21.46611528233685" xlink:href="#id131">November</textPath></text><line stroke="#e1ed5e" stroke-width="0.3" x1="56.762969772571076" x2="54.21961505331055" y1="26.818313649435495" y2="22.513508569990535" /><path d="M 56.25429882871897 25.957352633546506 a86.0,86.0 0 0,1 42.265352541879196,-11.944610805530505" fill="none" id="id132" stroke="none" /><text fill="#e1ed5e" style="font-size:6.75px; font-family:Arial;" text-anchor="middle"><textPath startOffset="22.20632615414155" xlink:href="#id132">December</textPath></text></svg>