<?xml version="1.0" encoding="utf-8" ?>
<svg baseProfile="full" height="200mm" version="1.1" viewBox="0,0,200,200" width="200mm" xmlns="http://www.w3.org/2000/svg" xmlns:ev="http://www.w3.org/2001/xml-events" xmlns:xlink="http://www.w3.org/1999/xlink"><defs /><rect fill="#1a1a1a" height="200" width="200" x="0" y="0" /><text alignment-baseline="middle" fill="#e1ed5e" style="dominant-baseline: central; font-size:9.0px; font-family:Arial;" text-anchor="middle" x="100.0" y="100.0">2021</text><line stroke="#e1ed5e" stroke-width="0.3" x1="100.0" x2="100.0" y1="15.0" y2="10.0" /><path d="M 100.0 14.0 a86.0,86.0 0 0,1 42.46469731375804,11.215312516191453" fill="none" id="id109" stroke="none" /><text fill="#e1ed5e" style="font-size:6.75px; font-family:Arial;" text-anchor="middle"><textPath startOffset="22.20632615414155" xlink:href="#id109">January</textPath></text><path d="M 100.0 79.0 l 0.0 -16.758707764455067 a37.75870776445507,37.75870776445507 0 0,0 0.6499540847336456,0.005594360005130269 l -0.28847360546111717 16.756224781058496" fill="#ffbf11" stroke="none" /><path d="M 100.36148047927253 79.00311137660856 l 0.31293086289528693 -18.176844537379324 a39.17953803211206,39.17953803211206 0 0,0 0.6742114995321421,0.017412893915239407 l -0.6257689976222969 18.168764851321725" fill="#ffd213" stroke="none" /><path d="M 100.72285384407766 79.0124445844662 l 1.1710300227408486 -34.00003707096133 a55.020197414784434,55.020197414784434 0 0,0 0.9462404142903904,0.040747102708929506 l -1.7561112694205705 33.97484224172821" fill="#6eff28" stroke="none" /><path d="M 101.08401301168833 79.027996857942 l 0.4329129861412478 -8.375409158098122 a29.386590023312433,29.386590023312433 0 0,0 0.50494271121916,0.03045952327947073 l -0.5770177462000197 8.366716365438348" fill="#ff4b07" stroke="none" /><path d="M 101.44485096284872 79.0497635885617 l 0.9463967489699421 -13.72268568852587 a34.755281506117335,34.755281506117335 0 0,0 0.5964830679180131,0.04629856608094001 l -1.1824700062502962 13.704361860256464" fill="#ff970d" stroke="none" /><path d="M 101.80526077348638 79.07773832637324 l 0.8796317601372632 -10.194585808499319 a31.23246460244539,31.23246460244539 0 0,0 0.5352275823554039,0.05082630815416867 l -1.0549844695829111 10.177933955829973" fill="#ff6609" stroke="none" /><path d="M 102.16513564639614 79.11191278185805 l 1.0514167485746204 -10.143514464508392 a31.197860700699643,31.197860700699643 0 0,0 0.5336814449027012,0.0599653286162264 l -1.225864896987047 10.123913182421566" fill="#ff6509" stroke="none" /><path d="M 102.52436894288641 79.15227682838746 l 0.8393158371408713 -6.9315637381657105 a27.982193561534174,27.982193561534174 0 0,0 0.4776763931358371,0.06201610523330944 l -0.9585069587845545 6.916089309768264" fill="#ff3705" stroke="none" /><path d="M 102.88285421437855 79.19881850522331 l 0.740964838023719 -5.3464181435555735 a26.39751941700331,26.39751941700331 0 0,0 0.44955103729796425,0.06625213703542845 l -0.8328848557503391 5.332871522359176" fill="#ff1f03" stroke="none" /><path d="M 103.2404852339499 79.25152402106235 l 5.774702392362848 -36.974793965472706 a58.423022011985054,58.423022011985054 0 0,0 0.9922755067038419,0.1637339607507566 l -6.410307105205566 36.86991374178232" fill="#4aff2c" stroke="none" /><path d="M 103.59715602781102 79.31037775812273 l 0.8900786392536624 -5.119430647251828 a26.196230377502225,26.196230377502225 0 0,0 0.4435955871881994,0.08106425816700681 l -0.9780693475447626 5.103350907734082" fill="#ff1c02" stroke="none" /><path d="M 103.95276090670814 79.375362276772 l 2.545278463964544 -13.280703655744599 a34.522408515158446,34.522408515158446 0 0,0 0.5826619620890616,0.11687650819591724 l -2.7735068355207306 13.234923191471474" fill="#ff940d" stroke="none" /><path d="M 104.307194497241 79.44645832069477 l 3.768019212132785 -17.980646096804442 a39.371216694643024,39.371216694643024 0 0,0 0.6621062683162511,0.14471078535090273 l -4.076968204602564 17.91312181335767" fill="#ffd513" stroke="none" /><path d="M 104.66035177308747 79.52364482259891 l 1.478751110221869 -6.49724193069209 a27.663396847849143,27.663396847849143 0 0,0 0.4633965594870914,0.10967099388823094 l -1.5903713566714837 6.470825024662991" fill="#ff3204" stroke="none" /><path d="M 105.01212808612495 79.60689891045804 l 1.2856466084882896 -5.230975905206514 a26.38664980509858,26.38664980509858 0 0,0 0.44014328019557375,0.11220232232079191 l -1.3754987773688883 5.208070586716855" fill="#ff1f03" stroke="none" /><path d="M 105.36241919743992 79.69619591428918 l 9.379025681512976 -35.511938351108974 a57.7296050644088,57.7296050644088 0 0,0 0.958592149535281,0.2620194454962248 l -9.988915720271969 35.34523236478646" fill="#51ff2b" stroke="none" /><path d="M 105.71112130821622 79.79150937346287 l 3.0446462673190906 -10.773314421762185 a32.195274651532635,32.195274651532635 0 0,0 0.5320035831982288,0.1553064344343601 l -3.2296400682407467 10.719309658409122" fill="#ff730a" stroke="none" /><path d="M 106.0581310904928 79.89281104454417 l 1.9052531467749794 -6.323614404828786 a27.60439919252721,27.60439919252721 0 0,0 0.45378297041870624,0.14099257781140603 l -2.013821489904404 6.289881692134859" fill="#ff3104" stroke="none" /><path d="M 106.40334571778207 80.00007090966166 l 5.872142518920269 -18.340792323711167 a40.25790021845616,40.25790021845616 0 0,0 0.6581537469260349,0.21698294261287301 l -6.18697908808872 18.236995656839056" fill="#ffe015" stroke="none" /><path d="M 106.74666289553966 80.11325718540242 l 3.373073183958301 -9.942610138197658 a31.499196115157076,31.499196115157076 0 0,0 0.5119639281734919,0.17861416186448673 l -3.5437191161950663 9.883075123160964" fill="#ff6909" stroke="none" /><path d="M 107.08798089147638 80.2323363322302 l 5.63080591450231 -15.703749657426894 a37.682737441736876,37.682737441736876 0 0,0 0.6086976454051731,0.22418847981346957 l -5.900285885680059 15.6044979098071" fill="#ffbe11" stroke="none" /><path d="M 107.4271985657038 80.35727306442388 l 12.555956492634497 -33.20676330624296 a56.501284099617784,56.501284099617784 0 0,0 0.9067563781289439,0.35180738740847917 l -13.125696035763108 32.985713214943935" fill="#5eff2a" stroke="none" /><path d="M 107.76421540070413 80.48803036053334 l 6.314823339776022 -15.869554736094889 a38.07980565856918,38.07980565856918 0 0,0 0.6069488188982144,0.24758966280583608 l -6.587056028262624 15.758504187105475" fill="#ffc412" stroke="none" /><path d="M 108.09893153111575 80.62456947434976 l 12.959053727615677 -31.00251486420398 a54.60197912951585,54.60197912951585 0 0,0 0.8640535486443971,0.3699426364149218 l -13.490791034050389 30.77485269982627" fill="#73ff27" stroke="none" /><path d="M 108.43124777332544 80.76684994638697 l 1.436394076594834 -3.276665987527139 a24.5776763320756,24.5776763320756 0 0,0 0.38600748289782527,0.17319030572820093 l -1.4925836779594395 3.2514553512824067" fill="#ff0400" stroke="none" /><path d="M 108.76106565485865 80.91482961587045 l 5.648325281897135 -12.304353675310136 a34.53885880926588,34.53885880926588 0 0,0 0.5381841504399343,0.25268467489314533 l -5.859287643636668 12.205304017776987" fill="#ff940d" stroke="none" /><path d="M 109.08828744355905 81.06846463323043 l 2.1955856309413613 -4.573557700619987 a26.073265842009125,26.073265842009125 0 0,0 0.40292971088606705,0.19771585922727133 l -2.27398660883786 4.535086681257884" fill="#ff1a02" stroke="none" /><path d="M 109.41281617654863 81.2277094730956 l 6.7599224209676425 -13.481536794684263 a36.08139202739345,36.08139202739345 0 0,0 0.55280045133393,0.2831658620592567 l -6.990983359890328 13.363178407312505" fill="#ffa90f" stroke="none" /><path d="M 109.73455568895987 81.39251694778311 l 15.465629989364455 -29.562360842552767 a54.36343641703034,54.36343641703034 0 0,0 0.8254309994911108,0.44091665344235836 l -15.972206035383877 29.291765462608655" fill="#75ff27" stroke="none" /><path d="M 110.05341064243156 81.56283822128135 l 4.2867051994437295 -7.861479061269382 a29.95425566408034,29.95425566408034 0 0,0 0.45056322828859663,0.2507379487281472 l -4.421392516804361 7.786525714981055" fill="#ff5307" stroke="none" /><path d="M 110.36928655335952 81.73862282372117 l 4.963934040611187 -8.741996985742647 a31.05301708236249,31.05301708236249 0 0,0 0.46254691477014115,0.26793702837237415 l -5.113677687846657 8.655255799980223" fill="#ff6309" stroke="none" /><line stroke="#e1ed5e" stroke-width="0.3" x1="143.23703022742887" x2="145.7803849466894" y1="26.81831364943548" y2="22.513508569990506" /><path d="M 143.74570117128098 25.957352633546492 a86.0,86.0 0 0,1 28.547481713284135,27.462654790039103" fill="none" id="id110" stroke="none" /><text fill="#e1ed5e" style="font-size:6.75px; font-family:Arial;" text-anchor="middle"><textPath startOffset="19.985693538727396" xlink:href="#id110">February</textPath></text><path d="M 110.68208982089419 81.91981866633111 l 6.78935618348356 -11.491458412579915 a34.34724592694164,34.34724592694164 0 0,0 0.5064385838063273,0.3051235801633216 l -6.986156833507525 11.372888222957979" fill="#ff910d" stroke="none" /><path d="M 110.99172775467656 82.1063720568725 l 2.744130280794694 -4.467218199715603 a26.242736827444677,26.242736827444677 0 0,0 0.3828700930125773,0.23975321711990608 l -2.8206195261795344 4.419320641272753" fill="#ff1d02" stroke="none" /><path d="M 111.2981086023043 82.29822771554956 l 9.002042038911835 -14.104316384015531 a37.73225930742005,37.73225930742005 0 0,0 0.5444818458002988,0.3541461382563883 l -9.243490910496414 13.947271321599615" fill="#ffbf11" stroke="none" /><path d="M 111.60114157652 82.49532879139004 l 5.568319406704678 -8.40189732673929 a31.07958628635882,31.07958628635882 0 0,0 0.44339515005618674,0.2993823845912382 l -5.712119251167406 8.304803029849381" fill="#ff6309" stroke="none" /><path d="M 111.90073688211348 82.69761687909136 l 1.8855759022022611 -2.741423240143308 a24.327280851470718,24.327280851470718 0 0,0 0.34297858660587643,0.24027841823493798 l -1.9324856283917886 2.7085599791444346" fill="#ff0000" stroke="none" /><path d="M 112.19680574252982 82.90503203632743 l 3.156174054415898 -4.4236741559207005 a26.434181419453054,26.434181419453054 0 0,0 0.36813334116536667,0.2674645283333439 l -3.231852711935053 4.368690392770682" fill="#ff2003" stroke="none" /><path d="M 112.48926042617603 83.11751280151076 l 12.993326993759277 -17.563864404506575 a42.84756002821932,42.84756002821932 0 0,0 0.5891617981055666,0.44374445172809857 l -13.293734945623227 17.337603363272628" fill="#fdff18" stroke="none" /><path d="M 112.77801427241765 83.33499621200491 l 24.886193340762937 -32.45641282369021 a61.899160778378274,61.899160778378274 0 0,0 0.8399640802280983,0.6556052879075013 l -25.441189976150465 32.02322914655948" fill="#30ff3a" stroke="none" /><path d="M 113.06298171725822 83.55741782278167 l 6.927804434343836 -8.720137269188854 a32.137112205325515,32.137112205325515 0 0,0 0.4301730009937435,0.34783665027661953 l -7.07688083390207 8.599594521648104" fill="#ff720a" stroke="none" /><path d="M 113.34407831869373 83.78471172551755 l 2.480345510134249 -3.0140348779879034 a24.90339853145572,24.90339853145572 0 0,0 0.32865662890934944,0.27524047505292054 l -2.5318596760027154 2.9708932455411636" fill="#ff0901" stroke="none" /><path d="M 113.6212207817346 84.01681056812373 l 3.5846995534137776 -4.206299342523276 a26.526574440569554,26.526574440569554 0 0,0 0.34497961811322797,0.2991629253421843 l -3.65657297017377 4.14397142376142" fill="#ff2103" stroke="none" /><path d="M 113.89432698308785 84.25364557470407 l 11.126629696185171 -12.609740289573757 a37.81687957281402,37.81687957281402 0 0,0 0.4843964327853629,0.43489590009936635 l -11.342037116566523 12.416345380705092" fill="#ffc011" stroke="none" /><path d="M 114.16331599549186 84.49514656593476 l 42.48994798647556 -46.51456030219571 a84.0,84.0 0 0,0 1.0591684648206128,0.984381655701438 l -43.28432433509102 45.77627406041963" fill="#4dd2ff" stroke="none" /><path d="M 114.68862486808459 84.99185889309783 l 9.731358332804813 -9.943040981181241 a34.91270638498848,34.91270638498848 0 0,0 0.42587549976684685,0.4240466550280598 l -9.901069632738983 9.774058475503063" fill="#ff990e" stroke="none" /><path d="M 114.94478906791727 85.2469230424477 l 4.682111284330984 -4.622049049179758 a27.579171945760578,27.579171945760578 0 0,0 0.33060300743926657,0.3407154599909578 l -4.7609785554733595 4.540769393638685" fill="#ff3104" stroke="none" /><path d="M 115.19652480421416 85.50635884689758 l 12.393299775509915 -11.820073468327031 a38.12623765227794,38.12623765227794 0 0,0 0.44885961133158314,0.4788121375371964 l -12.594926708811961 11.60499191391178" fill="#ffc412" stroke="none" /><path d="M 115.4437574822437 85.77008943001954 l 10.057274305872975 -9.266793661767792 a34.675607161415265,34.675607161415265 0 0,0 0.4006788853913119,0.4424396327922517 l -10.215296831880321 9.092301241705993" fill="#ff960d" stroke="none" /><path d="M 115.68641384162765 86.03803664274999 l 12.827042996249746 -11.416930989047943 a38.172051282136415,38.172051282136415 0 0,0 0.43263137090819515,0.4945724448425067 l -13.02166623073579 11.194442988002487" fill="#ffc512" stroke="none" /><path d="M 115.9244219780498 86.31012108654704 l 7.774976058056374 -6.683977662517495 a31.253087832276805,31.253087832276805 0 0,0 0.34719112795357604,0.4109647857780336 l -7.888877799497067 6.549153927110354" fill="#ff6609" stroke="none" /><path d="M 116.15771136456269 86.58626213691792 l 12.778226086928413 -10.608171616506267 a37.607720101624636,37.607720101624636 0 0,0 0.409210512037599,0.5016437021625096 l -12.958935091042422 10.386643744735656" fill="#ffbd11" stroke="none" /><path d="M 116.38621287248628 86.86637796730983 l 15.984393331858106 -12.811561895120448 a41.48504206439548,41.48504206439548 0 0,0 0.44180763686141916,0.5610508325460221 l -16.20255504931349 12.534518668621388" fill="#fff016" stroke="none" /><path d="M 116.60985879189232 87.15038557335679 l 8.011279757364186 -6.197635827966821 a31.12873601229942,31.12873601229942 0 0,0 0.3242192150619985,0.42663448247238567 l -8.116774912650298 6.058816569613402" fill="#ff6409" stroke="none" /><path d="M 116.82858285166822 87.43820079747576 l 2.813811561640783 -2.100386951333148 a24.51129048210966,24.51129048210966 0 0,0 0.24947519959836828,0.340283891886306 l -2.8495493737527777 2.0516406157753484" fill="#ff0300" stroke="none" /><path d="M 117.04232023915458 87.72973835380427 l 18.937632938311637 -13.634863554484266 a44.33545468714139,44.33545468714139 0 0,0 0.440583328022057,0.6231738723516538 l -19.169528886137577 13.30686318180082" fill="#eaff1a" stroke="none" /><path d="M 117.2510076193507 88.02491185347247 l 5.535832965886941 -3.842795110506373 a27.73888127863463,27.73888127863463 0 0,0 0.26890274181188634,0.39458159275339294 l -5.601160173367561 3.7469354944825737" fill="#ff3304" stroke="none" /><path d="M 117.45458315368197 88.32363383020206 l 20.769882640773375 -13.89415908028957 a45.98871108040373,45.98871108040373 0 0,0 0.4344911911383038,0.6617598928308475 l -21.005970467269602 13.53458112348105" fill="#d6ff1c" stroke="none" /><path d="M 117.65298651832404 88.62581576622439 l 4.558526562050807 -2.937152922963212 a26.42282506723148,26.42282506723148 0 0,0 0.24305526820046297,0.38445506444421984 l -4.608409426497226 2.858250210804786" fill="#ff2003" stroke="none" /><line stroke="#e1ed5e" stroke-width="0.3" x1="172.23445277983987" x2="176.4835382374775" y1="55.19839476539836" y2="52.563006222186495" /><path d="M 173.08426987136738 54.67131705675599 a86.0,86.0 0 0,1 12.851231095245387,41.99856678651699" fill="none" id="id111" stroke="none" /><text fill="#e1ed5e" style="font-size:6.75px; font-family:Arial;" text-anchor="middle"><textPath startOffset="22.20632615414155" xlink:href="#id111">March</textPath></text><line stroke="#e1ed5e" stroke-width="0.3" x1="184.98032266829074" x2="189.97916517819016" y1="98.17113171792111" y2="98.06355123074" /><path d="M 185.9800911702706 98.14961562048488 a86.0,86.0 0 0,1 -9.607161424134198,41.387399972396054" fill="none" id="id112" stroke="none" /><text fill="#e1ed5e" style="font-size:6.75px; font-family:Arial;" text-anchor="middle"><textPath startOffset="21.466115282336823" xlink:href="#id112">April</textPath></text><line stroke="#e1ed5e" stroke-width="0.3" x1="174.80103733775053" x2="179.2010983576182" y1="140.37084112569926" y2="142.7455964860345" /><path d="M 175.68104954172406 140.8457921977663 a86.0,86.0 0 0,1 -30.038265399797805,32.042727171017184" fill="none" id="id113" stroke="none" /><text fill="#e1ed5e" style="font-size:6.75px; font-family:Arial;" text-anchor="middle"><textPath startOffset="22.206326154141568" xlink:href="#id113">May</textPath></text><line stroke="#e1ed5e" stroke-width="0.3" x1="143.8653032363475" x2="146.44561519142675" y1="172.8068346515853" y2="177.08958963109032" /><path d="M 144.38136562736335 173.6633856474863 a86.0,86.0 0 0,1 -40.68145358897372,12.25698825130547" fill="none" id="id114" stroke="none" /><text fill="#e1ed5e" style="font-size:6.75px; font-family:Arial;" text-anchor="middle"><textPath startOffset="21.466115282336833" xlink:href="#id114">June</textPath></text><line stroke="#e1ed5e" stroke-width="0.3" x1="102.19456741930631" x2="102.32365962044197" y1="184.97166512339345" y2="189.96999836594603" /><path d="M 102.22038585953345 185.97133177190398 a86.0,86.0 0 0,1 -42.740103519485714,-10.115201625700543" fill="none" id="id115" stroke="none" /><text fill="#e1ed5e" style="font-size:6.75px; font-family:Arial;" text-anchor="middle"><textPath startOffset="22.20632615414155" xlink:href="#id115">July</textPath></text><line stroke="#e1ed5e" stroke-width="0.3" x1="58.666819895761336" x2="56.23545636021788" y1="174.27360380694188" y2="178.64263932499728" /><path d="M 58.180547188652646 175.14741091055294 a86.0,86.0 0 0,1 -31.652253787137756,-30.449443065178592" fill="none" id="id116" stroke="none" /><text fill="#e1ed5e" style="font-size:6.75px; font-family:Arial;" text-anchor="middle"><textPath startOffset="22.20632615414155" xlink:href="#id116">August</textPath></text><line stroke="#e1ed5e" stroke-width="0.3" x1="26.63291911575756" x2="22.317208475507996" y1="142.92168965132927" y2="145.44649492493687" /><path d="M 25.769776987707644 143.4266507060508 a86.0,86.0 0 0,1 -11.730757126820373,-40.83630448921669" fill="none" id="id117" stroke="none" /><text fill="#e1ed5e" style="font-size:6.75px; font-family:Arial;" text-anchor="middle"><textPath startOffset="21.46611528233685" xlink:href="#id117">September</textPath></text><line stroke="#e1ed5e" stroke-width="0.3" x1="15.007084014347285" x2="10.007500721073583" y1="101.09737516637583" y2="101.16192664675087" /><path d="M 14.007167355692545 101.11028546245083 a86.0,86.0 0 0,1 10.666146001902534,-42.60595125391555" fill="none" id="id118" stroke="none" /><text fill="#e1ed5e" style="font-size:6.75px; font-family:Arial;" text-anchor="middle"><textPath startOffset="22.20632615414155" xlink:href="#id118">October</textPath></text><line stroke="#e1ed5e" stroke-width="0.3" x1="26.266209847984243" x2="21.928928074336255" y1="57.711370442889674" y2="55.22380399835377" /><path d="M 25.398753493254645 57.213857153982495 a86.0,86.0 0 0,1 29.58750427330803,-30.492523968695096" fill="none" id="id119" stroke="none" /><text fill="#e1ed5e" style="font-size:6.75px; font-family:Arial;" text-anchor="middle"><textPath startOffset="21.46611528233685" xlink:href="#id119">November</textPath></text><line stroke="#e1ed5e" stroke-width="0.3" x1="56.762969772571076" x2="54.21961505331055" y1="26.818313649435495" y2="22.513508569990535" /><path d="M 56.25429882871897 25.957352633546506 a86.0,86.0 0 0,1 42.265352541879196,-11.944610805530505" fill="none" id="id120" stroke="none" /><text fill="#e1ed5e" style="font-size:6.75px; font-family:Arial;" text-anchor="middle"><textPath startOffset="22.20632615414155" xlink:href="#id120">December</textPath></text></svg>