<?xml version="1.0" encoding="utf-8" ?>
<svg baseProfile="full" height="200mm" version="1.1" viewBox="0,0,200,200" width="200mm" xmlns="http://www.w3.org/2000/svg" xmlns:ev="http://www.w3.org/2001/xml-events" xmlns:xlink="http://www.w3.org/1999/xlink"><defs /><rect fill="#1a1a1a" height="200" width="200" x="0" y="0" /><text alignment-baseline="middle" fill="#e1ed5e" style="dominant-baseline: central; font-size:9.0px; font-family:Arial;" text-anchor="middle" x="100.0" y="100.0">2022</text><line stroke="#e1ed5e" stroke-width="0.3" x1="100.0" x2="100.0" y1="15.0" y2="10.0" /><path d="M 100.0 14.0 a86.0,86.0 0 0,1 42.46469731375804,11.215312516191453" fill="none" id="id121" stroke="none" /><text fill="#e1ed5e" style="font-size:6.75px; font-family:Arial;" text-anchor="middle"><textPath startOffset="22.20632615414155" xlink:href="#id121">January</textPath></text><path d="M 100.0 79.0 l 0.0 -24.615996275377057 a45.61599627537706,45.61599627537706 0 0,0 0.7852043902912937,0.006758502085110318 l -0.42372391101876533 24.612349149900506" fill="#ffd313" stroke="none"><animate attributeName="opacity" dur="10s" keyTimes="0;0.04;0.09;0.13;0.17;0.22;0.26;0.3;0.35;0.39;0.43;0.48;0.52;0.57;0.61;0.65;0.7;0.74;0.78;0.83;0.87;0.91;0.96;1.0;1" repeatCount="indefinite" values="0;1;1;1;1;1;1;1;1;1;1;1;1;1;1;1;1;1;1;1;1;1;1;1;1" /></path><path d="M 100.36148047927253 79.00311137660856 l 0.5789250337370933 -33.62733301431328 a54.63231600485181,54.63231600485181 0 0,0 0.9401268505605036,0.02428070290559876 l -1.1576785194924646 33.61238551926532" fill="#a9ff21" stroke="none"><animate attributeName="opacity" dur="10s" keyTimes="0;0.04;0.09;0.13;0.17;0.22;0.26;0.3;0.35;0.39;0.43;0.48;0.52;0.57;0.61;0.65;0.7;0.74;0.78;0.83;0.87;0.91;0.96;1.0;1" repeatCount="indefinite" values="0;0;1;1;1;1;1;1;1;1;1;1;1;1;1;1;1;1;1;1;1;1;1;1;1" /></path><path d="M 100.72285384407766 79.0124445844662 l 0.8347549739606687 -24.236526398702786 a45.25089746260062,45.25089746260062 0 0,0 0.7782274505346928,0.033512111064951715 l -1.251823256884693 24.21856656111364" fill="#ffcd13" stroke="none"><animate attributeName="opacity" dur="10s" keyTimes="0;0.04;0.09;0.13;0.17;0.22;0.26;0.3;0.35;0.39;0.43;0.48;0.52;0.57;0.61;0.65;0.7;0.74;0.78;0.83;0.87;0.91;0.96;1.0;1" repeatCount="indefinite" values="0;0;0;1;1;1;1;1;1;1;1;1;1;1;1;1;1;1;1;1;1;1;1;1;1" /></path><path d="M 101.08401301168833 79.027996857942 l 1.2687570172824272 -24.546177828173082 a45.578946078731676,45.578946078731676 0 0,0 0.783172072338064,0.04724307815359038 l -1.6910911384601028 24.52070148063919" fill="#ffd213" stroke="none"><animate attributeName="opacity" dur="10s" keyTimes="0;0.04;0.09;0.13;0.17;0.22;0.26;0.3;0.35;0.39;0.43;0.48;0.52;0.57;0.61;0.65;0.7;0.74;0.78;0.83;0.87;0.91;0.96;1.0;1" repeatCount="indefinite" values="0;0;0;0;1;1;1;1;1;1;1;1;1;1;1;1;1;1;1;1;1;1;1;1;1" /></path><path d="M 101.44485096284872 79.0497635885617 l 1.7113249645365811 -24.814090522630316 a45.87303201460445,45.87303201460445 0 0,0 0.787290037226612,0.061108859201368215 l -2.138205191125534 24.780956401240484" fill="#ffd714" stroke="none"><animate attributeName="opacity" dur="10s" keyTimes="0;0.04;0.09;0.13;0.17;0.22;0.26;0.3;0.35;0.39;0.43;0.48;0.52;0.57;0.61;0.65;0.7;0.74;0.78;0.83;0.87;0.91;0.96;1.0;1" repeatCount="indefinite" values="0;0;0;0;0;1;1;1;1;1;1;1;1;1;1;1;1;1;1;1;1;1;1;1;1" /></path><path d="M 101.80526077348638 79.07773832637324 l 2.1163745832593372 -24.527948250296827 a45.61908379176417,45.61908379176417 0 0,0 0.7817696181819348,0.07423844515714284 l -2.5382693285315163 24.487884260624504" fill="#ffd313" stroke="none"><animate attributeName="opacity" dur="10s" keyTimes="0;0.04;0.09;0.13;0.17;0.22;0.26;0.3;0.35;0.39;0.43;0.48;0.52;0.57;0.61;0.65;0.7;0.74;0.78;0.83;0.87;0.91;0.96;1.0;1" repeatCount="indefinite" values="0;0;0;0;0;0;1;1;1;1;1;1;1;1;1;1;1;1;1;1;1;1;1;1;1" /></path><path d="M 102.16513564639614 79.11191278185805 l 4.083513898279015 -39.3955891889376 a60.606660213920776,60.606660213920776 0 0,0 1.0367585875196543,0.1164919072793421 l -4.761039189308394 39.31946132818766" fill="#5cff2a" stroke="none"><animate attributeName="opacity" dur="10s" keyTimes="0;0.04;0.09;0.13;0.17;0.22;0.26;0.3;0.35;0.39;0.43;0.48;0.52;0.57;0.61;0.65;0.7;0.74;0.78;0.83;0.87;0.91;0.96;1.0;1" repeatCount="indefinite" values="0;0;0;0;0;0;0;1;1;1;1;1;1;1;1;1;1;1;1;1;1;1;1;1;1" /></path><path d="M 102.52436894288641 79.15227682838746 l 2.9781547174000536 -24.595352943772202 a45.77500336931352,45.77500336931352 0 0,0 0.7814125957334579,0.10144978161786397 l -3.401082041641357 24.5404448389902" fill="#ffd513" stroke="none"><animate attributeName="opacity" dur="10s" keyTimes="0;0.04;0.09;0.13;0.17;0.22;0.26;0.3;0.35;0.39;0.43;0.48;0.52;0.57;0.61;0.65;0.7;0.74;0.78;0.83;0.87;0.91;0.96;1.0;1" repeatCount="indefinite" values="0;0;0;0;0;0;0;0;1;1;1;1;1;1;1;1;1;1;1;1;1;1;1;1;1" /></path><path d="M 102.88285421437855 79.19881850522331 l 4.534458167677934 -32.71829940477016 a54.03102218846102,54.03102218846102 0 0,0 0.9201509311305351,0.13560632836918907 l -5.096978079237124 32.63539859224" fill="#b1ff20" stroke="none"><animate attributeName="opacity" dur="10s" keyTimes="0;0.04;0.09;0.13;0.17;0.22;0.26;0.3;0.35;0.39;0.43;0.48;0.52;0.57;0.61;0.65;0.7;0.74;0.78;0.83;0.87;0.91;0.96;1.0;1" repeatCount="indefinite" values="0;0;0;0;0;0;0;0;0;1;1;1;1;1;1;1;1;1;1;1;1;1;1;1;1" /></path><path d="M 103.2404852339499 79.25152402106235 l 3.729859288933016 -23.881885049330396 a45.17139391563239,45.17139391563239 0 0,0 0.7672055679858185,0.12659549238863177 l -4.14039406305771 23.81414329400214" fill="#ffcc13" stroke="none"><animate attributeName="opacity" dur="10s" keyTimes="0;0.04;0.09;0.13;0.17;0.22;0.26;0.3;0.35;0.39;0.43;0.48;0.52;0.57;0.61;0.65;0.7;0.74;0.78;0.83;0.87;0.91;0.96;1.0;1" repeatCount="indefinite" values="0;0;0;0;0;0;0;0;0;0;1;1;1;1;1;1;1;1;1;1;1;1;1;1;1" /></path><path d="M 103.59715602781102 79.31037775812273 l 2.0735685802629424 -11.926463652557416 a33.105379874784056,33.105379874784056 0 0,0 0.5605921238673832,0.10244462742208522 l -2.2785558252332265 11.889003543784591" fill="#ff0500" stroke="none"><animate attributeName="opacity" dur="10s" keyTimes="0;0.04;0.09;0.13;0.17;0.22;0.26;0.3;0.35;0.39;0.43;0.48;0.52;0.57;0.61;0.65;0.7;0.74;0.78;0.83;0.87;0.91;0.96;1.0;1" repeatCount="indefinite" values="0;0;0;0;0;0;0;0;0;0;0;1;1;1;1;1;1;1;1;1;1;1;1;1;1" /></path><path d="M 103.95276090670814 79.375362276772 l 5.743971469144655 -29.970780788339216 a51.51624009115525,51.51624009115525 0 0,0 0.8694802831553229,0.17440956515513595 l -6.259018161767103 29.86746726710687" fill="#d4ff1c" stroke="none"><animate attributeName="opacity" dur="10s" keyTimes="0;0.04;0.09;0.13;0.17;0.22;0.26;0.3;0.35;0.39;0.43;0.48;0.52;0.57;0.61;0.65;0.7;0.74;0.78;0.83;0.87;0.91;0.96;1.0;1" repeatCount="indefinite" values="0;0;0;0;0;0;0;0;0;0;0;0;1;1;1;1;1;1;1;1;1;1;1;1;1" /></path><path d="M 104.307194497241 79.44645832069477 l 9.612939997027912 -45.87207822078486 a67.86849875641701,67.86849875641701 0 0,0 1.1413454350764718,0.24945390516631377 l -10.401128156257911 45.69981081752267" fill="#35ff63" stroke="none"><animate attributeName="opacity" dur="10s" keyTimes="0;0.04;0.09;0.13;0.17;0.22;0.26;0.3;0.35;0.39;0.43;0.48;0.52;0.57;0.61;0.65;0.7;0.74;0.78;0.83;0.87;0.91;0.96;1.0;1" repeatCount="indefinite" values="0;0;0;0;0;0;0;0;0;0;0;0;0;1;1;1;1;1;1;1;1;1;1;1;1" /></path><path d="M 104.66035177308747 79.52364482259891 l 2.622550594076229 -11.522794855340448 a32.817468971685514,32.817468971685514 0 0,0 0.5497337256229198,0.13010421167062014 l -2.8205080066616723 11.47594473152896" fill="#ff0000" stroke="none"><animate attributeName="opacity" dur="10s" keyTimes="0;0.04;0.09;0.13;0.17;0.22;0.26;0.3;0.35;0.39;0.43;0.48;0.52;0.57;0.61;0.65;0.7;0.74;0.78;0.83;0.87;0.91;0.96;1.0;1" repeatCount="indefinite" values="0;0;0;0;0;0;0;0;0;0;0;0;0;0;1;1;1;1;1;1;1;1;1;1;1" /></path><path d="M 105.01212808612495 79.60689891045804 l 7.534127723085287 -30.654489597688332 a52.56676754187138,52.56676754187138 0 0,0 0.8768414962132419,0.22352642107508197 l -8.060678107983554 30.52026018044438" fill="#c6ff1e" stroke="none"><animate attributeName="opacity" dur="10s" keyTimes="0;0.04;0.09;0.13;0.17;0.22;0.26;0.3;0.35;0.39;0.43;0.48;0.52;0.57;0.61;0.65;0.7;0.74;0.78;0.83;0.87;0.91;0.96;1.0;1" repeatCount="indefinite" values="0;0;0;0;0;0;0;0;0;0;0;0;0;0;0;1;1;1;1;1;1;1;1;1;1" /></path><path d="M 105.36241919743992 79.69619591428918 l 7.20269366441811 -27.271661477258878 a49.20677783359267,49.20677783359267 0 0,0 0.8170717759558895,0.223336581433894 l -7.67106332959771 27.14363835499869" fill="#f5ff19" stroke="none"><animate attributeName="opacity" dur="10s" keyTimes="0;0.04;0.09;0.13;0.17;0.22;0.26;0.3;0.35;0.39;0.43;0.48;0.52;0.57;0.61;0.65;0.7;0.74;0.78;0.83;0.87;0.91;0.96;1.0;1" repeatCount="indefinite" values="0;0;0;0;0;0;0;0;0;0;0;0;0;0;0;0;1;1;1;1;1;1;1;1;1" /></path><path d="M 105.71112130821622 79.79150937346287 l 6.462140862499957 -22.865932274861933 a44.76152611524277,44.76152611524277 0 0,0 0.7396517824579774,0.21592463788681843 l -6.854782862681361 22.75130930805641" fill="#ffc612" stroke="none"><animate attributeName="opacity" dur="10s" keyTimes="0;0.04;0.09;0.13;0.17;0.22;0.26;0.3;0.35;0.39;0.43;0.48;0.52;0.57;0.61;0.65;0.7;0.74;0.78;0.83;0.87;0.91;0.96;1.0;1" repeatCount="indefinite" values="0;0;0;0;0;0;0;0;0;0;0;0;0;0;0;0;0;1;1;1;1;1;1;1;1" /></path><path d="M 106.0581310904928 79.89281104454417 l 16.086383301904462 -53.391374968574965 a76.76208970950393,76.76208970950393 0 0,0 1.26187600900061,0.3920710184941546 l -17.00304468361579 53.106563815198285" fill="#42ffd8" stroke="none"><animate attributeName="opacity" dur="10s" keyTimes="0;0.04;0.09;0.13;0.17;0.22;0.26;0.3;0.35;0.39;0.43;0.48;0.52;0.57;0.61;0.65;0.7;0.74;0.78;0.83;0.87;0.91;0.96;1.0;1" repeatCount="indefinite" values="0;0;0;0;0;0;0;0;0;0;0;0;0;0;0;0;0;0;1;1;1;1;1;1;1" /></path><path d="M 106.74666289553966 80.11325718540242 l 19.20268275691966 -56.60262254834702 a80.77122973817372,80.77122973817372 0 0,0 1.3127940125513509,0.45800805359301666 l -20.174158773534288 56.263693641581796" fill="#48f6ff" stroke="none"><animate attributeName="opacity" dur="10s" keyTimes="0;0.04;0.09;0.13;0.17;0.22;0.26;0.3;0.35;0.39;0.43;0.48;0.52;0.57;0.61;0.65;0.7;0.74;0.78;0.83;0.87;0.91;0.96;1.0;1" repeatCount="indefinite" values="0;0;0;0;0;0;0;0;0;0;0;0;0;0;0;0;0;0;0;1;1;1;1;1;1" /></path><path d="M 107.08798089147638 80.2323363322302 l 6.5035322778002005 -18.137695443654195 a40.268417892892586,40.268417892892586 0 0,0 0.6504647172592852,0.23957164486415825 l -6.814779320832062 18.023060530983713" fill="#ff7f0b" stroke="none"><animate attributeName="opacity" dur="10s" keyTimes="0;0.04;0.09;0.13;0.17;0.22;0.26;0.3;0.35;0.39;0.43;0.48;0.52;0.57;0.61;0.65;0.7;0.74;0.78;0.83;0.87;0.91;0.96;1.0;1" repeatCount="indefinite" values="0;0;0;0;0;0;0;0;0;0;0;0;0;0;0;0;0;0;0;0;1;1;1;1;1" /></path><path d="M 107.4271985657038 80.35727306442388 l 11.664812145969362 -30.849952066194085 a53.98162192626717,53.98162192626717 0 0,0 0.8663197795131018,0.33611861536578413 l -12.19411509048213 30.644590746937755" fill="#b2ff20" stroke="none"><animate attributeName="opacity" dur="10s" keyTimes="0;0.04;0.09;0.13;0.17;0.22;0.26;0.3;0.35;0.39;0.43;0.48;0.52;0.57;0.61;0.65;0.7;0.74;0.78;0.83;0.87;0.91;0.96;1.0;1" repeatCount="indefinite" values="0;0;0;0;0;0;0;0;0;0;0;0;0;0;0;0;0;0;0;0;0;1;1;1;1" /></path><path d="M 107.76421540070413 80.48803036053334 l 23.292646202112408 -58.53590891839998 a84.0,84.0 0 0,0 1.33886452164645,0.5461564552656828 l -24.296794593347244 58.12629157695072" fill="#4dd2ff" stroke="none"><animate attributeName="opacity" dur="10s" keyTimes="0;0.04;0.09;0.13;0.17;0.22;0.26;0.3;0.35;0.39;0.43;0.48;0.52;0.57;0.61;0.65;0.7;0.74;0.78;0.83;0.87;0.91;0.96;1.0;1" repeatCount="indefinite" values="0;0;0;0;0;0;0;0;0;0;0;0;0;0;0;0;0;0;0;0;0;0;1;1;1" /></path><path d="M 108.09893153111575 80.62456947434976 l 6.121307382141406 -14.644273192477703 a36.87214986706527,36.87214986706527 0 0,0 0.5834863945721647,0.24981842324346504 l -6.372477534503886 14.536735241271447" fill="#ff4606" stroke="none"><animate attributeName="opacity" dur="10s" keyTimes="0;0.04;0.09;0.13;0.17;0.22;0.26;0.3;0.35;0.39;0.43;0.48;0.52;0.57;0.61;0.65;0.7;0.74;0.78;0.83;0.87;0.91;0.96;1.0;1" repeatCount="indefinite" values="0;0;0;0;0;0;0;0;0;0;0;0;0;0;0;0;0;0;0;0;0;0;0;1;1" /></path><line stroke="#e1ed5e" stroke-width="0.3" x1="143.23703022742887" x2="145.7803849466894" y1="26.81831364943548" y2="22.513508569990506" /><path d="M 143.74570117128098 25.957352633546492 a86.0,86.0 0 0,1 28.547481713284135,27.462654790039103" fill="none" id="id122" stroke="none" /><text fill="#e1ed5e" style="font-size:6.75px; font-family:Arial;" text-anchor="middle"><textPath startOffset="19.985693538727396" xlink:href="#id122">February</textPath></text><line stroke="#e1ed5e" stroke-width="0.3" x1="172.23445277983987" x2="176.4835382374775" y1="55.19839476539836" y2="52.563006222186495" /><path d="M 173.08426987136738 54.67131705675599 a86.0,86.0 0 0,1 12.851231095245387,41.99856678651699" fill="none" id="id123" stroke="none" /><text fill="#e1ed5e" style="font-size:6.75px; font-family:Arial;" text-anchor="middle"><textPath startOffset="22.20632615414155" xlink:href="#id123">March</textPath></text><line stroke="#e1ed5e" stroke-width="0.3" x1="184.98032266829074" x2="189.97916517819016" y1="98.17113171792111" y2="98.06355123074" /><path d="M 185.9800911702706 98.14961562048488 a86.0,86.0 0 0,1 -9.607161424134198,41.387399972396054" fill="none" id="id124" stroke="none" /><text fill="#e1ed5e" style="font-size:6.75px; font-family:Arial;" text-anchor="middle"><textPath startOffset="21.466115282336823" xlink:href="#id124">April</textPath></text><line stroke="#e1ed5e" stroke-width="0.3" x1="174.80103733775053" x2="179.2010983576182" y1="140.37084112569926" y2="142.7455964860345" /><path d="M 175.68104954172406 140.8457921977663 a86.0,86.0 0 0,1 -30.038265399797805,32.042727171017184" fill="none" id="id125" stroke="none" /><text fill="#e1ed5e" style="font-size:6.75px; font-family:Arial;" text-anchor="middle"><textPath startOffset="22.206326154141568" xlink:href="#id125">May</textPath></text><line stroke="#e1ed5e" stroke-width="0.3" x1="143.8653032363475" x2="146.44561519142675" y1="172.8068346515853" y2="177.08958963109032" /><path d="M 144.38136562736335 173.6633856474863 a86.0,86.0 0 0,1 -40.68145358897372,12.25698825130547" fill="none" id="id126" stroke="none" /><text fill="#e1ed5e" style="font-size:6.75px; font-family:Arial;" text-anchor="middle"><textPath startOffset="21.466115282336833" xlink:href="#id126">June</textPath></text><line stroke="#e1ed5e" stroke-width="0.3" x1="102.19456741930631" x2="102.32365962044197" y1="184.97166512339345" y2="189.96999836594603" /><path d="M 102.22038585953345 185.97133177190398 a86.0,86.0 0 0,1 -42.740103519485714,-10.115201625700543" fill="none" id="id127" stroke="none" /><text fill="#e1ed5e" style="font-size:6.75px; font-family:Arial;" text-anchor="middle"><textPath startOffset="22.20632615414155" xlink:href="#id127">July</textPath></text><line stroke="#e1ed5e" stroke-width="0.3" x1="58.666819895761336" x2="56.23545636021788" y1="174.27360380694188" y2="178.64263932499728" /><path d="M 58.180547188652646 175.14741091055294 a86.0,86.0 0 0,1 -31.652253787137756,-30.449443065178592" fill="none" id="id128" stroke="none" /><text fill="#e1ed5e" style="font-size:6.75px; font-family:Arial;" text-anchor="middle"><textPath startOffset="22.20632615414155" xlink:href="#id128">August</textPath></text><line stroke="#e1ed5e" stroke-width="0.3" x1="26.63291911575756" x2="22.317208475507996" y1="142.92168965132927" y2="145.44649492493687" /><path d="M 25.769776987707644 143.4266507060508 a86.0,86.0 0 0,1 -11.730757126820373,-40.83630448921669" fill="none" id="id129" stroke="none" /><text fill="#e1ed5e" style="font-size:6.75px; font-family:Arial;" text-anchor="middle"><textPath startOffset="21.46611528233685" xlink:href="#id129">September</textPath></text><line stroke="#e1ed5e" stroke-width="0.3" x1="15.007084014347285" x2="10.007500721073583" y1="101.09737516637583" y2="101.16192664675087" /><path d="M 14.007167355692545 101.11028546245083 a86.0,86.0 0 0,1 10.666146001902534,-42.60595125391555" fill="none" id="id130" stroke="none" /><text fill="#e1ed5e" style="font-size:6.75px; font-family:Arial;" text-anchor="middle"><textPath startOffset="22.20632615414155" xlink:href="#id130">October</textPath></text><line stroke="#e1ed5e" stroke-width="0.3" x1="26.266209847984243" x2="21.928928074336255" y1="57.711370442889674" y2="55.22380399835377" /><path d="M 25.398753493254645 57.213857153982495 a86.0,86.0 0 0,1 29.58750427330803,-30.492523968695096" fill="none" id="id131" stroke="none" /><text fill="#e1ed5e" style="font-size:6.75px; font-family:Arial;" text-anchor="middle"><textPath startOffset="21.46611528233685" xlink:href="#id131">November</textPath></text><line stroke="#e1ed5e" stroke-width="0.3" x1="56.762969772571076" x2="54.21961505331055" y1="26.818313649435495" y2="22.513508569990535" /><path d="M 56.25429882871897 25.957352633546506 a86.0,86.0 0 0,1 42.265352541879196,-11.944610805530505" fill="none" id="id132" stroke="none" /><text fill="#e1ed5e" style="font-size:6.75px; font-family:Arial;" text-anchor="middle"><textPath startOffset="22.20632615414155" xlink:href="#id132">December</textPath></text></svg>